<?xml version="1.0" encoding="utf-8"?>
<!-- Generator: Adobe Illustrator 26.0.2, SVG Export Plug-In . SVG Version: 6.00 Build 0)  -->
<svg version="1.1" id="Ebene_1" xmlns="http://www.w3.org/2000/svg" xmlns:xlink="http://www.w3.org/1999/xlink" x="0px" y="0px"
	 viewBox="0 0 260 357" style="enable-background:new 0 0 260 357;" xml:space="preserve">
<style type="text/css">
	.st0{enable-background:new    ;}
	.st1{fill:#FFFFFF;}
</style>
<g class="st0">
	<path class="st1" d="M57.2,351.4c-0.2-0.2-0.3-0.6-0.3-0.8c-0.1-0.8,3.6-11.7,4.8-14.4c0.5-1.1,1.2-1.3,0.7-0.1
		c-0.2,0.4-0.7,1.7-1,2.9c-0.4,1.2-1.2,4.2-2,6.7c-0.8,2.4-1.3,4.6-1.3,4.7c0.3,0.8,8.6-10.1,9.7-12.5c0.3-0.8,1-1,1.4-0.3
		c0.2,0.3,0.2,0.9-0.1,2.5c-0.4,2.6-0.7,5.2-0.5,5.3c0.1,0,0.7-0.7,1.5-1.5c3.8-4.7,4-4.9,4.4-4.9c0.6,0,0.8,1.2,0.6,3.4
		c-0.2,1.9,0.2,3.1,1.1,3.3c1.3,0.3,6.1-2.3,8.5-4.6c1.5-1.4,2.1-1.7,2.1-1s-4.7,4.8-6.8,6.1c-4.5,2.6-7,0.8-6.2-4.5
		c0.1-0.7-0.4-0.1-3.6,4.2c-1.1,1.4-1.4,1.8-2,1.8c-1.1,0.1-1.2-0.6-1-3.9c0.2-1.5,0.3-2.8,0.3-2.8c-0.1-0.1-0.9,1.1-1.9,2.6
		c-3,4.4-6.4,8.1-7.5,8.2C57.7,351.8,57.3,351.6,57.2,351.4z"/>
	<path class="st1" d="M85.3,349.9c-0.8-0.6-1.1-1.6-1-4.3c0.1-2.1,0.3-2.6,1.1-4.8c1.2-2.9,2-4.3,2.8-4.3c0.9-0.1,1,0.7,0.2,2.3
		c-1.4,2.8-2.1,4.7-2.2,6.8c-0.1,1.1-0.1,2.1-0.1,2.3c0.3,0.5,5.8-3.5,9.2-6.9c2.2-2.1,3-2.6,3.1-2.1c0,0.2-1.1,1.4-3.4,3.5
		c-1.1,1-2.9,2.8-3.9,3.9c-1.9,2-4.3,3.9-5,4C86,350.3,85.6,350.1,85.3,349.9z M87.6,331.7c-0.2-0.5,1.3-2.3,1.7-2.2
		c0.4,0.3,0.5,1.1-0.2,1.8C88.5,332.2,87.9,332.3,87.6,331.7z"/>
	<path class="st1" d="M97.7,351.6c-1.9-1-2.2-4.2-0.8-10c0.3-1.2,0.9-3,1.2-4c0.4-1,1.2-3.2,1.8-4.9c0.7-1.7,1.7-4.3,2.5-5.7
		c0.7-1.4,1.3-2.6,1.3-2.6c0,0-1.7,0.1-3.9,0.2c-2.7,0.1-3.9,0.2-4.1-0.1c-0.5-0.5,0.2-0.7,4.6-1.2l4.3-0.5l0.3-0.7
		c0.7-1.4,2.4-3.6,3.1-4c0.8-0.5,0.8-0.5,1.3-0.1c0.8,0.6,0.8,2,0,4.3c-0.1,0.3,0,0.4,2.3,0.2c2.6-0.2,3.5-0.1,3.4,0.3
		c-0.1,0.2-1.2,0.3-3.4,0.6l-3.3,0.4l-0.6,0.9c-0.4,0.5-1.5,1.7-2.5,2.7c-1,1-2.1,2.1-2.3,2.5c-0.6,0.9-3.7,9.5-4.2,11.8
		c-0.9,3.9-1.1,7-0.4,8c0.7,1.1,3.6-0.2,8.2-3.7c1.4-1.1,3.4-2.6,4.3-3.3c1-0.8,2.7-2.4,3.9-3.6c2-2.1,2.4-2.5,2.6-1.7
		c0.2,0.7-4.6,5.7-9.1,9.3c-3.5,2.9-4.5,3.5-6.3,4.5C100,352,98.8,352.2,97.7,351.6z M105.7,325c0.5-0.6,0.6-0.9,0.1-0.9
		c-0.3,0-1.2,1.2-1.1,1.5C104.7,325.9,105.1,325.6,105.7,325z M107.4,322.5c0.6-0.8,1.1-2.9,0.7-2.5c-0.4,0.3-1.9,2.5-1.8,2.8
		C106.3,323.1,107,322.9,107.4,322.5z"/>
	<path class="st1" d="M139,355.3c0-0.2,0.1-1.1,0.3-2c0.2-0.9,0.8-3.4,1.1-5.6c1.6-7.9,1.7-8.4,7.5-25.6c0.3-0.7,0.9-2.3,1.4-3.6
		c1.2-2.9,2.1-5.4,1.9-5.5c0,0-0.5,0.3-1,0.7c-2.1,1.7-5.6,3.1-6.3,2.4c-0.6-0.7,0.9-1.8,3.9-3.1l1.9-0.8l-1.5,0.1
		c-1.8,0.1-3.9,0.7-8.9,2.4c-3.7,1.2-6.4,2.3-7.8,3.2c-0.6,0.3-0.9,0.4-1.1,0.2c-0.8-0.7,2.8-2.6,9.4-4.9c5.4-1.8,5.5-1.8,8.2-2
		c2.2-0.3,2.4-0.2,2.8,0.1c0.6,0.5,1,0.5,1.3-0.1c0.3-0.6,0.9-0.6,1.1-0.2c0.1,0.3,0.3,0.3,0.9,0.2c3.3-0.7,6.6-1.2,10.2-1.4
		c4.5-0.2,9.5-0.1,9.6,0.2c0.1,0.2-1.3,0.3-3,0.3c-2.3-0.1-17.8,2-18.1,2.4c-0.1,0.1-0.3,0.8-0.5,1.6c-0.2,0.7-0.8,2.6-1.3,4.1
		c-1.4,3.7-6.4,18.4-7.1,20.5c-1.2,4-2.3,8.3-2.9,11.6c-1,4.8-1.1,4.9-1.5,5C139.1,355.7,139,355.6,139,355.3z"/>
	<path class="st1" d="M155.8,344.2c-0.8-0.6-1.1-1.6-1-4.3c0.1-2.1,0.3-2.6,1.1-4.8c1.2-2.9,2-4.3,2.8-4.3c0.9-0.1,1,0.7,0.2,2.3
		c-1.4,2.8-2.1,4.7-2.2,6.8c-0.1,1.1-0.1,2.1-0.1,2.3c0.3,0.5,5.8-3.5,9.2-6.9c2.2-2.1,3-2.6,3.1-2.1c0,0.2-1.1,1.4-3.4,3.5
		c-1.1,1-2.9,2.8-3.9,3.9c-1.9,2-4.3,3.9-5,4C156.5,344.6,156.1,344.4,155.8,344.2z M158.1,326.1c-0.2-0.5,1.3-2.3,1.7-2.2
		c0.4,0.3,0.5,1.1-0.2,1.8C159,326.6,158.4,326.6,158.1,326.1z"/>
	<path class="st1" d="M166.1,340.8c-0.5-0.8-0.2-2,2.6-9.4c1.3-3.3,2.3-4.5,3.3-3.7c0.4,0.4,0.4,0.8-0.2,1.9
		c-0.7,1.2-2.8,7.3-2.2,6.4c1.9-2.8,4.4-5.8,5-6.2c0.7-0.4,0.8-0.5,1.3-0.1c0.9,0.5,1.3,1.3,1.7,3.6c0.4,1.6,0.6,2.2,0.9,2.5
		c0.3,0.2,0.7,0.3,0.8,0.3c0.5,0,6-2.6,7.9-3.6c1.8-1,2.4-1.2,2.5-0.9c0.1,0.1-0.7,0.6-1.6,1.2c-0.9,0.5-2.3,1.4-3,2
		c-2.1,1.7-4.3,3-5.2,3.3c-1.1,0.3-2.8-0.3-3.4-1.2c-0.4-0.4-0.6-1.3-0.8-2.5c-0.5-2.8-0.5-2.8-2.6,0c-1,1.3-2.1,3-2.6,3.6
		C169,340.7,166.9,341.9,166.1,340.8z"/>
	<path class="st1" d="M194.5,342.1c-1.6-0.1-2.1-2.5-1.3-6.8c0.1-0.8,0.1-1.4,0.1-1.4c-0.1-0.1-0.6,0.6-1.1,1.5
		c-1.4,2.1-3.2,3.9-4.2,4c-0.6,0.1-1.3-0.7-1.4-1.5c-0.1-1,1.4-4.8,2.4-6c0.3-0.6,1.2-1.4,1.9-2c1-1,1.3-1,2.4-1.1
		c1.2-0.1,1.4-0.3,1.7-0.7c0.2-0.4,0.5-0.5,0.9-0.5c0.8,0,0.9,0.6,0.3,1.9c-0.5,1.3-1.2,4.3-1.5,7.5c-0.3,2.3-0.2,3.3,0.3,3.3
		c0.2,0,1.2-0.7,2.3-1.6c2.1-1.7,4.7-4.6,6.2-7c0.8-1.4,1.3-1.7,1.6-1.3c0.2,0.2-1.6,2.9-4.2,6.4C198.3,340.3,196,342.2,194.5,342.1
		z M190.9,334.5c1.5-2,2.6-3.8,2.5-3.9c-0.2-0.1-1.5,1-2.4,2.2c-0.9,1-1.8,2.6-2.1,3.6C188.8,337,189.9,336,190.9,334.5z"/>
</g>
<g class="st0">
	<path class="st1" d="M4,228.9h24.1l-0.5,2.2h-21v17h19.6l-0.5,2.2H6.6V270H4V228.9z"/>
</g>
<g class="st0">
	<path class="st1" d="M34.2,254.5c0-10,5.4-16.2,13.8-16.2c7.7,0,13.2,6.1,13.2,15.8v1.5H36.9c0.1,8,4.5,13,11.8,13
		c4.7,0,7.2-0.7,9.3-1.8l0.5,2.2c-2.4,1.1-5.3,1.8-9.9,1.8C39.6,270.7,34.2,264.5,34.2,254.5z M58.7,253.5c-0.1-8-4.5-13-10.6-13
		c-6.7,0-11.1,5.1-11.2,13H58.7z"/>
	<path class="st1" d="M67.6,254.5c0-10,5.4-16.2,13.8-16.2c7.7,0,13.2,6.1,13.2,15.8v1.5H70.2c0.1,8,4.5,13,11.8,13
		c4.7,0,7.2-0.7,9.3-1.8l0.5,2.2c-2.4,1.1-5.3,1.8-9.9,1.8C73,270.7,67.6,264.5,67.6,254.5z M92,253.5c-0.1-8-4.5-13-10.6-13
		c-6.7,0-11.1,5.1-11.2,13H92z"/>
	<path class="st1" d="M102.5,228.7l2.6-0.5V270h-2.6V228.7z"/>
</g>
<g class="st0">
	<path class="st1" d="M142.7,252.3l-15-23.4h3.1l13.3,20.8h0.3l13.3-20.8h2.6l-14.9,23.4V270h-2.6V252.3z"/>
</g>
<g class="st0">
	<path class="st1" d="M161.6,254.5c0-10,5.4-16.2,13.8-16.2c8.4,0,13.8,6.3,13.8,16.2c0,10-5.4,16.2-13.8,16.2
		C167,270.7,161.6,264.5,161.6,254.5z M175.4,268.5c6.9,0,11.2-5.5,11.2-14c0-8.6-4.3-14-11.2-14c-6.9,0-11.2,5.5-11.2,14
		C164.2,263.1,168.5,268.5,175.4,268.5z"/>
	<path class="st1" d="M200.5,279l0.5-2.2c2.1,1.1,4.7,1.8,7.9,1.8c7.4,0,11.7-5.5,11.7-13.7h-0.3c-2.4,3.4-5.9,5.1-10.4,5.1
		c-8.4,0-13.8-6.3-13.8-15.6c0-10,5.4-16.2,13.8-16.2c4.7,0,8.5,2.3,10.5,6.1h0.3l0.3-5.4h2.1v25.6c0,10-5.4,16.2-13.8,16.2
		C205.8,280.8,202.9,280.1,200.5,279z M209.9,267.8c5.2,0,8.8-2.3,10.7-6.3v-10.4c0-6.3-4.2-10.6-10.7-10.6c-6.9,0-11.2,5.5-11.2,14
		C198.7,262.4,203,267.8,209.9,267.8z"/>
	<path class="st1" d="M231,261.7c0-6.1,4-8.6,11-9.8l10.5-1.8v-1.3c0-5.5-3.2-8.4-9.1-8.4c-3.5,0-6.1,0.5-8.1,1.7l-0.5-2.2
		c2.4-1.1,5.3-1.7,9.2-1.7c6.9,0,11.1,3.7,11.1,10.5V270h-2.2l-0.4-6.1h-0.3c-1.7,4.2-5.8,6.8-10.9,6.8
		C235.2,270.7,231,267.1,231,261.7z M241.7,268.5c6,0,10.7-4.8,10.7-10.3v-5.9l-10,1.7c-5.9,1-8.8,2.9-8.8,7.7
		C233.6,265.7,236.9,268.5,241.7,268.5z"/>
</g>
<path class="st1" d="M182.9,37.1c0-0.1,0.1-0.1,0.1-0.1C183,37,183,37.1,182.9,37.1z"/>
<path class="st1" d="M225.3,51.2c0.7-1.2,1.6-2.4,2.5-3.4c0.4-0.5,0.9-0.9,1.4-1.2c0.2-0.1,0.5-0.3,0.4-0.6s-0.4-0.1-0.6-0.2
	c-1.6-0.2-3.2-0.2-4.8,0c-0.8,0.1-1.7,0.1-2.5,0.1c-4.8-6.4-10.2-12.3-16.3-17.4c1.4-4.6,1.5-9.4,0.5-14c-0.1-0.6,0.2-0.9-0.6-0.7
	c0,0-6.5-0.9-14.4,4.4c-32.1-19.1-72-19.6-104.5-1.3c-9-7.2-16.7-6.1-16.7-6.1c-0.8-0.2-0.5,0.1-0.6,0.7c-1.1,5.5-0.7,11.2,1.3,16.4
	c-5.4,4.5-10.4,9.6-14.8,15.1c-1.6-0.1-3.2,0.1-4.8-0.1c-1.6-0.2-3.2-0.2-4.8,0c-0.2,0-0.5-0.1-0.6,0.2c-0.1,0.2,0.2,0.5,0.4,0.6
	c0.5,0.4,1,0.8,1.4,1.2c1.3,1.5,2.5,3.2,3.4,5c-32.3,48-19.7,113.1,28.3,145.4c17.3,11.7,37.8,17.9,58.7,17.9
	c57.8,0,104.8-47,104.8-104.8C242.3,88,236.4,68.2,225.3,51.2z M218.2,50.5c1.1,0,2.2-0.4,3.4-0.4c-0.1,0.4-0.3,0.8-0.5,1.1
	c-1.3,1.9-2.5,3.7-3.8,5.6c-0.4,0.5-0.7,1-1.1,1.5l0,0c-0.2,0.2-0.4,0.4-0.6,0.6l0,0l0,0c-0.5,0.4-1,0.8-1.5,1.2
	c-0.2,0.1-0.3,0.3-0.5,0.4c-1.3,1.1-2.7,2.1-4.3,2.7c-1.1,0.4-2.3,0.7-3.5,0.8c-0.6,0-1.2,0.1-1.7,0.1c-1.1,0-2.3-0.1-3.4-0.2
	c-0.6-0.1-1.1-0.2-1.7-0.3l-1.2-0.3c-1.3-0.2-2.6-0.7-3.8-1.3l0,0l0.3-0.3c1.2-1.3,2.5-2.5,3.9-3.6l0,0c0.3-0.3,0.7-0.5,1-0.8
	l0.4-0.3c0.2-0.2,0.5-0.3,0.7-0.5l0.5-0.3l0.6-0.4l0.5-0.3l0.6-0.3l0.6-0.3l0.5-0.3c0.8-0.5,1.7-0.9,2.5-1.3l0.2-0.1
	c0.3-0.1,0.6-0.2,0.9-0.4l0.2-0.1l0.9-0.3l0.2-0.1l1-0.3h0.1C212.1,51.1,215.1,50.6,218.2,50.5L218.2,50.5z M188.1,26.6L188.1,26.6
	c0-0.1,0-0.1-0.1-0.2C188.1,26.5,188.1,26.5,188.1,26.6z M188.2,28.5c0.4-0.5,0.8-0.9,1.2-1.4c0,0,0,0,0,0l0,0
	c0.3-0.4,0.7-0.7,1.1-1c1.3-1.2,2.8-2.1,4.1-3.4c-0.5,0-0.9,0.1-1.3,0.4c-0.2,0.2-0.4,0.3-0.6,0.5c0.2-0.2,0.4-0.4,0.6-0.5
	c0.4-0.3,0.8-0.4,1.3-0.4l3.7-1.9l1-0.5c0.3-0.1,0.6-0.4,0.9-0.2c0,0,0.1,0.1,0.1,0.1c0,0.1,0,0.1,0,0.2l0,0l0,0
	c0,0.2-0.1,0.4-0.1,0.6c-0.1,0.6-0.2,1.2-0.3,1.8c-0.5,2.4-1.1,4.8-1.6,7.1c0.1,0.2,0.2,0.5,0.2,0.8c0-0.3-0.1-0.5-0.2-0.8l-1.2,3.5
	l-0.1,0.3l0,0c-0.1,0-0.1,0.1-0.1,0.1c0,0-0.1,0.1-0.1,0.2c0,0.1,0,0.2,0,0.3c0,0,0,0.1,0,0.1l0,0c0.1,0,0.2-0.1,0.3-0.2
	c-0.1,0.1-0.2,0.1-0.3,0.2c-0.3,0.3-0.4,0.7-0.5,1.1c0,0-0.1,0-0.1,0.1c-0.1,0.1-0.1,0.2-0.1,0.4l0,0c0,0-0.1,0-0.1,0.1
	c-0.1,0.1-0.1,0.2-0.1,0.4c-1,1.7-2.2,3.3-3.4,4.8c-1.1,1.3-2.4,2.4-3.7,3.4c-1.8,1.4-3.8,2.4-6,3.1c-0.2,0.1-0.5,0.1-0.8,0.1
	c-0.3-0.1-0.4-0.4-0.3-1s0.1-1.1,0.1-1.6c0-0.5,0.1-1,0.1-1.5c0-0.3,0.1-0.5,0.1-0.8c0.3-2.1,0.9-4.1,1.4-6.1l0,0
	c-0.1,0-0.2,0-0.2,0.1h0c-0.1,0-0.1,0.1-0.1,0.1c0,0-0.1,0.1-0.1,0.1c0,0,0-0.1,0.1-0.1l0,0c0-0.1,0.1-0.1,0.1-0.1h0
	c0.1,0,0.1-0.1,0.2-0.1l0.5-1c0.2-0.3,0.3-0.7,0.5-1c0.2-0.4,0.4-0.8,0.5-1.2c0.1-0.1,0.1-0.3,0.2-0.4l0.4-0.7l0.3-0.5
	c0.1-0.2,0.2-0.4,0.4-0.6l0.3-0.5l0.4-0.5c0.1-0.2,0.2-0.3,0.4-0.5c0.1-0.2,0.2-0.3,0.4-0.5c0.1-0.2,0.3-0.3,0.4-0.5
	S188.1,28.7,188.2,28.5z M74.5,17.4c0-0.1,0.1-0.2,0.1-0.2c0.3-0.2,0.6,0,0.9,0.2c1.6,0.8,3.1,1.6,4.7,2.5c0.2,0,0.3,0,0.5,0h0.1
	c0.5,0.2,1,0.5,1.4,0.9c-0.3-0.3-0.6-0.6-1-0.8l0,0c-0.1-0.1-0.3-0.1-0.4-0.1h-0.1c-0.1,0-0.3,0-0.4,0l0,0c0.2,0.2,0.3,0.3,0.5,0.4
	l0,0c1.2,1,2.4,1.9,3.6,2.9c1.1,1,2,2,2.9,3.2l0,0c0.3,0.4,0.6,0.8,0.9,1.2l0.1,0.2c0.2,0.3,0.5,0.7,0.7,1.1l0.2,0.3
	c0.2,0.3,0.4,0.7,0.6,1l0.2,0.3c0.2,0.5,0.5,0.9,0.7,1.4c0.3,0.7,0.7,1.4,1,2.1c0.1,0,0.2,0,0.2,0.1h0c0.1,0,0.1,0.1,0.1,0.1l0,0
	c0,0,0,0.1,0.1,0.1c0,0-0.1-0.1-0.1-0.1c0-0.1-0.1-0.1-0.1-0.1h0c-0.1,0-0.1-0.1-0.2-0.1l0,0c0.4,1.7,0.9,3.4,1.2,5.2
	c0.1,0.6,0.2,1.2,0.3,1.8c0.1,0.9,0.1,1.7,0.2,2.6c0,0.2,0,0.3,0,0.5c0.1,0.9-0.2,1.2-1.1,0.9c-0.5-0.1-1-0.3-1.4-0.5
	c-0.5-0.2-0.9-0.4-1.4-0.6c-0.7-0.4-1.4-0.8-2.1-1.2c-0.3-0.2-0.5-0.3-0.8-0.5c-0.5-0.3-0.9-0.7-1.4-1.1c-1-0.8-1.9-1.6-2.7-2.6
	c-1-1.2-2-2.5-2.8-3.9l-0.6-0.9l0,0c0-0.1,0-0.2,0-0.3c0-0.1-0.1-0.1-0.2-0.2l0,0c0-0.2-0.1-0.4-0.2-0.4c0-0.1,0-0.2,0-0.3
	c0-0.1,0-0.1-0.1-0.2c-0.1-0.2-0.2-0.4-0.4-0.6c-0.1,0-0.2,0-0.2-0.1c0.1,0,0.2,0.1,0.2,0.1c0.1-0.2,0-0.5-0.2-0.6l-1.3-3.8
	c-0.1,0.2-0.2,0.5-0.2,0.8c0-0.3,0.1-0.5,0.2-0.8c-0.2-1.1-0.5-2.3-0.8-3.4l0,0l0,0c-0.1-0.4-0.2-0.8-0.3-1.2
	c-0.1-0.6-0.3-1.2-0.4-1.8c0-0.2-0.1-0.3-0.1-0.5c-0.1-0.7-0.2-1.4-0.3-2c0-0.1,0-0.2-0.1-0.2C74.5,17.7,74.4,17.5,74.5,17.4z
	 M56.6,47.5c2.5,0.1,4.9,0.4,7.3,1l0.3,0.1c1.2,0.3,2.4,0.7,3.5,1.2l0.3,0.1c1.1,0.5,2.2,1,3.3,1.6l0.4,0.2c0.5,0.3,1.1,0.6,1.6,0.9
	l0,0c0.5,0.3,1,0.7,1.6,1l0.4,0.3c0.5,0.4,1,0.7,1.5,1.1c0.7,0.6,1.4,1.2,2.1,1.8c0.4,0.3,0.7,0.7,1.1,1.1c0.4,0.4,0.7,0.7,1,1.1
	c-0.3,0.2-0.6,0.3-0.9,0.4c-1,0.4-2,0.7-3.1,0.9l-1,0.2c-1.1,0.2-2.2,0.4-3.3,0.5l-0.9,0h-0.9c-0.6,0-1.2,0-1.7-0.1
	c-2.2-0.2-4.3-0.9-6.1-2.2c-0.3-0.2-0.6-0.4-0.9-0.6s-0.6-0.5-0.9-0.7c-0.9-0.7-1.8-1.5-2.6-2.3l0,0c-0.2-0.3-0.5-0.6-0.7-0.9
	c-0.1-0.1-0.2-0.2-0.3-0.4l0,0c-1.4-1.9-2.6-3.8-4-5.7c-0.3-0.3-0.5-0.7-0.5-1.1C54.4,47.2,55.5,47.5,56.6,47.5L56.6,47.5z
	 M142.8,183.9c-1.1,1.8-2.2,3.6-3.3,5.4l-3.2-5.5c-0.2-0.3-0.3-0.6-0.1-0.9l3.2-5.7c0.5,0.1,0.5,0.6,0.9,0.9
	c0.2,0.5,0.4,0.9,0.8,1.3c0.5,1,1,2,1.7,2.8C143.2,182.7,143.2,183.4,142.8,183.9z M132.4,168.5L132.4,168.5c-0.6,0.6-1.1,1.3-1.4,2
	c-0.3,0.2-0.5,0.5-0.6,0.9l-0.5,0.8c0,0-0.1,0,0,0.1l0,0c-0.3,0.2-0.5,0.6-0.5,0.9l0,0l-0.4,0.5h-0.1h-0.1l-0.9-1.1
	c-2-2.9-4.2-5.6-6.3-8.4c-0.1-0.1-0.3-0.3-0.5-0.2v0l0,0c0-0.1,0.1-0.1,0.1-0.2c-0.1,0-0.2,0-0.3,0l0,0c0.1,0,0.2,0,0.3,0
	c-0.6-1-1.2-1.8-2-2.7c-0.4-0.3-0.4-0.9-0.1-1.3c0,0,0.1-0.1,0.1-0.1c1.4-1.5,2.6-3,3.8-4.6c0.6-0.9,1-0.2,1.3,0.2
	c1.5,2.1,3,4.3,4.5,6.4c1.1,1.6,2.2,3.2,3.4,4.7C132.8,167.1,133,167.8,132.4,168.5L132.4,168.5z M130.6,162.9
	c0-0.3,0.2-0.5,0.5-0.5c0,0,0,0,0.1,0c0.3,0,0.5,0.2,0.5,0.5c0,0.3-0.2,0.5-0.5,0.5c-0.3,0-0.5-0.1-0.5-0.4
	C130.6,163,130.6,162.9,130.6,162.9z M131.5,147c-0.4-0.6,0-0.9,0.3-1.2c2.2-2.2,4.3-4.4,6.5-6.6c0.3-0.3,0.5-0.6,0.7-0.8
	c0.2-0.1,0.4-0.2,0.4-0.5h0.5c0.4,0.6,0.9,1.2,1.5,1.6c0.6,0.8,1.3,1.5,2.1,2.2c0.6,0.8,1.2,1.4,2,2c0.7,0.7,1.3,1.4,2.1,2
	c0.5,0.3,0.6,0.9,0.3,1.4c-0.1,0.1-0.1,0.2-0.2,0.2c-2.5,3.4-5,6.7-7.4,10.1c-0.4,0.5-0.6,0.6-1,0C136.6,154,134,150.5,131.5,147z
	 M160.3,160.7L160.3,160.7c-0.5,0.5-0.8,1-1.2,1.5c-2.8,3.2-5.3,6.7-7.9,10.1c-0.4,0.5-0.7,0.9-1.1,1.4c-0.8-0.5-0.8-1.6-1.6-2.2
	c-0.6-0.9-0.9-2.1-1.6-2.9c-0.1-0.4-0.3-0.7-0.6-0.9c-0.1-0.5,0.2-0.7,0.5-1.1c1.1-1.6,2.3-3.3,3.4-4.9l0.3-0.7
	c1.8-1.7,2.9-3.9,4.4-5.9c0.6-0.8,0.8-0.8,1.4,0c1.3,1.8,2.7,3.6,4,5.4C160.3,160.6,160.3,160.7,160.3,160.7L160.3,160.7z
	 M143.6,204.6c0.5-0.9,1-1.8,1.5-2.6l0.1-0.1c0.1-0.1,1.6-2.9,4.4-7.4c0.2-0.3,0.4-0.6,0.6-1l0.3-0.4c0.2-0.2,0.4-0.5,0.5-0.8
	c0.1-0.2,0.2-0.3,0.3-0.5c0.2-0.1,0.3-0.3,0.3-0.5c0.1,0,0.1-0.1,0.1-0.2l0.3-0.5l0-0.1c0-0.1,0.1-0.1,0.1-0.2
	c0.4-0.4,0.7-0.8,0.9-1.3l0-0.1c0.3-0.2,0.5-0.5,0.6-0.8l0.3-0.4l0.3-0.4l0.1-0.2c0.5-0.5,0.9-1.1,1.3-1.8l0.5-0.8
	c0.2-0.3,0.4-0.7,0.7-1l0.2-0.2c0.2-0.1,0.3-0.3,0.4-0.5c1.4-1.9,2.9-3.8,4.3-5.7c2.2-2.9,4.4-5.8,6.6-8.7c0.4-0.3,0.8-0.8,1-1.3
	c0.4-0.4,0.8-0.8,1.1-1.4l0.1-0.7c8.5-10.7,18-20.6,28.3-29.6l-0.1-0.1c0.7-0.6,1.4-1.1,2-1.6c1.2-0.9,2.1-2.1,2.5-3.4
	c0.8-2.1,0-4.5-2.1-5.5c-2.3-1.4-5.2-1-7.1,0.9c-2.7,2.4-5.1,4.7-7.8,7.1l0,0.2c-4.8,4.6-9.4,9.4-13.7,14.3l0.1-0.7
	c-0.3,0.1-0.4,0.4-0.5,0.6c-1.3,1.4-2.7,2.8-4,4.3c-0.5,0.6-0.8,0.5-1.3,0c-1.6-1.9-3.2-3.7-4.8-5.6c-0.4-0.3-0.4-0.9-0.1-1.3
	c0,0,0,0,0.1-0.1c1.4-2.1,2.9-4,4.2-6.2l0,0c0.3-0.2,0.4-0.4,0.5-0.7c0.3-0.3,0.6-0.7,0.8-1.1c0.3-0.1,0.4-0.4,0.4-0.7l0,0l0.3-0.4
	c0.3-0.2,0.5-0.5,0.5-0.9l0,0c2.3-3.3,4.7-6.6,6.7-10.2c0.4-0.8,0.7-1.6,0.8-2.4c0.3-2-0.6-3.9-2.3-5c-1.6-1.1-3.3-1-4.9-0.1
	c-1.4,0.8-2.5,2.1-3.2,3.5c-1.2,2.1-2.4,4-3.7,5.9c-1.4,2.1-2.8,4.2-4.2,6.4c-1,1.4-2.1,2.8-3.1,4.3c-0.2,0.3-0.4,0.8-1,0.6
	c-0.2-0.3-0.4-0.5-0.7-0.7l-7-6.7c-0.4-0.3-0.5-0.6-0.1-1.1c1.4-1.6,2.5-3.4,3.4-5.3c1.3-2.8,2.1-5.8,2.3-8.8
	c0.2-2.2,0.3-4.5,0.1-6.7c0-3.1-0.5-6.3-0.6-9.5c1.6,0.9,3,1.8,4.5,2.6c8.8,5,18.2,7.8,28.4,7.2c4.7-0.3,9.3-1.5,13.5-3.6
	c3.4-1.7,6.2-4.2,8.9-6.7c3-2.6,5.9-5.4,8.7-8.4c1.7-1.8,1.6-3.9-0.3-5.5c-1.3-1.1-2.7-2.1-4.1-3.2c-0.2,0-0.3-0.1-0.4-0.3
	c0-0.2-0.2-0.3-0.4-0.4c-0.7-0.2-1.4-0.6-2.1-1c-0.3-0.2-0.6-0.5-0.9-0.6c-5.9-3.6-12.2-6.2-19.2-6.5c-0.5-0.1-1.1-0.2-1.6-0.1h-1.3
	c-0.1,0.1-0.3,0.1-0.5,0c-0.5-0.7-0.9-0.7-1.3,0.1c-5.6,0.4-11.1,1.6-16.4,3.7c-2.8,1-5.5,2.4-8,4l0,0c-1.3,0.6-2.6,1.4-3.8,2.3
	c-1.7,1.1-3.3,2.4-5,3.7c-0.4-1.8-0.1-3.6-0.5-5.3c0.1-0.7,0-1.4-0.1-2.1c-0.3-0.9,0.2-1.8,1.1-2.1c2.2-0.9,4.2-2.1,6.2-3.4
	l-0.2-0.1l0.2,0.1c0.3,0.1,0.6-0.2,0.8-0.3c3.8-2.2,7.1-5.1,9.8-8.5c2.1-2.7,3.6-5.6,3.8-9.1l0.2-0.4c0.4-4.9-0.6-9.7-1.9-14.4
	c-0.7-3.2-1.5-6.3-2.6-9.4c-0.7-2.1-2.1-2.2-4.2-1.6c-5.5,1.7-9.3,8.4-9.3,8.4s-2.1,0.8-8.4,11c-6.3,10.1-3,29.3-3,29.3
	c0,0.2,0,0.4,0,0.7c0.1,0.7,0.1,1.5,0.2,2.2l0,0c0.1,4.3,0.1,8.6,0.2,12.9c0,0.4,0,0.9,0,1.3c0,0.2,0,0.3,0,0.5
	c0.1,5.7,0.1,11.4,0.2,17.1c-0.1,3-1.4,5.6-2.9,8c-0.6,1-0.7,1-1.3-0.1c-1.3-2.4-2.2-5-2.6-7.7c0-4,0.1-8.1,0.1-12.1
	c0-2.3,0.3-4.7,0.1-7c0.1-5.2,0.2-10.4,0.3-15.6c0.2-1.9,0.3-3.9,0.2-5.8c0,0-1.2-26.9-13.1-36.7c0-0.2-0.1-0.3-0.2-0.4l-0.2-0.2
	c-0.3-0.6-0.8-1-1.3-1.3l0,0c-1.6-2-3.7-3.6-6-4.7c-1.4-0.6-3.1-0.2-3.5,0.8c-0.6,1.3-1,2.6-1.3,4c-0.3,0.4-0.4,0.9-0.4,1.4
	c0,0.1,0,0.2,0,0.3c0,0.3,0,0.6,0,0.9c0-0.3,0-0.6,0-0.9c-0.8,1.5-1,3.2-1.5,4.8l-0.1,0.4c-0.3,0.6-0.4,1.2-0.5,1.8
	c-0.8,3.7-1.5,7.4-0.9,11.1c0,0.1,0,0.3,0,0.4s-0.1,0.4,0.1,0.5c0.4,4.1,2.3,7.5,4.8,10.6c1.3,1.7,3.1,2.9,4.6,4.4
	c0,0.4,0.3,0.5,0.7,0.5l0,0l1.5,0.9c0.3,0.2,0.6,0.5,0.9,0.7c2.7,1.8,5.5,3.3,8.4,4.6c0.5,0.2,1,0.4,1.2,0.9l-0.8,7.1
	c-0.1,0.2-0.2,0.5-0.1,0.8c-0.1,0.2-0.3,0.3-0.6,0.3c-0.9-0.8-1.8-1.5-2.9-2c-0.1-0.2-0.4-0.4-0.6-0.4c-0.7-0.6-1.4-1.2-2.2-1.6l0,0
	l0,0c-0.1-0.3-0.4-0.4-0.7-0.5l0,0c-2-1.4-4.1-2.6-6.3-3.5c-4.4-2-9.1-3.5-13.9-4.5l-0.4-0.1c-0.1-0.2-0.3-0.3-0.5-0.1
	c-0.4,0-0.7,0-1.1-0.1c-4.7-0.6-9.4-0.5-14.1,0.2c-13.4,2.1-21.9,11.4-21.9,11.4c-0.5,0.7-1.2,1.3-1.4,2.2c0,2.2,1.4,3.4,3.1,4.5
	c0.9,1.3,2,2.5,3.2,3.6c2.1,1.9,4.2,3.8,6.4,5.7c3.7,3.3,8.1,5.6,12.9,6.9c7.2,1.8,14.3,1.4,21.4-0.4c6.2-1.6,12.1-4.2,17.4-7.8
	c0.3-0.2,0.5-0.6,0.8-0.4c0.4,0.2,0.1,0.6,0.1,0.9c-0.1,2.2-0.3,4.3-0.2,6.5c-0.1,0.2-0.2,0.5,0,0.7l0,0.5c-0.1,0.5-0.1,1-0.1,1.5
	v0.9c-0.3,2.4-0.3,4.7,0.1,7.1c0.7,4.4,2.6,8.5,5.4,11.9c0.5,0.6,0.5,0.9-0.1,1.5c-1,1-2,2.1-2.9,3.1c-0.4,0.2-0.7,0.5-1,0.9
	c0,0.1,0,0.2,0,0.4c0-0.1,0-0.2,0-0.4c-0.4,0.2-0.8,0.6-1,1c-0.2,0.1-0.4,0.3-0.6,0.5c-0.3,0.1-0.6,0.3-0.7,0.6
	c-0.7,0.2-0.9,1.3-1.9,1.1c-0.1-0.3-0.2-0.5-0.5-0.6c-0.2-0.2-0.3-0.6-0.7-0.7c-0.7-1.6-1.9-2.8-2.8-4.2c-2.6-4.1-5.6-7.9-7.8-12.2
	c-0.7-1.3-1.7-2.4-3-3.1c-1.9-1.2-4.4-0.6-5.7,1.2c-1.7,2.1-1.8,5-0.2,7.1c2,3,4.1,6,6.1,9c0,0.2,0.2,0.4,0.3,0.5l0.3,0.4
	c0.1,0.4,0.3,0.7,0.6,0.9c0,0.1,0,0.1,0.1,0.2c0,0.2,0.2,0.4,0.4,0.5l0,0l0.2,0.3l0,0c0.1,0.4,0.3,0.7,0.6,0.9
	c0.1,0.4,0.4,0.8,0.8,1.1c1.2,2,2.4,4,3.8,5.8c0.5,0.8,0.6,1.2-0.2,1.9c-1.6,1.4-3.1,3-4.5,4.6c-0.6,0.7-1,0.8-1.7,0l-0.2,0.6
	c-4.9-5.4-10.2-10.8-15.7-16.1h0.1c-3.5-3.3-8.7-8-11.9-11.7c-1-1.1-2.2-1.9-3.6-2.2c-2.2-0.7-4.5,0.4-5.3,2.5
	c-1.1,2.4-0.6,5.3,1.4,7c0.4,0.4,0.8,0.7,1.1,1.1c0.1,0.2,0.2,0.4,0.3,0.5c10.6,9.6,20.2,19,28.5,28l-0.2,0.3l6,7.4l0,0
	c0.9,1.2,1.8,2.4,2.7,3.6l7.9,10.6c0.1,0.4,0.3,0.7,0.6,0.9l0.3,0.4c0.1,0.3,0.3,0.6,0.6,0.8c0.1,0.3,0.3,0.6,0.5,0.7
	c0,0.2,0.2,0.5,0.4,0.6c0,0,0,0.1,0.1,0.1c0,0,0,0,0,0c0.7,1.2,1.5,2.4,2.4,3.4c0.4,0.6,0.8,1.2,1.2,1.8c2.7,4.3,5.4,8.8,7.9,13.3
	c-53.3-0.9-95.7-44.8-94.8-98c0.3-17.1,5.1-33.9,14.1-48.5l0.4,0.5c0,0,7.4,9.7,22.5,5.7c2.2-0.6,4.3-1.3,6.4-2.3
	c1.3-0.6,2.6-1.3,3.8-2.1c-0.4-9.7-21.4-15.7-21.4-15.7c-0.4-0.1-0.7-0.2-1.1-0.3c2.7-3,5.6-5.9,8.7-8.6c0.9,1.4,2,2.8,3.2,4
	c4.2,5,10,8.6,16.4,10.1c2.1,0.5,3.4-0.4,3.5-2.5c0-1.4,0-2.7,0-4.1c0-7-1.8-13.8-5.2-19.9c28.9-15.4,63.5-15.1,92.1,0.8l-0.1,0.1
	c-4.2,6.5-6.5,14.2-6.5,22c0,1.4-0.1,2.7,0,4.1c0.1,2.1,1.4,3,3.4,2.5c6.4-1.5,12.1-5.1,16.4-10.1c1.7-1.8,3.1-3.8,4.4-5.9
	c3.5,3.1,6.7,6.5,9.7,10.1c-1.1,0.1-2.3,0.3-3.4,0.6c0,0-20.9,6-21.4,15.7c1.2,0.8,2.5,1.5,3.8,2.1c2,1,4.2,1.8,6.4,2.3
	c15.1,4,22.5-5.7,22.5-5.7c0.4-0.6,0.9-1.2,1.3-1.9c8.6,14.7,13.1,31.5,13.1,48.5C233.9,159.5,193.9,201.4,143.6,204.6L143.6,204.6z
	 M148.3,65.6l0.1-1.6c0-0.1,0-0.1,0-0.2c0.2-1.4,0.3-2.7,0.5-4c0.1-0.2,0.2-0.4,0.1-0.7c-0.3-0.1-0.4-0.2-0.4-0.3
	c0,0.1,0.1,0.2,0.4,0.3c0-0.1,0-0.3,0-0.4c0-0.1,0.2-0.2,0-0.3v0c0.4-1,0.8-2.1,1-3.2c1-3.2,2.4-6.3,4.3-9.2
	c0.1-0.2,0.2-0.4,0.3-0.6l0.2-0.2l0,0l0.4-0.7c1.4-1.3,2.4-3,3.8-4.2c0.6-0.6,1.2-1.1,1.8-1.7c0.6-0.6,0.9-0.4,1.3,0.2l0.1,0.1
	l-0.1-0.1c0,0.1,0,0.2,0,0.3c0,0.2,0.1,0.4,0.1,0.7c0.1,0.1,0.1,0.2,0.2,0.3c-0.1,0.3-0.1,0.5,0.1,0.8l0,0c0.4,2.8,0.6,5.7,0.6,8.5
	c0,1.5-0.3,3-0.4,4.6l0,0c-0.5,2.1-1.2,4.1-2.1,6.1c-1.1,2.2-2.5,4.2-4.2,6.1c-0.5,0.4-1,0.8-1.4,1.3l-0.2,0.2l0,0
	c-0.7,0.3-1.3,0.8-1.8,1.4c-0.1,0-0.1,0-0.2,0.1l-3.3,2.2c-0.6,0.4-1.1,0.7-1.1-0.5c0-0.4-0.1-0.7-0.3-1.1c0,0.1-0.1,0.2-0.1,0.2
	c0-0.1,0.1-0.2,0.1-0.2l0-0.5C148.3,67.9,148.3,66.7,148.3,65.6L148.3,65.6z M206.9,86.2c-2.7,2.2-5.8,3.7-8.5,5.8
	c0.1,0.1,0.2,0.2,0.2,0.3c0-0.1-0.1-0.3-0.2-0.3c-3.3,2.1-6.7,4-10.2,5.7c-1.9,0.9-3.9,1-5.9,1.2c-7,0.8-13.5-0.9-19.8-3.6
	c-2-0.8-3.9-1.9-5.9-2.9c-0.5-0.6,0.1-0.8,0.4-1.1c2.5-1.9,5.1-3.5,7.9-4.9c1-0.5,2-1,3-1.5c2.4-0.9,4.7-1.8,7.1-2.6
	c3.7-1.3,7.6-2,11.6-2.3c6-0.3,12,1.1,17.2,4.1c0.2-0.3,0.6-0.4,0.9-0.3c-0.3-0.1-0.7,0-0.9,0.3C204.8,84.7,206,85.2,206.9,86.2
	L206.9,86.2z M121,63.5c-2-2.7-3.4-5.7-4.3-8.9c-0.1-0.3,0-0.7-0.4-0.9l0-0.7c-0.1-0.4-0.1-0.9-0.2-1.3c-0.3-3.5-0.1-7,0.5-10.5
	c0.1-0.4,0.1-0.7,0.2-1.1l0.1-0.4l0,0c0.2-0.4,0.4-0.9,0.4-1.4l0,0c0.4-0.3,0.7-0.2,1,0.1c1.3,0.9,2.3,2.2,3.5,3.3l0,0
	c0.1,0.4,0.3,0.7,0.7,0.9l0,0c0.1,0,0.2,0.1,0.3,0.1c-0.1,0-0.2-0.1-0.4-0.1c0.4,0.8,0.9,1.6,1.5,2.2c2.1,3.1,3.9,6.4,5.1,10
	c0.2,0,0.4,0,0.5,0.1c-0.1-0.1-0.3-0.2-0.5-0.1c0.8,2.6,1.3,5.2,1.7,7.9c0.2,2.1,0.1,4.2,0.1,6.3c0,0.1,0,0.1-0.1,0.2
	c-0.3,2.1-0.3,2-2.2,1.2c-0.8-0.4-1.4-1.1-2.2-1.5c0,0.3,0,0.7-0.2,1c0.2-0.3,0.2-0.6,0.2-1C124.5,67.4,122.6,65.6,121,63.5
	L121,63.5z M109.6,42.1l-0.2,0c0-0.1,0-0.2,0-0.4c0,0.1,0,0.2,0,0.4L109.6,42.1z M74.6,88c-0.7-0.4-1.4-0.9-2.2-1.3
	c-0.7-0.4-0.2-0.6,0.1-0.9c6.3-4.6,14-6.6,21.7-5.7c-0.1-0.2-0.2-0.3-0.4-0.3c0.2,0,0.3,0.2,0.4,0.3l0.4,0c0,0,0-0.1,0-0.1
	c0,0,0,0.1,0,0.1l0.4,0c0,0,0-0.1,0-0.1c0,0,0,0.1,0,0.1c3.3,0.5,6.6,1.3,9.8,2.2c0.9,0.4,1.9,0.7,2.9,0.9c0.4,0,0.9,0,1.3,0
	c-0.4,0-0.9,0-1.3,0c0.4,0.3,0.9,0.5,1.4,0.7c4.7,1.9,9.1,4.4,13.2,7.4c1,0.7,0.4,0.9-0.2,1.2c-0.8,0.4-1.6,0.8-2.3,1.3
	c-0.9,0.3-1.7,0.7-2.5,1.1c-5.4,2.5-11.2,3.8-17.1,4c-5.5,0.2-10.9-1.4-15.5-4.6c-1.5-1-3-1.9-4.5-2.9l0,0
	C78.5,90.3,76.6,89.1,74.6,88L74.6,88z"/>
<path class="st1" d="M183.3,36.9c-0.1,0-0.2,0-0.2,0.1C183.2,36.9,183.3,36.9,183.3,36.9z"/>
<path class="st1" d="M183.1,37L183.1,37L183.1,37z"/>
<path class="st1" d="M91.7,34.1c0.1,0,0.1,0.1,0.1,0.1C91.8,34.1,91.8,34.1,91.7,34.1z"/>
<path class="st1" d="M80.6,19.8c-0.1,0-0.3,0-0.4,0C80.4,19.8,80.5,19.8,80.6,19.8z"/>
<path class="st1" d="M80.6,19.8L80.6,19.8L80.6,19.8z"/>
<path class="st1" d="M91.7,34L91.7,34L91.7,34z"/>
<path class="st1" d="M91.7,34c-0.1,0-0.1-0.1-0.2-0.1C91.6,34,91.6,34,91.7,34z"/>
<path class="st1" d="M80.7,19.8c0.1,0,0.3,0.1,0.4,0.1C81,19.9,80.8,19.8,80.7,19.8z"/>
<path class="st1" d="M48.9,298.6c0-13.1,7.1-21.3,18.4-21.3c4.8,0,8.8,0.8,12,2.4l-0.5,2.2c-2.7-1.5-6.5-2.3-11.4-2.3
	c-9.7,0-15.9,7.3-15.9,19s6.1,19,15.8,19c4.3,0,7.9-0.7,10.7-2.2v-15.7H65.3l0.5-2.2h15v19.3c-3.4,2.1-7.9,3.1-13.3,3.1
	C56,319.9,48.9,311.7,48.9,298.6z"/>
<path class="st1" d="M91,278.1h13.6c8.3,0,13.4,4.5,13.4,11.8c0,6-3.5,10.2-9.4,11.4l10.5,17.9h-3l-10.1-17.4H93.6v17.4H91V278.1z
	 M104.4,299.6c6.8,0,10.9-3.5,10.9-9.6s-4.2-9.6-10.9-9.6H93.6v19.3L104.4,299.6z"/>
<path class="st1" d="M158.5,309.2c1.3-3.4,2-7,2-10.6c0-11.7-6.1-19-15.8-19c-9.7,0-15.8,7.3-15.8,19c0,6.1,1.7,11.1,4.7,14.4
	l-2.3,1.2c-3.2-3.7-5-9-5-15.6c0-13.1,7.1-21.3,18.4-21.3c11.3,0,18.5,8.1,18.5,21.3c0.1,3.5-0.5,7-1.8,10.3L158.5,309.2z"/>
<path class="st1" d="M168.8,278.1h2.7l11.8,36.9h0.3l8.7-26.9l-3.2-10h2.7l11.9,36.9h0.3l11.9-36.9h2.3L205,319.2h-2.6l-8.8-27.1
	h-0.2l-8.7,27.1h-2.6L168.8,278.1z"/>
</svg>
