<?xml version="1.0" encoding="utf-8"?>
<!-- Generator: Adobe Illustrator 26.0.2, SVG Export Plug-In . SVG Version: 6.00 Build 0)  -->
<svg version="1.1" id="Ebene_1" xmlns="http://www.w3.org/2000/svg" xmlns:xlink="http://www.w3.org/1999/xlink" x="0px" y="0px"
	 viewBox="0 0 705.2 289" style="enable-background:new 0 0 705.2 289;" xml:space="preserve">
<style type="text/css">
	.st0{fill:url(#SVGID_1_);}
	.st1{fill:url(#SVGID_00000034079538876813573830000005930013271247211943_);}
	.st2{fill:#FFFFFF;}
</style>
<g>
	<g>
		<path d="M389.2,246.3c-0.3-0.3-0.4-0.9-0.4-1.1c-0.1-1.1,5.2-17.1,7-20.9c0.8-1.6,1.7-1.9,1-0.2c-0.3,0.6-1,2.5-1.5,4.2
			c-0.6,1.8-1.8,6.1-2.9,9.8c-1.1,3.5-1.9,6.7-1.9,6.8c0.4,1.1,12.5-14.6,14.1-18.2c0.5-1.2,1.5-1.5,2-0.5c0.3,0.4,0.2,1.4-0.2,3.7
			c-0.6,3.7-1,7.5-0.8,7.8c0.1,0,1.1-1,2.1-2.2c5.6-6.9,5.8-7.1,6.4-7.2c0.8,0.1,1.2,1.7,0.8,5c-0.2,2.8,0.3,4.4,1.6,4.8
			c1.9,0.4,8.8-3.3,12.3-6.7c2.3-2,3-2.4,3.1-1.5c0.1,0.9-6.8,7-9.9,8.8c-6.5,3.7-10.1,1.1-9-6.5c0.1-1-0.6-0.2-5.3,6
			c-1.6,2.1-2.1,2.6-2.9,2.6c-1.6,0.1-1.8-0.9-1.5-5.6c0.3-2.2,0.4-4,0.4-4c-0.1-0.1-1.4,1.6-2.8,3.8c-4.3,6.4-9.3,11.7-10.9,11.9
			C389.9,246.8,389.5,246.6,389.2,246.3z"/>
		<path d="M430,244.2c-1.2-0.8-1.6-2.3-1.4-6.2c0.1-3,0.4-3.8,1.6-6.9c1.7-4.3,3-6.2,4.1-6.3c1.3-0.1,1.5,1,0.3,3.3
			c-2.1,4.1-3,6.9-3.2,9.9c-0.1,1.6-0.1,3.1-0.1,3.3c0.4,0.8,8.4-5.1,13.5-10c3.2-3,4.4-3.8,4.5-3.1c0,0.3-1.6,2.1-4.9,5.1
			c-1.6,1.5-4.2,4-5.6,5.7c-2.8,2.9-6.2,5.6-7.2,5.7C431.1,244.8,430.5,244.5,430,244.2z M433.5,217.9c-0.3-0.7,1.9-3.4,2.5-3.2
			c0.6,0.4,0.7,1.6-0.3,2.7C434.8,218.6,433.9,218.6,433.5,217.9z"/>
		<path d="M448.1,246.7c-2.8-1.5-3.1-6.1-1.1-14.5c0.4-1.8,1.3-4.3,1.7-5.8c0.6-1.4,1.7-4.6,2.7-7.1c1-2.5,2.5-6.3,3.6-8.3
			c1-2,1.9-3.7,1.9-3.8c0,0-2.5,0.1-5.6,0.3c-3.9,0.2-5.6,0.2-6-0.1c-0.7-0.7,0.3-1.1,6.6-1.8l6.3-0.7l0.5-1c1-2,3.5-5.2,4.5-5.7
			c1.1-0.7,1.2-0.7,1.8-0.1c1.1,0.8,1.1,2.9,0,6.2c-0.2,0.5,0,0.6,3.4,0.3c3.8-0.3,5-0.2,5,0.4c-0.1,0.2-1.8,0.5-4.9,0.8l-4.8,0.6
			l-0.9,1.3c-0.5,0.7-2.2,2.5-3.7,4c-1.5,1.5-3.1,3.1-3.4,3.6c-0.9,1.3-5.4,13.8-6.1,17.1c-1.4,5.7-1.6,10.2-0.6,11.6
			c1,1.6,5.3-0.3,11.9-5.4c2.1-1.5,4.9-3.7,6.3-4.7c1.5-1.2,4-3.4,5.7-5.1c2.9-3.1,3.5-3.6,3.8-2.5c0.3,1-6.7,8.2-13.3,13.4
			c-5.1,4.2-6.5,5.1-9.1,6.4C451.5,247.3,449.7,247.6,448.1,246.7z M459.8,208.1c0.7-0.9,0.8-1.3,0.1-1.3c-0.5,0-1.7,1.7-1.7,2.2
			C458.3,209.4,459,209,459.8,208.1z M462.3,204.5c0.9-1.2,1.6-4.1,1-3.6c-0.5,0.4-2.7,3.7-2.7,4
			C460.7,205.4,461.8,205.1,462.3,204.5z"/>
		<path d="M508.1,252.2c0-0.3,0.2-1.6,0.5-2.9c0.4-1.3,1.1-4.9,1.7-8.2c2.3-11.5,2.5-12.2,11-37.1c0.4-1.1,1.3-3.3,2-5.2
			c1.7-4.2,3.1-7.8,2.8-8c0,0-0.8,0.4-1.5,1c-3,2.5-8.2,4.4-9.1,3.5c-0.9-1,1.3-2.6,5.7-4.5l2.8-1.1l-2.2,0.2
			c-2.6,0.2-5.7,1-12.9,3.4c-5.4,1.8-9.3,3.4-11.4,4.6c-0.9,0.4-1.3,0.6-1.6,0.4c-1.2-1.1,4.1-3.8,13.7-7c7.8-2.6,8.1-2.6,11.9-2.9
			c3.2-0.4,3.4-0.3,4,0.1c0.9,0.7,1.4,0.7,1.8-0.1c0.5-0.8,1.3-0.9,1.6-0.2c0.1,0.4,0.4,0.4,1.3,0.2c4.9-1.1,9.6-1.7,14.8-2
			c6.5-0.3,13.8-0.2,13.9,0.3c0.1,0.3-1.9,0.5-4.3,0.5c-3.3-0.2-25.8,2.8-26.4,3.4c-0.1,0.1-0.4,1.2-0.7,2.4c-0.3,1.1-1.2,3.8-2,5.9
			c-2,5.3-9.4,26.7-10.3,29.7c-1.7,5.9-3.3,12.1-4.3,16.9c-1.5,7-1.6,7.1-2.2,7.3C508.3,252.8,508.2,252.7,508.1,252.2z"/>
		<path d="M532.5,236.2c-1.2-0.8-1.6-2.3-1.4-6.2c0.1-3,0.4-3.8,1.6-6.9c1.7-4.3,3-6.2,4.1-6.3c1.3-0.1,1.5,1,0.3,3.3
			c-2.1,4.1-3,6.9-3.2,9.9c-0.1,1.6-0.1,3.1-0.1,3.3c0.4,0.8,8.4-5.1,13.5-10c3.2-3,4.4-3.8,4.5-3.1c0,0.3-1.6,2.1-4.9,5.1
			c-1.6,1.5-4.2,4-5.6,5.7c-2.8,2.9-6.2,5.6-7.2,5.7C533.6,236.8,533,236.5,532.5,236.2z M536,209.9c-0.3-0.7,1.9-3.4,2.5-3.2
			c0.6,0.4,0.7,1.6-0.3,2.7C537.3,210.6,536.4,210.7,536,209.9z"/>
		<path d="M547.6,231.3c-0.8-1.2-0.3-2.8,3.9-13.6c1.9-4.9,3.4-6.5,4.8-5.3c0.6,0.6,0.6,1.2-0.4,2.8c-1,1.7-4.1,10.5-3.2,9.3
			c2.8-4,6.3-8.4,7.3-8.9c1-0.7,1.2-0.7,1.9-0.2c1.3,0.7,1.9,1.9,2.5,5.2c0.5,2.4,0.8,3.2,1.3,3.6c0.5,0.3,1,0.5,1.2,0.5
			c0.7-0.1,8.8-3.8,11.5-5.3c2.6-1.5,3.5-1.8,3.7-1.3c0.1,0.1-1,0.9-2.3,1.7c-1.3,0.7-3.3,2-4.4,2.9c-3,2.4-6.3,4.4-7.6,4.7
			c-1.6,0.5-4-0.4-5-1.7c-0.5-0.7-0.8-1.9-1.1-3.6c-0.7-4.1-0.7-4.1-3.8,0.1c-1.5,1.9-3.1,4.4-3.7,5.2
			C551.7,231.2,548.7,232.9,547.6,231.3z"/>
		<path d="M588.9,233.2c-2.3-0.2-3-3.7-1.9-9.8c0.1-1.2,0.2-2,0.2-2.1c-0.1-0.1-0.9,0.9-1.6,2.2c-2.1,3-4.7,5.6-6.1,5.8
			c-0.9,0.1-1.9-1-2-2.1c-0.1-1.5,2-6.9,3.5-8.7c0.5-0.8,1.8-2.1,2.8-3c1.5-1.4,1.8-1.5,3.5-1.7c1.7-0.1,2-0.4,2.4-1
			c0.3-0.6,0.7-0.7,1.3-0.8c1.2,0,1.3,0.9,0.5,2.8c-0.8,1.9-1.7,6.2-2.3,10.9c-0.4,3.4-0.3,4.8,0.5,4.8c0.2,0,1.8-1.1,3.4-2.3
			c3-2.4,6.8-6.7,9-10.1c1.2-2,1.9-2.4,2.3-1.9c0.3,0.3-2.3,4.2-6.2,9.3C594.4,230.6,591.1,233.4,588.9,233.2z M583.6,222.3
			c2.2-2.9,3.8-5.5,3.7-5.7c-0.2-0.2-2.2,1.4-3.5,3.1c-1.3,1.5-2.6,3.8-3,5.3C580.6,225.8,582.2,224.3,583.6,222.3z"/>
	</g>
</g>
<g>
	<g>
		<path d="M311.7,67.6h35.2l-0.7,3.3h-30.7v24.8h28.6l-0.7,3.2h-27.9v28.7h-3.8V67.6z"/>
		<path d="M355.7,105c0-14.5,7.9-23.7,20.2-23.7c11.2,0,19.2,8.8,19.2,23v2.2h-35.5c0.2,11.6,6.6,19,17.3,19c6.8,0,10.5-1,13.6-2.6
			l0.7,3.2c-3.5,1.7-7.8,2.6-14.5,2.6C363.6,128.6,355.7,119.5,355.7,105z M391.3,103.5c-0.2-11.6-6.6-19-15.4-19
			c-9.7,0-16.1,7.4-16.3,19H391.3z"/>
		<path d="M404.3,105c0-14.5,7.9-23.7,20.2-23.7c11.2,0,19.2,8.8,19.2,23v2.2h-35.5c0.2,11.6,6.6,19,17.3,19c6.8,0,10.5-1,13.6-2.6
			l0.7,3.2c-3.5,1.7-7.8,2.6-14.5,2.6C412.2,128.6,404.3,119.5,404.3,105z M439.9,103.5c-0.2-11.6-6.6-19-15.4-19
			c-9.7,0-16.1,7.4-16.3,19H439.9z"/>
		<path d="M455.3,67.4l3.8-0.8v61h-3.8V67.4z"/>
		<path d="M513.8,101.8l-21.9-34.2h4.5l19.4,30.3h0.4l19.3-30.3h3.8l-21.7,34.2v25.8h-3.8V101.8z"/>
		<path d="M541.4,105c0-14.5,7.9-23.7,20.2-23.7s20.2,9.1,20.2,23.7c0,14.5-7.9,23.7-20.2,23.7S541.4,119.5,541.4,105z M561.5,125.4
			c10.1,0,16.4-8,16.4-20.5c0-12.5-6.3-20.5-16.4-20.5c-10.1,0-16.4,8-16.4,20.5C545.2,117.5,551.5,125.4,561.5,125.4z"/>
		<path d="M598.1,140.7l0.7-3.2c3,1.6,6.8,2.6,11.5,2.6c10.8,0,17.1-8,17.1-19.9H627c-3.5,5-8.7,7.4-15.2,7.4
			c-12.3,0-20.2-9.1-20.2-22.7c0-14.5,7.9-23.7,20.2-23.7c6.9,0,12.5,3.4,15.4,8.9h0.4l0.5-7.9h3.1v37.3c0,14.5-7.9,23.7-20.2,23.7
			C605.9,143.3,601.6,142.4,598.1,140.7z M611.8,124.4c7.6,0,12.8-3.4,15.6-9.3V100c0-9.2-6.1-15.5-15.6-15.5
			c-10.1,0-16.4,8-16.4,20.5C595.4,116.5,601.7,124.4,611.8,124.4z"/>
		<path d="M642.6,115.5c0-8.9,5.8-12.6,16-14.3l15.3-2.6v-1.8c0-8.1-4.6-12.3-13.3-12.3c-5.1,0-9,0.8-11.9,2.5l-0.7-3.2
			c3.5-1.7,7.8-2.5,13.4-2.5c10,0,16.2,5.5,16.2,15.4v31h-3.2l-0.6-9h-0.4c-2.4,6.1-8.5,10-15.9,10
			C648.6,128.6,642.6,123.4,642.6,115.5z M658.2,125.4c8.8,0,15.6-7,15.6-15.1v-8.6l-14.6,2.5c-8.5,1.5-12.9,4.2-12.9,11.2
			C646.3,121.4,651.1,125.4,658.2,125.4z"/>
	</g>
</g>
<g>
	<g>
		<linearGradient id="SVGID_1_" gradientUnits="userSpaceOnUse" x1="22.3267" y1="144.7485" x2="269.5784" y2="144.7485">
			<stop  offset="0" style="stop-color:#379F8F"/>
			<stop  offset="5.182375e-02" style="stop-color:#42A08D"/>
			<stop  offset="0.1426" style="stop-color:#5FA387"/>
			<stop  offset="0.2616" style="stop-color:#8EA87D"/>
			<stop  offset="0.4025" style="stop-color:#CFAF6F"/>
			<stop  offset="0.499" style="stop-color:#FFB465"/>
			<stop  offset="0.6748" style="stop-color:#D8C17E"/>
			<stop  offset="1" style="stop-color:#88DBB1"/>
		</linearGradient>
		<path class="st0" d="M249.6,77.4c0.9-1.4,1.8-2.8,3-4c0.5-0.6,1.1-1,1.7-1.4c0.2-0.2,0.6-0.4,0.4-0.7c-0.1-0.3-0.5-0.2-0.7-0.2
			c-1.9-0.3-3.9-0.2-5.7,0.1c-1,0.1-2,0.1-3,0.1c-5.6-7.6-12.1-14.5-19.2-20.6c1.4-4.8,2-10.5,0.7-16.6c-0.2-0.8,0.2-1.1-0.7-0.9
			c0,0-7.6-1.1-17,5.2c-18.5-11-40-17.3-63-17.3c-21.9,0-42.5,5.7-60.3,15.8C75.1,28.4,66,29.7,66,29.7c-0.9-0.2-0.6,0.1-0.7,0.9
			c-1.6,7.3-0.4,14,1.6,19.3c-6.4,5.3-12.2,11.3-17.5,17.8c-1.9-0.1-3.8,0.1-5.6-0.1c-1.9-0.2-3.8-0.3-5.7-0.1
			c-0.2,0-0.6-0.1-0.7,0.2c-0.1,0.4,0.2,0.6,0.4,0.7c0.6,0.4,1.2,0.9,1.7,1.4c1.6,1.8,2.9,3.8,4,5.9c-13.3,19.7-21.1,43.5-21.1,69
			c0,11,1.5,22,4.3,32.5c14.6,53.6,63.6,91.1,119.3,91.1c68.2,0,123.6-55.5,123.6-123.6C269.6,119.9,262.2,96.8,249.6,77.4z
			 M237.2,76.9c1.3,1.8,2.6,3.6,3.9,5.5c-0.8,1.1-1.5,2.2-2.3,3.2l0,0c-0.9,1.1-2,1.8-3.1,2.7c-2.7,2.3-5.7,3.9-9.3,4.1
			c-2.7,0.2-5.4,0.1-8.1-0.5c-2-0.5-4-0.7-5.8-1.8c1.5-1.7,3.2-3.2,5-4.6C223.4,80.9,229.9,77.9,237.2,76.9z M219,40.9
			c0.3-0.2,0.8-0.5,1.1-0.2c0.3,0.3,0.1,0.7,0,1.1c-0.2,1.2-0.4,2.4-0.7,3.6c-1.3-0.9-2.5-1.8-3.8-2.7
			C216.7,42.1,217.8,41.5,219,40.9z M205.7,48.4C205.7,48.4,205.7,48.4,205.7,48.4c0-0.1-0.1-0.1-0.1-0.2
			C205.7,48.2,205.7,48.3,205.7,48.4z M207.4,49c3.2,2.1,6.3,4.3,9.3,6.7c-0.1,0.4-0.3,0.8-0.4,1.2c-0.3,0.2-0.3,0.5-0.3,0.8
			c-0.3,0.4-0.5,0.8-0.6,1.3c-0.2,0.1-0.3,0.3-0.3,0.5c0,0,0,0,0,0c-0.2,0.1-0.3,0.3-0.3,0.5c-1.3,1.9-2.5,3.9-4,5.7
			c-3.2,3.5-6.8,6.3-11.4,7.7c-1.1,0.3-1.4,0-1.3-1c0.1-1.2,0.1-2.4,0.2-3.6c0.3-2.8,1.1-5.5,1.8-8.1c-0.2,0-0.4,0.1-0.5,0.3
			c0.1-0.1,0.2-0.3,0.5-0.3c0.4-0.8,0.8-1.6,1.2-2.5C202.8,54.7,204.8,51.6,207.4,49z M86.8,48.1c1.6,2,2.8,4.2,3.9,6.5
			c0.4,0.8,0.8,1.6,1.2,2.5c0.2,0,0.4,0.1,0.5,0.3c-0.1-0.1-0.2-0.3-0.5-0.3c0.7,2.7,1.5,5.4,1.8,8.1c0.1,1.2,0.2,2.4,0.2,3.6
			c0.1,1.1-0.2,1.4-1.3,1c-4.6-1.4-8.3-4.1-11.4-7.7c-1.6-1.7-2.7-3.8-4-5.7c0,0,0,0,0,0c0-0.2,0-0.4-0.3-0.5c0-0.2-0.1-0.4-0.3-0.5
			c0-0.2-0.1-0.4-0.2-0.6L86.8,48.1z M71.9,37.2c0.3-0.3,0.7,0,1.1,0.2c1.8,1,3.7,1.9,5.5,2.9c0.4,0,0.8,0.1,1.1,0.2c0,0,0,0,0,0
			c-0.3-0.1-0.7-0.2-1.1-0.2c0.2,0.2,0.4,0.3,0.6,0.5l-5.9,4.1c-0.5-2.2-1-4.4-1.3-6.6C71.8,37.9,71.6,37.5,71.9,37.2z M57,73.8
			c6.3,1.3,12.1,4.1,17.4,8.2c1.8,1.4,3.5,2.9,5,4.6c-1.8,1.1-3.8,1.4-5.8,1.8c-2.6,0.6-5.4,0.7-8.1,0.5c-3.6-0.2-6.6-1.8-9.3-4.1
			c-1-0.9-2.2-1.7-3.1-2.7v0c-0.4-0.5-0.8-1-1.1-1.5C53.6,78.3,55.3,76,57,73.8z M152.3,233.9c-1.4,2.1-2.6,4.2-3.9,6.4
			c-1.3-2.2-2.5-4.3-3.7-6.5c-0.2-0.4-0.3-0.7-0.1-1.1c1.3-2.2,2.5-4.5,3.8-6.7c0.6,0.1,0.6,0.8,1,1c0.2,0.6,0.5,1.1,1,1.5
			c0.5,1.2,1.3,2.3,2,3.3C152.8,232.6,152.8,233.2,152.3,233.9z M140.1,215.7C140.1,215.7,140.1,215.7,140.1,215.7
			c-0.8,0.6-1.2,1.5-1.6,2.4c-0.4,0.3-0.6,0.6-0.8,1.1c-0.2,0.3-0.4,0.6-0.6,0.9c-0.1,0-0.1,0-0.1,0.1c0,0,0,0,0,0
			c-0.3,0.3-0.6,0.6-0.6,1.1l0,0c0,0,0,0,0,0c-0.2,0.2-0.3,0.4-0.5,0.6l-0.1,0l-0.1,0c-0.4-0.4-0.7-0.9-1.1-1.3
			c-2.3-3.4-4.9-6.6-7.5-9.9c-0.1-0.2-0.3-0.3-0.6-0.2c0,0,0,0,0,0c0,0,0,0,0,0c0-0.1,0.1-0.1,0.1-0.2c-0.1,0-0.2,0-0.3,0
			c0,0,0,0,0,0c0.1,0,0.2,0,0.3,0c-0.6-1.2-1.5-2.1-2.3-3.2c-0.5-0.6-0.5-1.1,0-1.7c1.5-1.8,3.2-3.5,4.5-5.4c0.7-1,1.2-0.3,1.6,0.2
			c1.8,2.5,3.5,5.1,5.3,7.6c1.3,1.9,2.6,3.7,4,5.5C140.5,214.1,140.7,214.8,140.1,215.7L140.1,215.7z M137.9,209.1
			c0-0.4,0.3-0.5,0.6-0.5c0.3,0,0.5,0.2,0.6,0.6c0,0.3-0.2,0.6-0.6,0.6C138.1,209.7,137.9,209.5,137.9,209.1z M139,190.3
			c-0.5-0.7-0.1-1,0.3-1.4c2.5-2.6,5.1-5.1,7.6-7.7c0.3-0.3,0.6-0.7,0.8-1c0.2-0.1,0.4-0.3,0.5-0.5c0.2,0,0.4,0,0.5,0
			c0.5,0.7,1.1,1.4,1.8,1.9c0.7,1,1.5,1.8,2.4,2.5c0.7,0.9,1.5,1.7,2.3,2.4c0.8,0.8,1.6,1.6,2.4,2.4c0.7,0.6,0.7,1.1,0.2,1.9
			c-2.9,4-5.8,7.9-8.7,11.9c-0.5,0.6-0.8,0.7-1.2,0C145,198.6,142,194.4,139,190.3z M172.9,206.6
			C172.9,206.6,172.9,206.6,172.9,206.6c-0.5,0.6-1.1,1.1-1.4,1.8c-3.3,3.8-6.3,7.9-9.4,11.9c-0.4,0.5-0.9,1.1-1.3,1.6
			c-0.9-0.6-0.9-1.9-1.8-2.6c-0.7-1.1-1-2.4-1.9-3.4c-0.1-0.4-0.3-0.8-0.7-1.1c-0.1-0.6,0.3-0.9,0.5-1.3c1.3-1.9,2.7-3.8,4-5.7
			c0.1-0.3,0.3-0.6,0.4-0.8c2.1-2,3.5-4.6,5.2-6.9c0.7-0.9,1-0.9,1.6,0c1.5,2.2,3.1,4.3,4.7,6.4
			C172.9,206.4,172.9,206.5,172.9,206.6z M153.2,258.3c0.6-1,1.2-2.1,1.7-3.1l0.1-0.1c0.1-0.1,1.9-3.4,5.2-8.8
			c0.3-0.4,0.5-0.7,0.7-1.2c0.1-0.2,0.2-0.3,0.3-0.5c0.3-0.3,0.5-0.6,0.6-0.9c0.1-0.2,0.2-0.4,0.3-0.5c0.2-0.1,0.3-0.3,0.4-0.6
			c0.1,0,0.1-0.1,0.1-0.2c0.1-0.2,0.3-0.4,0.4-0.6c0,0,0-0.1,0-0.1c0-0.1,0.1-0.1,0.1-0.2c0.5-0.4,0.8-1,1-1.5l0-0.1
			c0.3-0.3,0.5-0.6,0.7-1c0.1-0.2,0.2-0.3,0.3-0.5c0.1-0.2,0.2-0.3,0.4-0.5c0.1-0.1,0.1-0.2,0.2-0.3c0.6-0.6,1.1-1.3,1.5-2.1
			c0.2-0.3,0.4-0.6,0.6-0.9c0.3-0.4,0.5-0.8,0.8-1.2c0.1-0.1,0.2-0.2,0.2-0.2c0.2-0.1,0.4-0.3,0.4-0.5c1.7-2.3,3.4-4.5,5.1-6.8
			c2.6-3.4,5.2-6.8,7.8-10.3c0.5-0.4,0.9-0.9,1.2-1.5c0.5-0.4,1-1,1.2-1.6l0.1-0.8c9.4-11.6,20.6-23.9,33.4-34.9l-0.1-0.1
			c0.8-0.7,1.6-1.3,2.4-1.8c1.4-1,2.4-2.4,3-4.1c0.9-2.6,0-5.1-2.4-6.5c-2.8-1.5-5.8-1.2-8.4,1c-3.2,2.9-6.1,5.5-9.2,8.4l0,0.3
			c-5.7,5.4-11.1,11.1-16.1,16.8l0.1-0.9c-0.3,0.1-0.5,0.4-0.6,0.7c-1.6,1.7-3.2,3.4-4.7,5.1c-0.6,0.7-1,0.6-1.5,0
			c-1.8-2.2-3.7-4.4-5.6-6.6c-0.5-0.6-0.4-1,0-1.6c1.7-2.4,3.4-4.7,4.9-7.2c0,0,0,0,0,0c0.3-0.2,0.5-0.5,0.6-0.9
			c0.4-0.4,0.7-0.8,0.9-1.4c0.3-0.2,0.5-0.5,0.5-0.8l0,0c0,0,0,0,0,0c0.1-0.2,0.2-0.3,0.3-0.5c0.3-0.3,0.5-0.6,0.7-1c0,0,0,0,0,0
			c2.7-4,5.5-7.8,7.9-12c0.5-0.9,0.8-1.9,0.9-2.9c0.3-2.5-0.7-4.4-2.7-5.8c-1.9-1.3-3.9-1.2-5.8-0.1c-1.7,0.9-2.8,2.5-3.7,4.1
			c-1.4,2.4-2.8,4.7-4.3,7c-1.7,2.5-3.3,5-5,7.5c-1.2,1.7-2.4,3.3-3.7,5c-0.3,0.4-0.5,1-1.2,0.8c-0.2-0.4-0.5-0.6-0.8-0.8
			c-2.7-2.6-5.5-5.3-8.2-7.9c-0.4-0.4-0.6-0.7-0.1-1.3c1.7-1.9,2.9-4,4-6.2c1.5-3.3,2.4-6.7,2.7-10.4c0.2-2.6,0.4-5.3,0.1-7.9
			c0-3.7-0.6-7.4-0.7-11.3c1.9,1.1,3.6,2.1,5.3,3c10.4,5.8,21.5,9.2,33.5,8.5c5.6-0.3,10.9-1.8,15.9-4.3c4-2,7.2-4.9,10.5-7.9
			c3.6-3.1,7-6.3,10.2-9.8c2-2.2,1.9-4.5-0.3-6.5c-1.5-1.3-3.2-2.5-4.8-3.8c-0.2,0-0.4-0.1-0.5-0.3c-0.1-0.2-0.2-0.4-0.5-0.4
			c-0.9-0.3-1.7-0.7-2.4-1.2c-0.4-0.3-0.7-0.5-1.1-0.7c-7-4.2-14.3-7.3-22.6-7.7c-0.6-0.2-1.2-0.1-1.9-0.1c-0.5,0-1,0-1.5,0
			c-0.2,0.1-0.3,0.1-0.5,0c-0.6-0.9-1.1-0.9-1.6,0.1c-6.7,0.5-13.1,1.9-19.3,4.3c-3.3,1.3-6.5,2.7-9.5,4.6c0,0,0,0,0,0
			c-1.6,0.6-3,1.7-4.5,2.7c-2,1.3-3.9,2.8-5.9,4.4c-0.5-2.2-0.2-4.3-0.6-6.2c0.1-0.8,0-1.7-0.2-2.5c-0.2-1.2,0.1-1.9,1.3-2.5
			c2.5-1.1,5-2.4,7.3-4c-0.1-0.1-0.1-0.1-0.2-0.2c0.1,0,0.1,0.1,0.2,0.2c0.4,0.1,0.7-0.2,0.9-0.4c4.4-2.7,8.4-5.9,11.6-10.1
			c2.4-3.2,4.3-6.6,4.5-10.8c0.1-0.2,0.2-0.3,0.3-0.5c0.4-5.8-0.7-11.4-2.2-17c-0.8-3.8-1.8-7.4-3-11c-0.9-2.5-2.4-2.6-4.9-1.8
			c-6.5,2-10.9,9.9-10.9,9.9s-2.5,1-9.9,12.9c-7.5,11.9-3.5,34.6-3.5,34.6c0,0.3,0,0.5,0,0.8c0.1,0.9,0.2,1.7,0.2,2.6c0,0,0,0,0,0
			c0.1,5.1,0.2,10.1,0.2,15.2c0,0.5,0,1,0,1.6c0,0.2,0,0.4,0,0.5c0.1,6.7,0.1,13.4,0.2,20.1c-0.1,3.5-1.6,6.6-3.4,9.5
			c-0.7,1.1-0.8,1.1-1.5-0.1c-1.6-2.8-2.5-5.9-3-9.1c0-4.8,0.1-9.5,0.1-14.3c0-2.7,0.3-5.5,0.1-8.2c0.1-6.1,0.3-12.2,0.4-18.3
			c0.4-2.3,0.2-4.5,0.2-6.8c0,0-1.5-31.7-15.4-43.3c0-0.2-0.1-0.4-0.3-0.4c-0.1-0.1-0.2-0.2-0.3-0.3c-0.4-0.7-0.9-1.2-1.6-1.5l0,0
			c-2-2.4-4.4-4.2-7.2-5.5c-1.6-0.8-3.7-0.3-4.2,1c-0.6,1.5-1.3,3-1.5,4.7c-0.3,0.5-0.5,1-0.5,1.6c0,0.1,0,0.3,0,0.4
			c0.1,0.4,0,0.7,0,1.1c0.1-0.4,0.1-0.7,0-1.1c-1,1.8-1.2,3.7-1.8,5.6c0,0.2,0,0.3-0.1,0.5c-0.4,0.6-0.5,1.4-0.6,2.1
			c-1,4.3-1.7,8.7-1.1,13.1c0,0.2,0,0.3,0,0.5c-0.1,0.2-0.1,0.4,0.1,0.6c0.5,4.8,2.7,8.8,5.6,12.6c1.6,2,3.7,3.4,5.5,5.2
			c0,0.5,0.4,0.6,0.8,0.6l0,0c0.6,0.4,1.2,0.7,1.8,1.1c0.3,0.3,0.7,0.6,1,0.8c3.2,2.1,6.4,3.9,9.9,5.4c0.6,0.2,1.2,0.4,1.4,1.1
			c-0.3,2.8-0.7,5.6-1,8.4c-0.2,0.3-0.2,0.6-0.1,1c-0.1,0.3-0.4,0.3-0.7,0.3c-1-0.9-2.2-1.7-3.4-2.4c-0.1-0.3-0.4-0.5-0.7-0.5
			c-0.7-0.8-1.7-1.3-2.6-1.8l0,0c0,0,0,0,0,0c-0.2-0.3-0.4-0.5-0.8-0.5c0,0,0,0,0,0c-2.3-1.8-4.9-2.9-7.4-4.1
			c-5.2-2.5-10.8-4.1-16.4-5.3c-0.2,0-0.3-0.1-0.5-0.1c-0.2-0.3-0.3-0.4-0.6-0.1c-0.4,0-0.9,0-1.3-0.1c-5.5-0.7-11-0.6-16.6,0.3
			C69,105.8,59,116.9,59,116.9c-0.6,0.8-1.4,1.5-1.6,2.5c0.1,2.6,1.7,4.1,3.7,5.3c1.1,1.5,2.4,3,3.7,4.3c2.5,2.3,5,4.5,7.5,6.7
			c4.4,3.8,9.4,6.7,15.2,8.1c8.5,2.1,16.9,1.6,25.2-0.5c7.4-1.8,14.2-5,20.6-9.2c0.3-0.2,0.6-0.7,1-0.5c0.5,0.2,0.1,0.7,0.1,1.1
			c-0.1,2.6-0.3,5.1-0.2,7.7c-0.2,0.3-0.2,0.5,0,0.8c0,0.2,0,0.4,0,0.5c-0.1,0.6-0.1,1.2-0.1,1.8c0,0.4,0,0.7,0,1.1
			c-0.3,2.8-0.3,5.6,0.1,8.3c0.9,5.2,3,9.9,6.3,14c0.5,0.7,0.6,1.1-0.1,1.7c-1.2,1.2-2.3,2.5-3.5,3.7c-0.5,0.3-0.8,0.7-1.1,1.1
			c0,0.1,0,0.3,0,0.4c0-0.1,0-0.3,0-0.4c-0.5,0.3-0.9,0.7-1.2,1.2c-0.3,0.1-0.5,0.3-0.7,0.6c-0.4,0.1-0.6,0.4-0.8,0.7
			c-0.8,0.3-1.1,1.6-2.2,1.3c-0.1-0.3-0.2-0.6-0.6-0.7c-0.3-0.3-0.4-0.7-0.8-0.8c-0.9-1.8-2.2-3.3-3.3-5c-3.1-4.8-6.6-9.3-9.2-14.4
			c-0.8-1.5-2-2.7-3.5-3.6c-2.5-1.3-5.1-0.8-6.8,1.4c-1.9,2.5-2.1,5.6-0.3,8.4c2.3,3.6,4.8,7.1,7.2,10.6c0,0.3,0.2,0.4,0.4,0.6
			c0.1,0.2,0.2,0.3,0.3,0.5c0.1,0.4,0.3,0.8,0.7,1.1c0,0.1,0,0.2,0.1,0.2c0,0.3,0.2,0.5,0.4,0.6c0,0,0,0,0,0
			c0.1,0.1,0.2,0.2,0.2,0.3c0,0,0,0,0,0c0.1,0.4,0.3,0.8,0.7,1.1c0.2,0.5,0.4,1,0.9,1.3c1.3,2.4,3,4.6,4.5,6.9
			c0.6,0.9,0.7,1.4-0.2,2.2c-1.9,1.7-3.6,3.5-5.3,5.4c-0.8,0.8-1.2,0.9-2,0L114,196c-5.8-6.3-12.1-12.7-18.5-19l0.1,0
			c-4.1-3.9-10.3-9.5-14.1-13.8c-1.1-1.3-2.6-2.2-4.3-2.7c-2.7-0.7-5.1,0.4-6.3,3c-1.3,2.9-0.8,5.9,1.7,8.3c0.5,0.4,0.9,0.9,1.3,1.3
			c0.2,0.4,0.4,0.6,0.4,0.6c12.5,11.3,23.8,22.4,33.6,33.1l-0.2,0.4c2.4,2.9,4.8,5.9,7.1,8.8v0c1.1,1.4,2.2,2.8,3.2,4.2
			c3.1,4.2,6.2,8.3,9.4,12.5c0.1,0.4,0.4,0.8,0.8,1.1c0.1,0.2,0.2,0.3,0.3,0.5c0.1,0.4,0.3,0.7,0.7,0.9c0.1,0.4,0.3,0.7,0.6,0.9
			c0,0.3,0.2,0.5,0.5,0.7c0,0.1,0,0.1,0.1,0.1c0.8,1.5,1.7,2.8,2.8,4c0.5,0.7,0.9,1.4,1.4,2.1c3.3,5.1,6.3,10.4,9.3,15.6
			c-50.4-0.9-94.6-35.1-107.9-83.8c-2.6-9.7-4-19.8-4-29.9c0-21.6,6.1-41.9,16.6-59.1c0.1,0.2,0.3,0.4,0.4,0.6
			c0,0,8.7,11.4,26.5,6.7c2.5-0.7,5.2-1.6,7.5-2.7c3-1.5,4.5-2.5,4.5-2.5c-0.5-11.4-25.2-18.5-25.2-18.5c-0.4-0.1-0.9-0.2-1.3-0.3
			c3.2-3.6,6.6-7,10.3-10.1c2,3,3.8,4.8,3.8,4.8c5.1,6.1,11.7,10,19.3,11.9c2.5,0.6,4-0.5,4.1-2.9c0.1-1.6,0-3.2,0-4.8
			c0-11.1-3.9-19.5-6.1-23.5c16-8.5,34.2-13.4,53.5-13.4c20,0,38.8,5.2,55.1,14.3c-0.1,0.1-0.1,0.1-0.2,0.2c0,0-7.6,10.4-7.6,25.9
			c0,1.6-0.1,3.2,0,4.8c0.1,2.4,1.6,3.5,4.1,2.9c7.7-2,14.2-5.8,19.3-11.9c0,0,2.5-2.6,5.2-7c4.1,3.7,7.9,7.7,11.5,11.9
			c-1.3,0.2-2.6,0.4-4,0.8c0,0-24.7,7.1-25.2,18.5c0,0,1.5,1,4.5,2.5c2.3,1.2,5,2.1,7.5,2.7c17.8,4.7,26.5-6.7,26.5-6.7
			c0.5-0.7,1-1.5,1.5-2.2c9.8,16.8,15.5,36.4,15.5,57.2C259.7,205.1,212.6,254.5,153.2,258.3z M158.7,94.3c0-0.6,0-1.2,0.1-1.8
			c0-0.1,0-0.2,0-0.3c0.2-1.6,0.4-3.2,0.5-4.7c0.2-0.2,0.2-0.5,0.2-0.8c-0.3-0.2-0.4-0.3-0.4-0.4c0,0.1,0.1,0.2,0.4,0.4
			c0-0.1,0-0.3,0.1-0.4c0.1-0.1,0.2-0.3,0-0.4c0,0,0-0.1,0-0.1c0.6-1.2,0.8-2.6,1.2-3.8c1.1-3.8,2.9-7.4,5-10.8
			c0.1-0.2,0.2-0.5,0.3-0.7c0.1-0.1,0.1-0.1,0.2-0.2c0,0,0,0,0,0c0.2-0.3,0.3-0.6,0.5-0.8c1.6-1.6,2.8-3.5,4.5-5
			c0.7-0.7,1.5-1.3,2.2-2.1c0.6-0.6,1.1-0.5,1.5,0.2c0.1,0,0.1,0,0.1,0.1c0,0-0.1,0-0.1-0.1c0,0.1,0,0.2,0,0.3
			c0,0.3,0.1,0.5,0.1,0.8c0.1,0.1,0.1,0.3,0.2,0.4c-0.1,0.3-0.1,0.6,0.1,0.9c0,0,0,0,0,0c0.3,3.3,0.8,6.7,0.7,10.1
			c-0.1,1.8-0.4,3.6-0.5,5.4v0c-0.7,2.4-1.3,4.9-2.5,7.2c-1.3,2.6-3,5-4.9,7.2c-0.7,0.4-1.2,1-1.6,1.6c-0.1,0.1-0.1,0.1-0.2,0.2
			c0,0,0,0,0,0c-0.8,0.4-1.5,0.9-2.1,1.6c-0.1,0-0.2,0-0.2,0.1c-1.3,0.9-2.6,1.7-3.9,2.6c-0.7,0.5-1.3,0.8-1.4-0.5
			c0-0.4-0.2-0.8-0.3-1.2c-0.1,0.1-0.1,0.2-0.2,0.3c0-0.1,0.1-0.2,0.2-0.3c0-0.2,0-0.4,0.1-0.5C158.8,97.1,158.7,95.7,158.7,94.3z
			 M227.9,118.6c-3.1,2.6-6.9,4.3-10.1,6.8c0.1,0.2,0.2,0.3,0.2,0.4c0-0.1-0.1-0.2-0.2-0.4c-3.9,2.4-7.9,4.8-12.1,6.7
			c-2.2,1-4.6,1.2-7,1.4c-8.2,0.9-15.9-1.1-23.4-4.2c-2.4-1-4.6-2.3-6.9-3.4c-0.6-0.7,0.1-1,0.5-1.3c2.9-2.3,6-4.1,9.3-5.8
			c1.2-0.6,2.4-1.2,3.5-1.8c2.8-1,5.6-2.2,8.4-3.1c4.4-1.5,9-2.4,13.7-2.7c7.3-0.5,14,1.4,20.3,4.8c0.4-0.4,0.8-0.4,1.1-0.3
			c-0.3-0.1-0.7,0-1.1,0.3C225.4,116.9,226.8,117.4,227.9,118.6z M126.6,91.9c-2.4-3.1-4-6.7-5.1-10.5c-0.1-0.3-0.1-0.8-0.4-1
			c0-0.3,0-0.5-0.1-0.8c-0.1-0.5-0.2-1.1-0.3-1.6c-0.2-4.1-0.2-8.3,0.5-12.3c0.1-0.4,0.1-0.8,0.2-1.3c0-0.2,0-0.3,0.1-0.5
			c0,0,0,0,0,0c0.3-0.5,0.5-1,0.5-1.6c-0.1,0-0.2,0-0.3,0c0,0,0,0,0,0c0.1,0,0.2,0,0.3,0c0.4-0.4,0.8-0.2,1.2,0.1
			c1.5,1.1,2.7,2.7,4.1,3.9h0c0.1,0.5,0.4,0.8,0.9,1.1l0,0c0.2,0,0.3,0,0.4,0.1c-0.1-0.1-0.3-0.1-0.4-0.1c0.3,1.1,1.2,1.8,1.8,2.6
			c2.6,3.6,4.5,7.6,6,11.7c0.3,0,0.5,0,0.6,0.2c-0.1-0.1-0.3-0.2-0.6-0.2c0.8,3.1,1.7,6.1,2,9.3c0.2,2.5,0.1,5,0.2,7.4
			c0,0.1-0.1,0.2-0.1,0.3c-0.3,2.4-0.3,2.4-2.6,1.4c-1-0.4-1.6-1.3-2.6-1.7c0,0.5-0.1,0.9-0.2,1.2c0.2-0.3,0.3-0.7,0.2-1.2
			C130.8,96.4,128.5,94.4,126.6,91.9z M113.2,66.6c-0.1,0-0.2,0-0.2-0.1c0-0.1,0-0.3,0-0.4c0,0.1,0,0.3,0,0.4
			C113,66.6,113.1,66.6,113.2,66.6z M71.9,120.7c-0.9-0.5-1.7-1-2.6-1.5c-0.7-0.4-0.3-0.7,0.1-1c2.9-2.2,6.2-3.8,9.6-5
			c5.2-1.9,10.6-2.2,16.1-1.7c-0.1-0.2-0.3-0.3-0.5-0.4c0.2,0,0.4,0.1,0.5,0.4c0.2,0,0.4,0,0.5,0.1c0,0,0-0.1,0-0.1c0,0,0,0.1,0,0.1
			c0.2,0,0.3,0,0.5,0c0,0,0-0.1-0.1-0.1c0,0,0,0.1,0.1,0.1c3.9,0.7,7.8,1.4,11.6,2.6c1.2,0.4,2.2,1,3.5,1.1c0.5,0,1,0,1.5,0
			c-0.5,0-1,0-1.5,0c0.5,0.4,1.1,0.6,1.6,0.8c5.5,2.3,10.7,5.2,15.6,8.7c1.2,0.8,0.5,1.1-0.2,1.4c-0.9,0.5-1.9,0.9-2.7,1.5
			c-1.1,0.2-2,0.9-3,1.3c-6.5,2.8-13.2,4.6-20.3,4.7c-6.6,0.1-12.8-1.6-18.3-5.4c-1.7-1.2-3.5-2.3-5.3-3.4c0,0,0,0,0,0
			C76.5,123.5,74.3,122,71.9,120.7z"/>
		
			<linearGradient id="SVGID_00000116939900473288496320000001292565352412860595_" gradientUnits="userSpaceOnUse" x1="187.8345" y1="72.5656" x2="188.7515" y2="72.5656">
			<stop  offset="0" style="stop-color:#379F8F"/>
			<stop  offset="5.182375e-02" style="stop-color:#42A08D"/>
			<stop  offset="0.1426" style="stop-color:#5FA387"/>
			<stop  offset="0.2616" style="stop-color:#8EA87D"/>
			<stop  offset="0.4025" style="stop-color:#CFAF6F"/>
			<stop  offset="0.499" style="stop-color:#FFB465"/>
			<stop  offset="0.6748" style="stop-color:#D8C17E"/>
			<stop  offset="1" style="stop-color:#88DBB1"/>
		</linearGradient>
		<path style="fill:url(#SVGID_00000116939900473288496320000001292565352412860595_);" d="M188.4,71.7c-0.1,0-0.3,0-0.3,0.1
			c-0.3,0.3-0.2,0.7,0,1.1c0.1,0.3,0.2,0.6,0.7,0.7c0.2-0.3,0-0.6,0-0.9C188.6,72.3,188.7,71.9,188.4,71.7z"/>
	</g>
	<path class="st2" d="M92.5,69.9c-4.6-1.4-8.3-4.1-11.4-7.7c-1.6-1.7-2.7-3.8-4-5.7c0,0,0,0,0,0c0-0.2,0-0.4-0.3-0.5c0,0,0,0,0,0
		c0-0.2-0.1-0.4-0.3-0.5c0-0.5-0.3-0.9-0.6-1.3c-0.1,0-0.2-0.1-0.3-0.1c0.1,0,0.2,0.1,0.3,0.1c0-0.3,0-0.6-0.3-0.8
		c-0.5-1.5-1-3-1.5-4.5c-0.2,0.3-0.2,0.6-0.3,0.9c0-0.3,0.1-0.6,0.3-0.9c-0.8-3.5-1.7-7-2.2-10.6c-0.1-0.4-0.3-0.8,0-1.1
		c0.3-0.3,0.7,0,1.1,0.2c1.8,1,3.7,1.9,5.5,2.9c1-0.1,1.7,0.5,2.3,1.1c-0.6-0.6-1.3-1.2-2.3-1.1c1.5,1.5,3.3,2.5,4.8,4
		c3.2,2.9,5.6,6.4,7.3,10.3c0.4,0.8,0.8,1.6,1.2,2.5c0.3,0,0.4,0.2,0.6,0.4c-0.1-0.2-0.2-0.4-0.6-0.4c0.7,2.7,1.5,5.4,1.8,8.1
		c0.1,1.2,0.2,2.4,0.2,3.6C93.9,69.9,93.6,70.2,92.5,69.9z"/>
	<path class="st2" d="M199.5,73.4c-1.1,0.3-1.4,0-1.3-1c0.1-1.2,0.1-2.4,0.2-3.6c0.3-2.8,1.1-5.5,1.8-8.1c-0.3,0-0.4,0.2-0.6,0.4
		c0.1-0.2,0.2-0.4,0.6-0.4c0.4-0.8,0.8-1.6,1.2-2.5c1.7-3.9,4.2-7.4,7.3-10.3c1.5-1.4,3.3-2.5,4.8-4c-1-0.1-1.7,0.5-2.3,1.1
		c0.6-0.6,1.3-1.2,2.3-1.1c1.8-1,3.7-2,5.5-2.9c0.3-0.2,0.8-0.5,1.1-0.2c0.3,0.3,0.1,0.7,0,1.1c-0.5,3.6-1.5,7.1-2.2,10.6
		c0.2,0.3,0.2,0.6,0.3,0.9c0-0.3-0.1-0.6-0.3-0.9c-0.5,1.5-1,3-1.5,4.5c-0.3,0.2-0.3,0.5-0.3,0.8c0.2,0,0.3-0.1,0.4-0.2
		c-0.1,0.1-0.2,0.1-0.4,0.2c-0.3,0.4-0.5,0.8-0.6,1.3c-0.2,0.1-0.3,0.3-0.3,0.5c0,0,0,0,0,0c-0.2,0.1-0.3,0.3-0.3,0.5c0,0,0,0,0,0
		c-1.3,1.9-2.5,3.9-4,5.7C207.7,69.2,204,71.9,199.5,73.4z"/>
	<path class="st2" d="M244.6,77.3c-1.9,2.8-3.7,5.6-5.8,8.3l0,0c-0.9,1.1-2,1.8-3.1,2.7c-2.7,2.3-5.7,3.9-9.3,4.1
		c-2.7,0.2-5.4,0.1-8.1-0.5c-2-0.5-4-0.7-5.8-1.8c1.5-1.7,3.2-3.2,5-4.6c7-5.4,14.8-8.7,23.8-8.9c1.3,0,2.6-0.5,4-0.5
		C245.1,76.6,244.8,76.9,244.6,77.3z"/>
	<path class="st2" d="M73.6,88.5c-2.6,0.6-5.4,0.7-8.1,0.5c-3.6-0.2-6.6-1.8-9.3-4.1c-1-0.9-2.2-1.7-3.1-2.7l0,0
		c-2.1-2.7-3.9-5.5-5.8-8.3c-0.2-0.4-0.6-0.7-0.6-1.2c1.4,0,2.6,0.5,4,0.5c8.9,0.3,16.8,3.5,23.8,8.9c1.8,1.4,3.5,2.9,5,4.6
		C77.6,87.7,75.5,88,73.6,88.5z"/>
</g>
<g>
	<path d="M377.1,169.3c0-19.1,10.4-31,26.9-31c7,0,12.8,1.2,17.5,3.5l-0.7,3.3c-3.9-2.1-9.5-3.4-16.7-3.4
		c-14.2,0-23.1,10.7-23.1,27.7c0,17,8.9,27.8,23,27.8c6.3,0,11.5-1.1,15.6-3.2V171h-18.7l0.7-3.2h21.8v28.1c-5,3-11.5,4.5-19.5,4.5
		C387.4,200.3,377.1,188.4,377.1,169.3z"/>
	<path d="M438.4,139.3h19.8c12.1,0,19.5,6.6,19.5,17.2c0,8.7-5.1,14.8-13.8,16.7l15.3,26.1h-4.4l-14.8-25.4h-17.8v25.4h-3.8V139.3z
		 M458,170.7c9.9,0,15.8-5.2,15.8-14c0-8.8-6.1-14-15.9-14h-15.7v28.1H458z"/>
	<path d="M536.9,184.7c1.8-4.1,2.8-9.9,2.8-15.5c0-17-8.9-27.7-23-27.7c-14.1,0-23,10.7-23,27.7c0,8.9,2.4,16.1,6.8,21l-3.4,1.8
		c-4.7-5.4-7.3-13.2-7.3-22.8c0-19.1,10.3-31,26.9-31c16.6,0,26.9,11.8,26.9,31c0,5.7-0.9,10.7-2.6,15L536.9,184.7z"/>
	<path d="M551.9,139.3h4l17.3,53.8h0.4l12.7-39.2l-4.7-14.6h4l17.3,53.8h0.4l17.4-53.8h3.4l-19.3,60h-3.8l-12.8-39.5h-0.3
		l-12.8,39.5h-3.8L551.9,139.3z"/>
</g>
</svg>
