<svg width="508" height="258" viewBox="0 0 508 258" fill="none" xmlns="http://www.w3.org/2000/svg">
<path d="M107.598 248.659C107.181 248.244 107.042 247.413 107.042 247.137C106.903 245.614 114.262 223.475 116.761 218.216C117.871 216.002 119.121 215.587 118.149 217.94C117.733 218.77 116.761 221.399 116.067 223.751C115.234 226.242 113.568 232.192 112.04 237.312C110.513 242.155 109.402 246.583 109.402 246.721C109.958 248.244 126.757 226.519 128.978 221.537C129.672 219.877 131.061 219.462 131.755 220.845C132.172 221.399 132.033 222.783 131.477 225.965C130.644 231.085 130.089 236.343 130.367 236.758C130.505 236.758 131.894 235.375 133.282 233.714C141.057 224.166 141.335 223.89 142.168 223.751C143.278 223.89 143.834 226.104 143.278 230.67C143.001 234.545 143.695 236.758 145.5 237.312C148.138 237.865 157.717 232.746 162.577 228.041C165.77 225.273 166.742 224.72 166.88 225.965C167.019 227.211 157.44 235.651 153.136 238.142C144.111 243.262 139.113 239.664 140.64 229.148C140.779 227.764 139.807 228.871 133.282 237.45C131.061 240.356 130.367 241.048 129.256 241.048C127.035 241.186 126.757 239.803 127.173 233.299C127.59 230.255 127.729 227.764 127.729 227.764C127.59 227.626 125.785 229.978 123.841 233.022C117.871 241.878 110.93 249.212 108.708 249.489C108.569 249.351 108.014 249.074 107.598 248.659Z" fill="#00372C"/>
<path d="M164.243 245.753C162.577 244.646 162.021 242.57 162.299 237.174C162.438 233.022 162.854 231.915 164.52 227.626C166.88 221.676 168.685 219.047 170.213 218.908C172.017 218.77 172.295 220.292 170.629 223.475C167.713 229.148 166.464 233.022 166.186 237.174C166.047 239.388 166.047 241.463 166.047 241.74C166.603 242.847 177.71 234.683 184.79 227.903C189.233 223.751 190.899 222.644 191.038 223.613C191.038 224.028 188.817 226.519 184.235 230.67C182.014 232.746 178.404 236.205 176.46 238.557C172.573 242.57 167.852 246.306 166.464 246.445C165.77 246.583 164.937 246.168 164.243 245.753ZM169.102 209.36C168.685 208.392 171.74 204.656 172.573 204.932C173.406 205.486 173.545 207.146 172.156 208.668C170.907 210.329 169.657 210.329 169.102 209.36Z" fill="#00372C"/>
<path d="M189.372 249.212C185.485 247.137 185.068 240.771 187.845 229.148C188.4 226.657 189.65 223.198 190.205 221.122C191.038 219.185 192.565 214.757 193.954 211.298C195.342 207.838 197.425 202.58 198.952 199.813C200.34 197.045 201.59 194.693 201.59 194.554C201.59 194.554 198.119 194.693 193.815 194.969C188.4 195.246 186.04 195.246 185.485 194.831C184.513 193.862 185.901 193.309 194.648 192.34L203.394 191.372L204.089 189.988C205.477 187.22 208.948 182.792 210.336 182.101C211.863 181.132 212.002 181.132 212.835 181.962C214.362 183.069 214.362 185.975 212.835 190.541C212.558 191.233 212.835 191.372 217.556 190.957C222.831 190.541 224.497 190.68 224.497 191.51C224.359 191.787 221.998 192.202 217.695 192.617L211.03 193.447L209.781 195.246C209.087 196.215 206.727 198.706 204.644 200.781C202.561 202.857 200.34 205.071 199.924 205.763C198.674 207.561 192.426 224.858 191.455 229.425C189.511 237.312 189.233 243.539 190.622 245.476C192.01 247.69 197.98 245.061 207.143 238.004C210.059 235.928 213.946 232.884 215.89 231.5C217.972 229.84 221.443 226.796 223.803 224.443C227.83 220.154 228.663 219.462 229.079 220.984C229.496 222.368 219.777 232.33 210.614 239.526C203.533 245.338 201.59 246.583 197.98 248.382C194.092 250.042 191.593 250.457 189.372 249.212ZM205.616 195.8C206.588 194.554 206.727 194.001 205.755 194.001C205.06 194.001 203.394 196.353 203.394 197.045C203.533 197.599 204.505 197.045 205.616 195.8ZM209.087 190.818C210.336 189.158 211.308 185.145 210.475 185.837C209.781 186.39 206.727 190.957 206.727 191.372C206.865 192.064 208.393 191.648 209.087 190.818Z" fill="#00372C"/>
<path d="M272.674 256.823C272.674 256.408 272.951 254.609 273.368 252.81C273.923 251.011 274.895 246.03 275.728 241.463C278.921 225.55 279.199 224.582 291 190.126C291.555 188.604 292.805 185.56 293.777 182.931C296.137 177.119 298.08 172.138 297.664 171.861C297.664 171.861 296.553 172.414 295.581 173.245C291.416 176.704 284.197 179.333 282.947 178.088C281.698 176.704 284.752 174.49 290.861 171.861L294.748 170.339L291.694 170.616C288.084 170.892 283.78 171.999 273.784 175.32C266.287 177.811 260.873 180.025 257.957 181.685C256.707 182.239 256.152 182.516 255.736 182.239C254.07 180.717 261.428 176.981 274.756 172.553C285.585 168.955 286.002 168.955 291.278 168.54C295.72 167.986 295.998 168.125 296.831 168.678C298.08 169.647 298.775 169.647 299.33 168.54C300.024 167.433 301.135 167.295 301.551 168.263C301.69 168.817 302.107 168.817 303.356 168.54C310.159 167.018 316.684 166.188 323.904 165.772C332.928 165.357 343.063 165.496 343.202 166.188C343.341 166.603 340.564 166.879 337.232 166.879C332.651 166.603 301.413 170.754 300.58 171.584C300.441 171.723 300.024 173.245 299.608 174.905C299.191 176.427 297.942 180.163 296.831 183.069C294.054 190.403 283.78 220.015 282.531 224.166C280.171 232.331 277.949 240.91 276.561 247.552C274.478 257.238 274.34 257.376 273.507 257.653C272.951 257.653 272.812 257.515 272.674 256.823Z" fill="#00372C"/>
<path d="M306.55 234.683C304.883 233.576 304.328 231.5 304.606 226.104C304.745 221.952 305.161 220.845 306.827 216.556C309.187 210.606 310.992 207.977 312.519 207.838C314.324 207.7 314.602 209.222 312.936 212.405C310.02 218.078 308.771 221.952 308.493 226.104C308.354 228.318 308.354 230.393 308.354 230.67C308.91 231.777 320.017 223.613 327.097 216.833C331.54 212.681 333.206 211.574 333.345 212.543C333.345 212.958 331.123 215.449 326.542 219.6C324.321 221.676 320.711 225.135 318.767 227.487C314.88 231.5 310.159 235.236 308.771 235.375C308.077 235.513 307.244 235.098 306.55 234.683ZM311.409 198.29C310.992 197.322 314.047 193.586 314.88 193.862C315.713 194.416 315.852 196.076 314.463 197.599C313.214 199.259 311.964 199.397 311.409 198.29Z" fill="#00372C"/>
<path d="M327.514 227.903C326.403 226.242 327.097 224.028 332.928 209.084C335.566 202.303 337.649 200.089 339.592 201.75C340.425 202.58 340.425 203.41 339.037 205.624C337.649 207.977 333.345 220.154 334.594 218.493C338.482 212.958 343.341 206.87 344.729 206.178C346.118 205.209 346.395 205.209 347.367 205.901C349.172 206.87 350.005 208.53 350.838 213.096C351.532 216.417 351.949 217.524 352.643 218.078C353.337 218.493 354.031 218.77 354.309 218.77C355.281 218.631 366.526 213.512 370.275 211.436C373.885 209.36 375.134 208.945 375.412 209.637C375.551 209.775 374.024 210.882 372.219 211.989C370.414 212.958 367.637 214.757 366.11 216.002C361.945 219.323 357.363 222.091 355.558 222.506C353.337 223.198 350.005 221.952 348.617 220.154C347.922 219.185 347.506 217.524 347.089 215.172C346.118 209.499 346.118 209.499 341.814 215.31C339.731 217.94 337.51 221.399 336.677 222.506C333.206 227.764 329.041 230.117 327.514 227.903Z" fill="#00372C"/>
<path d="M384.853 230.532C381.66 230.255 380.688 225.412 382.215 216.971C382.354 215.31 382.493 214.204 382.493 214.065C382.354 213.927 381.243 215.31 380.271 217.109C377.356 221.261 373.746 224.858 371.802 225.135C370.553 225.273 369.164 223.751 369.026 222.229C368.887 220.154 371.802 212.681 373.885 210.191C374.579 209.084 376.384 207.285 377.772 206.039C379.855 204.102 380.271 203.964 382.631 203.687C384.992 203.549 385.408 203.134 385.964 202.303C386.38 201.473 386.935 201.335 387.768 201.196C389.434 201.196 389.573 202.442 388.463 205.071C387.352 207.7 386.102 213.65 385.269 220.154C384.714 224.858 384.853 226.796 385.964 226.796C386.241 226.796 388.463 225.273 390.684 223.613C394.849 220.292 400.125 214.342 403.179 209.637C404.845 206.87 405.817 206.316 406.372 207.008C406.789 207.423 403.179 212.82 397.765 219.877C392.489 226.934 387.907 230.808 384.853 230.532ZM377.494 215.449C380.549 211.436 382.77 207.838 382.631 207.562C382.354 207.285 379.577 209.499 377.772 211.851C375.967 213.927 374.162 217.109 373.607 219.185C373.329 220.292 375.551 218.216 377.494 215.449Z" fill="#00372C"/>
<path d="M0 1.38376H48.8702L47.8983 5.95012H5.27574V40.2669H44.9828L44.0109 44.6949H5.27574V84.4083H0V1.38376Z" fill="#00372C"/>
<path d="M61.0874 53.1357C61.0874 33.0714 72.0554 20.341 89.1322 20.341C104.682 20.341 115.789 32.5179 115.789 52.1671V55.2113H66.502C66.7797 71.2627 75.6651 81.5024 90.5206 81.5024C99.9614 81.5024 105.098 80.1187 109.402 77.9047L110.374 82.3327C105.515 84.6851 99.5449 85.9304 90.2429 85.9304C72.0554 85.792 61.0874 73.2 61.0874 53.1357ZM110.513 51.0601C110.235 35.0087 101.35 24.769 89.1322 24.769C75.6651 24.769 66.7797 35.0087 66.502 51.0601H110.513Z" fill="#00372C"/>
<path d="M128.562 53.1357C128.562 33.0714 139.53 20.341 156.607 20.341C172.156 20.341 183.263 32.5179 183.263 52.1671V55.2113H133.977C134.254 71.2627 143.14 81.5024 157.995 81.5024C167.436 81.5024 172.573 80.1187 176.877 77.9047L177.849 82.3327C172.989 84.6851 167.02 85.9304 157.718 85.9304C139.53 85.792 128.562 73.2 128.562 53.1357ZM177.988 51.0601C177.71 35.0087 168.824 24.769 156.607 24.769C143.14 24.769 134.254 35.0087 133.977 51.0601H177.988Z" fill="#00372C"/>
<path d="M199.368 1.107L204.644 0V84.4083H199.368V1.107Z" fill="#00372C"/>
<path d="M280.587 48.7078L250.182 1.38376H256.43L283.364 43.3112H283.919L310.715 1.38376H315.99L285.863 48.7078V84.4083H280.587V48.7078Z" fill="#00372C"/>
<path d="M318.906 53.1357C318.906 33.0714 329.874 20.341 346.951 20.341C364.027 20.341 374.995 32.9331 374.995 53.1357C374.995 73.2 364.027 85.9304 346.951 85.9304C329.874 85.9304 318.906 73.2 318.906 53.1357ZM346.812 81.3641C360.834 81.3641 369.581 70.2941 369.581 52.9973C369.581 35.7006 360.834 24.6306 346.812 24.6306C332.789 24.6306 324.043 35.7006 324.043 52.9973C324.181 70.4325 332.928 81.3641 346.812 81.3641Z" fill="#00372C"/>
<path d="M397.625 102.535L398.597 98.1074C402.762 100.321 408.038 101.705 414.563 101.705C429.558 101.705 438.304 90.6352 438.304 74.1686H437.749C432.89 81.0873 425.67 84.4083 416.646 84.4083C399.569 84.4083 388.601 71.8163 388.601 52.9974C388.601 32.9331 399.569 20.2026 416.646 20.2026C426.226 20.2026 434 24.9074 438.027 32.518H438.582L439.276 21.5864H443.58V73.2C443.58 93.2643 432.612 105.995 415.535 105.995C408.455 106.133 402.485 104.888 397.625 102.535ZM416.646 79.9803C427.197 79.9803 434.417 75.2756 438.304 67.1115V46.217C438.304 33.4866 429.835 24.769 416.646 24.769C402.624 24.769 393.877 35.8389 393.877 53.1357C393.877 69.0488 402.624 79.9803 416.646 79.9803Z" fill="#00372C"/>
<path d="M459.407 67.665C459.407 55.3497 467.46 50.2298 481.621 47.8775L502.863 44.2798V41.789C502.863 30.5807 496.477 24.769 484.398 24.769C477.317 24.769 471.903 25.876 467.877 28.2283L466.905 23.8004C471.764 21.448 477.734 20.341 485.509 20.341C499.392 20.341 508 27.9516 508 41.6506V84.5467H503.557L502.724 72.093H502.169C498.837 80.5338 490.368 85.9304 480.094 85.9304C467.738 85.792 459.407 78.5966 459.407 67.665ZM481.066 81.3641C493.283 81.3641 502.724 71.6779 502.724 60.4696V48.5694L482.454 52.0287C470.653 54.1043 464.544 57.8404 464.544 67.5266C464.544 75.8291 471.209 81.3641 481.066 81.3641Z" fill="#00372C"/>
<path d="M90.7986 142.11C90.7986 115.681 105.237 99.2144 128.145 99.2144C137.864 99.2144 145.916 100.875 152.442 104.057L151.47 108.624C146.055 105.718 138.28 103.919 128.284 103.919C108.57 103.919 96.2132 118.725 96.2132 142.249C96.2132 165.772 108.57 180.717 128.145 180.717C136.892 180.717 144.112 179.195 149.804 176.289V144.463H123.841L124.813 140.035H155.08V178.918C148.138 183.069 139.113 185.145 128.007 185.145C105.099 185.006 90.7986 168.54 90.7986 142.11Z" fill="#00372C"/>
<path d="M175.905 100.598H203.394C220.193 100.598 230.467 109.731 230.467 124.399C230.467 136.437 223.386 144.878 211.308 147.507L232.55 183.623H226.441L205.893 148.476H181.18V183.623H175.905V100.598ZM203.116 144.048C216.861 144.048 225.052 136.852 225.052 124.675C225.052 112.498 216.583 105.303 202.978 105.303H181.18V144.186H203.116V144.048Z" fill="#00372C"/>
<path d="M312.658 163.42C315.157 157.747 316.546 149.721 316.546 141.972C316.546 118.448 304.189 103.642 284.613 103.642C265.038 103.642 252.681 118.448 252.681 141.972C252.681 154.287 256.013 164.25 262.122 171.031L257.402 173.521C250.876 166.049 247.267 155.256 247.267 141.972C247.267 115.543 261.567 99.076 284.613 99.076C307.66 99.076 321.96 115.404 321.96 141.972C321.96 149.859 320.711 156.778 318.351 162.728L312.658 163.42Z" fill="#00372C"/>
<path d="M333.484 100.598H339.037L363.056 175.044H363.611L381.243 120.801L374.718 100.598H380.271L404.29 175.044H404.845L429.003 100.598H433.723L406.928 183.623H401.652L383.881 128.965H383.465L365.693 183.623H360.418L333.484 100.598Z" fill="#00372C"/>
</svg>
