<?xml version="1.0" encoding="utf-8"?>
<!-- Generator: Adobe Illustrator 26.0.2, SVG Export Plug-In . SVG Version: 6.00 Build 0)  -->
<svg version="1.1" id="Ebene_1" xmlns="http://www.w3.org/2000/svg" xmlns:xlink="http://www.w3.org/1999/xlink" x="0px" y="0px"
	 viewBox="0 0 85 105.5" style="enable-background:new 0 0 85 105.5;" xml:space="preserve">
<style type="text/css">
	.st0{clip-path:url(#SVGID_00000139259207990498964720000017939501107961746061_);}
	.st1{fill:#FFFFFF;}
	.st2{clip-path:url(#SVGID_00000123404734359807672820000011087932663128253359_);}
	.st3{clip-path:url(#SVGID_00000124155769467719329710000010373712406487792278_);}
</style>
<g>
	<g>
		<g>
			<defs>
				<rect id="SVGID_1_" x="30.6" y="3.2" width="27.4" height="99.2"/>
			</defs>
			<clipPath id="SVGID_00000031207683971279476700000017107766765931557040_">
				<use xlink:href="#SVGID_1_"  style="overflow:visible;"/>
			</clipPath>
			<g style="clip-path:url(#SVGID_00000031207683971279476700000017107766765931557040_);">
				<path class="st1" d="M49.2,12.3c1.3-1.4,1-3.2,1.1-5c0-0.8,0.1-1.5,0-2.3c0-0.6-0.2-1.2-0.5-1.8c-0.1-0.1-0.1-0.1-0.1-0.1
					s-0.1,0-0.1,0.1c-0.9,0.9-0.5,2.6-0.6,3.9c-0.2,1.8-1.3,3.3-2,5c-1.6,3.6-2.8,7.3-3.6,11.1c-0.9,3.9-1.7,7.7-1.3,11.7
					c0.2,1.9,0.5,3.9,1,5.8c0.4,1.7,1.1,3.3,1.4,5c0.2,0.9,0.3,1.9,0.2,2.8c-0.1,0.9-0.3,1.9-0.6,2.9c-0.2,0.8-0.4,1.5-0.6,2.3
					c-0.2,0.6-0.3,1.3-0.4,1.9c0,0.4,0.1,1,0.4,1.2c0.4,0.2,1,0,1.4,0c0.9,0,1.8,0.4,2.7,0.4c0.9,0,1.8-0.1,2.6-0.2
					c0.9-0.1,1.8-0.4,2.6-0.4c0.6,0,1.2-0.1,1.8-0.2c1.2-0.3,1.5-1.5,1.3-2.7c-0.3-1.5-1.2-2.7-1.4-4.1c-0.1-1,0.1-2.3-0.5-3.2
					c-0.8-1-2.3-0.6-3.3-0.4c-1.5,0.2-3.5,0.6-4.6-0.7c-0.5-0.6-0.8-1.3-1.1-2c-0.4-0.7-0.5-1.5-0.6-2.3c0-0.8,0.4-1.5,0.8-2.2
					c0.4-0.8,0.6-1.5,0.8-2.3c0.2-0.9,0.4-1.8,0.7-2.6h-0.3c0.7,1.5-0.8,3-0.6,4.5c0.1,1.2,1.1,1.9,2.2,2.1c1.8,0.4,5.5,0.6,5.9-1.9
					c0.3-1.5-1-3.2-0.4-4.7L53,34.1c0.7,0.3,0.8,1.3,0.9,2c0.1,0.8,0.2,1.6,0.5,2.5c0.6,1.6,1.7,3.8,0.2,5.2c-1.1,0.9-2.6,1.1-4,1.2
					c-1.2,0.1-2.8,0.4-3.9-0.5c-0.5-0.5-0.8-1.1-1-1.6c-0.4-0.9-0.6-1.9-0.8-2.8c-0.2-1.1-0.3-2.2-0.1-3.3c0.2-1.1,0.7-2,0.8-3.2
					c0.1-1.1-0.1-2.3-0.1-3.4c0-1.3,0.1-2.6,0.1-3.9c0-1.3,0.1-2.6,0.2-3.9c0.2-1.2,0.4-2.5,0.8-3.6c0.4-1.3,0.8-2.6,1.2-3.9
					s1-2.5,1.5-3.7c0.5-1.2,0.9-2.5,1.1-3.7c0.2-1.3,0.4-2.6,0.7-3.9l-0.4,0.1c0.9,2,0.2,4.4,0.8,6.6s1.9,4.1,2.9,6.2
					c1.1,2.5,1.3,5.1,1.8,7.6c0.5,2.5,1.3,4.8,1.4,7.4c0.1,2-0.2,4.7-1.8,6.2l0.2-0.1c-0.5-0.4-0.8-1-1-1.5c-0.3-0.6-0.5-1.3-0.6-2
					c-0.4-1.8-0.1-3.4,0-5.1c0.1-1.8-0.1-3.6-0.4-5.3c-0.2-1.9-0.6-3.7-1.2-5.6c-0.5-1.9-1.2-3.8-2-5.6c0-0.1-0.1-0.1-0.1-0.1
					c-0.1,0-0.1,0-0.1,0c-0.1,0-0.1,0-0.1,0.1c0,0-0.1,0.1-0.1,0.1c-0.3,1.2,0.1,2.6,0.4,3.8c0.4,1.5,0.8,3.1,1.1,4.7
					c0.2,0.9,0.4,1.9,0.5,2.8c0.2,0.9,0.4,1.8,0.4,2.6c0.1,1.5-0.4,2.8-1.1,4.1c-0.4,0.7-0.6,1.5-0.8,2.2c-0.1,0.4,0,0.8,0.1,1.1
					c0.1,0.5,0.4,1-0.1,1.3l0.2,0.1c-0.5-0.8-0.3-1.8-1.1-2.3c-0.9-0.7-2.2-0.6-3-1.5c-0.5-0.6-0.7-1.5-0.8-2.2
					c-0.1-1-0.1-1.9,0-2.9c0.1-0.8,0.4-1.8,1-2.3c0.8-0.7,2-0.4,2.9,0.1c0.4,0.2,0.8,0.6,1.1,1s0.6,1.1,0.5,1.6
					c-0.1,0.5-0.6,0.1-0.8-0.1c-0.4-0.4-0.8-0.6-1.2-0.9c-0.4-0.2-0.8-0.3-1.2-0.4c-0.5-0.1-1.2-0.2-1.6-0.5
					c-0.6-0.6,0.5-1.7,0.8-2.1c0.6-0.7,1.2-2,2.2-1.5c0.3,0.1,0.5,0.4,0.7,0.5c0.2,0.2,0.4,0.5,0.4,0.8c0.2,0.7-0.2,1-0.8,1.1
					c-1,0.2-1.8,0.1-2.5,0.9c-0.8,0.9-1,2.3-0.9,3.4c0.2,1.5,0.6,2.9,0.4,4.4c-0.2,1.3-0.7,2.6-0.7,4c0,1.3,0.2,2.6,0.6,3.9
					c0.5,1.6,0.8,3.2,1.1,4.8c0.2,1.6,0.3,3.2,0.3,4.7c0,1.3-0.1,2.7,0.6,3.8c0,0.1,0.1,0.1,0.1,0.1s0.1,0,0.1,0
					c0.5-0.3,0.8-1.2,0.2-1.6c0.2-0.2,0.1-0.2-0.1-0.2c-0.1,0.1-0.2,0.1-0.4,0.2c-0.1,0.2-0.2,0.4-0.2,0.5s0,0.4,0.1,0.6
					c0.1,0.5,0.1,1,0.2,1.5c0.1,0.5,0,0.9-0.1,1.3c-0.4,0.9-2.2-0.9-2.6-1.2c-0.9-0.6-1.9-0.6-2.7,0.1c-0.4,0.4-0.8,0.9-1,1.5
					c-0.4,0.6-0.8,1.2-1.2,1.8c-1.2,1.5-2.5,2.9-4,4.1c-1.3,1.1-2.6,2.2-3.9,3.4c-1.2,1.2-2.4,2.5-3.1,4.1c-0.5,1.2-0.7,2.6,0.2,3.7
					c0.6,0.8,1.8,0.8,2.7,0.9c1.1,0.1,2.2,0.1,3.2-0.4c1.2-0.5,2.3-1.3,3.5-2c1.3-0.8,2.7-1.5,4.2-2c1.1-0.4,2.2-0.5,3.1,0.4
					c1.1,1.1,1.1,2.6,1.3,4c0.1,0.6,0.2,1.2,0.4,1.8c0,0,0,0.1,0.1,0.1l0.1,0.1h0.1h0.1c1.2-0.6,1.2-2.2,1.1-3.3
					c-0.1-0.7-0.2-1.4-0.2-2.1c0-0.9,0.4-1.7,0.8-2.5c0.4-0.7,0.5-1.5,0.4-2.2c-0.1-0.4-0.2-0.6-0.4-0.9c-0.2-0.2-0.5-0.5-0.8-0.6
					c-1.3-0.4-2.6,0.7-3.9,0.9c-0.5,0.1-1.4-0.1-1.8,0.3c-0.7,0.6,0.2,1.7-0.4,2.3l0.3,0.1c-0.2-0.4-0.4-0.8-0.4-1.2
					c0-0.3,0-0.5,0-0.8c-0.1-0.6-0.8-0.7-1.3-0.6c-1.7,0.1-3.3,0.9-4.8,1.5c-1,0.4-2.3,0.9-2.9,1.8c-0.5,0.8,0.1,1.8,1.1,1.3
					c1-0.5,1.7-1.5,2.4-2.3c1.3-1.4,3-2.5,4.7-3.2c0.9-0.4,1.8-0.6,2.7-0.9c0.7-0.2,1.4-0.5,2.1-0.8c0.7-0.2,1.7-0.4,1.9,0.5
					c0.1,0.8,0.1,1.5,0,2.3c-0.2,2.2-0.4,4.5-0.5,6.7c-0.1,2.4-0.1,4.8-0.3,7.2c-0.2,2.3-0.5,4.6-0.6,6.8c-0.2,2.3-0.4,4.6-0.9,6.7
					c-0.6,2.5-1.7,5.1-1.6,7.7c0,0.5,0.1,0.9,0.4,1.3c0.2,0.2,0.5,0.2,0.8,0.2c0.6,0.1,1.2,0.1,1.8,0.1c0.5,0.1,0.9,0.1,1.3,0
					c0.2-0.1,0.4-0.2,0.5-0.4c0.1-0.2,0.2-0.4,0.2-0.5c0-0.6-0.2-1.3-0.5-1.8c-0.3-0.6-0.6-1.1-0.9-1.6c-0.2-0.4-0.4-0.7-0.4-1.1
					c0-0.3,0.1-0.6,0.2-0.8c0.2-0.6,2-4.3,0.6-4.2c-0.5,0.1-1,0.5-1.4,0.8l-0.1,0.1c0,0.1,0,0.1,0,0.1c0.2,0.5,0.5,0.9,1.1,0.6
					c0.6-0.4,0.9-1.3,1.2-1.9c0.9-2.2,1.6-4.4,2.1-6.7c0.2-0.6,0.4-1.3,0.4-1.9C54,82,53.9,81,54,80.1c0.1-1.1,0.2-2.2,0.4-3.4
					c0.5-3.4,1.5-6.8,2.3-10.2c0.8-3.3,1.1-6.6,0.1-9.9c0-0.1-0.1-0.1-0.1-0.1c-0.1,0-0.1-0.1-0.2,0c-0.1,0-0.1,0.1-0.1,0.1
					s-0.1,0.1,0,0.2c0.6,2,0.8,4,0.5,6.1c-0.2,2-0.6,4.1-1.2,6c-0.6,2.3-1.2,4.7-1.6,7c-0.2,1.3-0.4,2.7-0.5,4.1
					c-0.1,0.8-0.1,1.6-0.1,2.3c0,0.3,0,0.6-0.1,0.8c-0.2,1.2-0.5,2.3-0.8,3.4c-0.4,1.6-0.9,3.1-1.5,4.6c-0.1,0.3-0.9,2.3-1.3,2.1
					c-0.1,0-0.1-0.1-0.1-0.2c-0.1-0.2,0.1-0.2,0.2-0.4c0.2-0.1,0.6-0.5,0.9-0.4c0.3,0.2-0.2,1.3-0.2,1.5c-0.2,0.5-0.4,1.1-0.6,1.6
					c-0.2,0.4-0.4,0.9-0.5,1.3c0,0.4,0.1,0.9,0.4,1.2c0.4,0.9,1,1.7,1.3,2.6c0.1,0.4,0.3,1.1,0,1.4c-0.1,0.1-0.4,0.1-0.6,0.1
					c-0.8,0-1.6,0-2.5-0.1c-0.1,0-0.2,0-0.4,0c-0.1-0.1-0.1,0-0.2-0.1c-0.2-0.3-0.2-0.6-0.2-1c-0.1-1.9,0.5-3.9,1.1-5.7
					c0.3-1.1,0.6-2,0.8-3.1c0.3-1.5,0.5-3.1,0.5-4.6c0.2-3.3,0.6-6.5,0.9-9.8c0.1-1.7,0.1-3.4,0.2-5.1c0.1-1.7,0.2-3.4,0.4-5.1
					C51,66.1,51,65,51,63.7c-0.1-0.9-0.4-1.6-1.3-1.6s-2,0.6-2.9,0.9c-1.3,0.4-2.6,0.8-3.8,1.3s-2.4,1.3-3.4,2.2
					c-0.6,0.6-1.2,1.2-1.8,1.9c-0.3,0.3-1.4,1.6-1.9,1.1c-0.6-0.8,1.1-1.6,1.5-1.9c0.8-0.4,1.7-0.7,2.5-1c0.6-0.2,1.3-0.5,1.9-0.7
					c0.6-0.2,1.3-0.3,2-0.2c0.5,0.1,0.4,0.6,0.4,1.1c0,0.5,0.2,1,0.5,1.4l0.1,0.1c0,0,0.1,0,0.1,0.1h0.1c0,0,0.1,0,0.1-0.1
					c0.4-0.5,0.3-1,0.2-1.6c0-0.4,0-0.6,0.4-0.8c0.3-0.1,0.6-0.1,0.9-0.1c1.2-0.1,2.2-0.8,3.3-0.9c0.4-0.1,0.8-0.1,1.1,0.2
					c0.4,0.2,0.6,0.5,0.7,0.9c0.3,0.8-0.1,1.6-0.4,2.4c-0.4,0.6-0.6,1.3-0.7,2c-0.1,0.6,0,1.2,0.1,1.7c0.1,1.2,0.5,3.2-0.8,3.8
					l0.3,0.1c-0.9-2.1-0.1-5-2.2-6.4c-0.4-0.2-0.8-0.4-1.2-0.4c-0.4-0.1-0.9,0-1.3,0.1c-1.3,0.4-2.5,0.9-3.7,1.6
					c-1.2,0.6-2.3,1.4-3.5,2.1c-1,0.7-2.2,1-3.4,0.9c-0.9-0.1-2,0.1-2.9-0.5c-0.3-0.2-0.5-0.5-0.6-0.8S31,71.9,31,71.6
					c0.1-1.5,1-2.9,1.9-3.9c1.1-1.3,2.3-2.5,3.6-3.6c1-0.9,2-1.7,3-2.6c0.8-0.8,1.5-1.6,2.2-2.5c0.4-0.5,0.8-1,1.2-1.5
					c0.4-0.5,0.6-1.1,0.9-1.5c0.4-0.6,0.9-1.3,1.8-1.2c0.6,0.1,1.3,0.5,1.8,0.9c0.5,0.4,1.6,1.5,2.3,0.9c0.6-0.5,0.4-1.7,0.4-2.3
					c0-0.5-0.2-1-0.2-1.5c0-0.4,0.4-0.8,0.4-0.2c0,0.1,0,0.2-0.1,0.4c-0.1,0.1-0.1,0.2-0.2,0.3l0.3,0.1c-0.8-1.2-0.6-2.8-0.6-4.1
					c0-1.6-0.2-3.2-0.4-4.8c-0.3-1.6-0.6-3.2-1.2-4.7c-0.5-1.4-0.6-2.9-0.4-4.4c0.2-1.6,0.9-3.1,0.6-4.7c-0.2-1.6-0.8-3.3-0.2-4.9
					c0.1-0.4,0.3-0.6,0.5-0.9c0.2-0.2,0.6-0.5,0.9-0.5c0.5-0.1,1.1-0.1,1.6-0.2c1.1-0.3,1.1-1.3,0.5-2.2c-0.5-0.8-1.6-1.5-2.5-0.9
					c-0.4,0.4-0.6,0.7-0.9,1.1c-0.3,0.4-0.6,0.8-0.9,1.2c-0.4,0.6-0.8,1.3-0.2,1.9c0.8,0.7,2,0.5,3,1.1c0.5,0.3,1.5,1.6,2.2,1.1
					s0-1.9-0.4-2.4c-1.1-1.5-3.7-2.5-4.9-0.6c-0.5,0.8-0.8,1.7-0.8,2.7c-0.1,1.1-0.1,2,0.2,3.1c0.2,0.9,0.5,1.8,1.3,2.2
					c0.9,0.6,2.6,0.6,3,1.9c0.1,0.5,0.2,1,0.5,1.5c0,0.1,0.1,0.1,0.1,0.1c0.1,0,0.1,0,0.1,0c0.2-0.1,0.4-0.4,0.4-0.6
					c0.1-0.2,0.1-0.5-0.1-0.8c-0.2-0.8-0.2-1.6,0-2.4c0.5-1.4,1.3-2.6,1.5-4.1c0.2-1.6-0.2-3.2-0.5-4.8c-0.4-1.8-0.6-3.6-1.1-5.4
					c-0.4-1.5-1.1-3.3-0.7-4.8l-0.5-0.3c1.6,3.4,2.6,7.1,3.1,10.9c0.3,1.9,0.4,3.8,0.4,5.7c-0.1,1.1-0.2,2.1-0.2,3.2
					c0,0.6,0.1,1.3,0.3,1.9c0.2,0.8,0.4,1.5,0.8,2.2c0.2,0.6,0.6,1.1,1.1,1.5c0.1,0,0.1,0.1,0.1,0c0.1,0,0.1,0,0.1-0.1
					c1.3-1.3,1.8-3.4,1.9-5.2c0.2-2.4-0.5-4.7-1.1-7.1c-0.6-2.7-0.8-5.5-1.6-8.2c-0.8-2.3-2.2-4.3-3-6.5c-0.4-1.3-0.6-2.6-0.6-3.9
					c0-1.2-0.1-2.6-0.6-3.7c-0.1-0.2-0.4-0.2-0.4-0.1c-0.4,1.2-0.5,2.5-0.7,3.7c-0.2,1.3-0.6,2.6-1.1,3.8c-0.5,1.2-1,2.3-1.4,3.4
					c-0.5,1.2-0.9,2.5-1.2,3.8c-0.7,2.6-1.1,5.2-1.1,7.8c0,1.3-0.1,2.7-0.1,4.1c0,1.2,0.2,2.5,0.1,3.7c-0.1,1.2-0.7,2.3-0.8,3.6
					c-0.1,1.1,0,2.2,0.3,3.3c0.2,0.9,0.5,1.9,0.9,2.8c0.2,0.6,0.6,1.1,1.1,1.5c1.1,0.9,2.7,0.6,4,0.5c1.3-0.1,2.9-0.3,4-1.1
					c1.8-1.3,0.9-3.6,0.3-5.4c-0.4-1-0.6-2-0.7-3c-0.1-0.7-0.3-1.7-1-2c-0.1-0.1-0.2-0.1-0.2,0.1c-0.5,1.1,0,2.3,0.2,3.4
					c0.1,0.6,0.2,1.4-0.2,2c-0.4,0.5-0.9,0.8-1.5,0.9c-1.7,0.4-5.8,0.5-5.5-2.2c0.1-1.5,1.2-2.7,0.6-4.3l-0.1-0.1c0,0-0.1,0-0.1,0
					c-0.1,0-0.1,0-0.1,0l-0.1,0.1c-0.7,1.5-0.7,3.2-1.4,4.7c-0.4,0.6-0.6,1.3-0.8,1.9c-0.1,0.6-0.1,1.3,0.2,2
					c0.4,1.2,0.8,2.6,1.8,3.4c1,1,2.6,0.9,3.9,0.7c0.8-0.1,1.5-0.2,2.3-0.3c0.6-0.1,1.3-0.1,1.7,0.5c0.3,0.5,0.3,1.1,0.3,1.6
					c0,0.6,0.1,1.2,0.2,1.8c0.3,1.4,1.2,2.6,1.4,4.1c0.1,0.7,0,1.5-0.7,1.8c-0.6,0.2-1.2,0.3-1.8,0.2c-1.7,0.1-3.3,0.6-5,0.6
					c-0.9,0.1-1.8-0.3-2.6-0.4c-0.4-0.1-0.7-0.1-1,0c-0.2,0-0.5,0.2-0.8,0.1c-0.5-0.3-0.2-1.5-0.1-1.9c0.1-0.6,0.3-1.3,0.5-1.9
					c0.4-1.7,1-3.3,0.9-5.1c-0.1-1.6-0.6-3.2-1.1-4.8c-0.5-1.8-0.9-3.5-1.2-5.3c-0.4-1.9-0.5-3.9-0.4-5.8c0.1-2,0.4-3.9,0.9-5.8
					c0.7-3.7,1.8-7.4,3-11c0.7-1.8,1.5-3.5,2.3-5.3c0.6-1.3,0.9-2.7,0.9-4.1c0-0.7,0-1.5,0.5-2h-0.3c0.4,0.5,0.4,1.2,0.5,1.8
					c0.1,0.6,0,1.3,0,2c0,1.6,0.3,3.4-0.9,4.7C48.8,12.3,49.1,12.5,49.2,12.3L49.2,12.3z"/>
			</g>
		</g>
	</g>
	<g>
		<g>
			<defs>
				<rect id="SVGID_00000029034903581195937400000011217438889774329747_" x="60.9" y="3.7" width="21.6" height="79.4"/>
			</defs>
			<clipPath id="SVGID_00000178191096922417736040000011108215937950471852_">
				<use xlink:href="#SVGID_00000029034903581195937400000011217438889774329747_"  style="overflow:visible;"/>
			</clipPath>
			<g style="clip-path:url(#SVGID_00000178191096922417736040000011108215937950471852_);">
				<path class="st1" d="M75.6,11.1c1.1-1.1,0.8-2.6,0.8-4c0-0.6,0.1-1.2,0-1.9c0-0.5-0.1-1-0.4-1.4c0,0-0.1-0.1-0.1-0.1
					c-0.1,0-0.1,0-0.1,0.1C75,4.6,75.4,6,75.3,6.9c-0.2,1.4-1,2.7-1.6,4c-1.2,2.9-2.2,5.8-2.9,8.9c-0.7,3.1-1.3,6.1-1.1,9.3
					c0.1,1.6,0.4,3.1,0.8,4.6c0.3,1.3,0.8,2.7,1.1,4c0.2,0.8,0.2,1.5,0.2,2.3c-0.1,0.8-0.2,1.5-0.5,2.3c-0.2,0.6-0.3,1.2-0.4,1.9
					c-0.2,0.5-0.2,1-0.3,1.5c0,0.4,0.1,0.8,0.4,1c0.3,0.2,0.8,0,1.1,0c0.7,0,1.4,0.3,2.1,0.4c0.7,0,1.4-0.1,2.1-0.2s1.4-0.3,2-0.3
					c0.5,0,0.9-0.1,1.4-0.1c1-0.2,1.2-1.2,1-2.2c-0.2-1.2-0.9-2.2-1.1-3.3c-0.1-0.8,0.1-1.9-0.4-2.6c-0.6-0.8-1.9-0.5-2.6-0.3
					c-1.2,0.2-2.7,0.5-3.6-0.6c-0.4-0.5-0.6-1.1-0.9-1.6c-0.3-0.6-0.4-1.2-0.5-1.8c0-0.6,0.4-1.2,0.6-1.8c0.3-0.6,0.5-1.2,0.6-1.8
					c0.1-0.7,0.3-1.4,0.6-2.1h-0.2c0.5,1.2-0.6,2.4-0.5,3.6c0.1,0.9,0.9,1.5,1.7,1.7c1.4,0.4,4.3,0.5,4.7-1.5
					c0.2-1.2-0.8-2.5-0.3-3.7l-0.2,0.1c0.5,0.2,0.6,1.1,0.7,1.6c0.1,0.6,0.2,1.3,0.4,1.9c0.5,1.3,1.3,3,0.1,4.1
					c-0.8,0.8-2.1,0.9-3.1,1c-1,0.1-2.2,0.3-3-0.4c-0.4-0.4-0.6-0.8-0.8-1.3c-0.2-0.8-0.5-1.5-0.6-2.3c-0.2-0.9-0.2-1.8-0.1-2.6
					c0.2-0.9,0.5-1.6,0.6-2.6c0.1-0.9-0.1-1.8-0.1-2.7c0-1.1,0.1-2.1,0.1-3.2c0-1.1,0.1-2.1,0.2-3.1s0.4-1.9,0.6-2.9
					c0.3-1.1,0.6-2.1,0.9-3.2c0.4-1.1,0.8-2,1.2-3c0.4-0.9,0.7-1.9,0.9-3c0.1-1.1,0.3-2,0.6-3.1l-0.3,0.1c0.8,1.6,0.2,3.6,0.6,5.4
					c0.5,1.8,1.5,3.3,2.3,5c0.9,1.9,1,4.1,1.4,6.1c0.4,1.9,1.1,3.9,1.1,5.9c0.1,1.6-0.2,3.7-1.4,5H81c-0.4-0.3-0.6-0.8-0.8-1.2
					c-0.2-0.5-0.4-1.1-0.5-1.6c-0.4-1.4-0.1-2.7,0-4.1c0.1-1.4-0.1-2.9-0.3-4.3c-0.2-1.5-0.5-3-0.9-4.5c-0.4-1.5-0.9-3-1.6-4.5
					L77,10.9h-0.1c0,0-0.1,0-0.1,0.1L76.8,11c-0.2,1,0.1,2.1,0.3,3c0.4,1.2,0.6,2.5,0.8,3.7c0.1,0.8,0.3,1.5,0.4,2.3
					c0.2,0.7,0.3,1.4,0.4,2.1c0.1,1.2-0.4,2.2-0.8,3.3c-0.3,0.5-0.5,1.2-0.6,1.8c-0.1,0.3,0,0.6,0.1,0.9c0.1,0.4,0.4,0.8-0.1,1.1
					l0.2,0.1c-0.4-0.6-0.2-1.4-0.8-1.9c-0.7-0.6-1.8-0.5-2.3-1.2c-0.4-0.5-0.5-1.2-0.6-1.8c-0.1-0.8-0.1-1.6,0-2.3
					c0.1-0.6,0.3-1.4,0.8-1.8c0.6-0.6,1.6-0.4,2.3,0.1c0.4,0.2,0.6,0.5,0.9,0.8c0.2,0.3,0.5,0.9,0.4,1.3s-0.5,0.1-0.6-0.1
					c-0.3-0.3-0.6-0.5-0.9-0.7c-0.3-0.1-0.6-0.2-0.9-0.3c-0.4-0.1-0.9-0.1-1.2-0.4c-0.5-0.5,0.4-1.3,0.6-1.7
					c0.5-0.6,0.9-1.6,1.8-1.2c0.2,0.1,0.4,0.2,0.6,0.5c0.2,0.2,0.3,0.4,0.4,0.6c0.2,0.5-0.2,0.8-0.6,0.9c-0.8,0.1-1.5,0.1-2,0.7
					c-0.6,0.8-0.8,1.8-0.7,2.7c0.1,1.2,0.5,2.3,0.4,3.5c-0.2,1.1-0.5,2.1-0.6,3.2c0,1.1,0.2,2.1,0.5,3.2c0.4,1.2,0.6,2.5,0.8,3.9
					c0.2,1.2,0.2,2.5,0.2,3.7c0,1-0.1,2.2,0.5,3c0,0.1,0.1,0.1,0.1,0.1c0.1,0,0.1,0,0.1,0c0.4-0.2,0.6-0.9,0.2-1.3
					c-0.1-0.1-0.2-0.1-0.3-0.1c-0.1,0-0.2,0.1-0.3,0.2c-0.1,0.1-0.1,0.3-0.1,0.4c0,0.2,0,0.3,0.1,0.5c0.1,0.4,0.1,0.8,0.1,1.2
					c0.1,0.4,0,0.7-0.1,1.1c-0.3,0.8-1.7-0.7-2.1-0.9c-0.7-0.5-1.5-0.5-2.1,0.1c-0.3,0.4-0.6,0.8-0.8,1.2c-0.3,0.5-0.6,1-0.9,1.4
					c-0.9,1.2-2,2.3-3.1,3.3c-1.1,0.9-2,1.8-3,2.8c-0.9,1-1.9,2-2.5,3.3c-0.4,0.9-0.6,2.1,0.1,2.9c0.5,0.6,1.4,0.6,2.2,0.7
					c0.9,0,1.7,0.1,2.5-0.3c1-0.4,1.9-1.1,2.7-1.6c1.1-0.6,2.2-1.2,3.3-1.6c0.9-0.3,1.8-0.4,2.5,0.4c0.8,0.9,0.9,2.1,1,3.3
					c0.1,0.5,0.2,1,0.4,1.5c0,0,0,0.1,0.1,0.1l0.1,0.1h0.1h0.1c1-0.5,1-1.7,0.9-2.7c-0.1-0.6-0.2-1.1-0.2-1.7c0-0.8,0.4-1.3,0.6-2
					c0.3-0.5,0.4-1.2,0.3-1.8c-0.1-0.3-0.2-0.5-0.4-0.7c-0.2-0.2-0.4-0.4-0.6-0.5c-1.1-0.3-2,0.6-3,0.7c-0.4,0.1-1.1-0.1-1.4,0.2
					c-0.6,0.5,0.1,1.3-0.4,1.9l0.2,0.1c-0.2-0.3-0.3-0.6-0.3-1c0-0.2,0-0.4,0-0.6c-0.1-0.5-0.6-0.5-1.1-0.5c-1.3,0-2.6,0.8-3.9,1.2
					c-0.8,0.3-1.8,0.7-2.3,1.5c-0.4,0.6,0.1,1.4,0.8,1.1c0.8-0.4,1.3-1.2,1.9-1.9c1.1-1.1,2.3-2,3.7-2.5c0.7-0.3,1.5-0.5,2.2-0.8
					c0.6-0.2,1.1-0.4,1.6-0.6c0.6-0.2,1.3-0.4,1.5,0.5c0.1,0.6,0.1,1.2,0,1.9c-0.2,1.8-0.4,3.6-0.4,5.4c-0.1,1.9-0.1,3.9-0.2,5.8
					c-0.2,1.8-0.4,3.6-0.5,5.5c-0.1,1.8-0.2,3.6-0.7,5.4c-0.5,2-1.3,4-1.2,6.1c0,0.4,0.1,0.7,0.2,1c0.2,0.2,0.4,0.2,0.6,0.2
					c0.5,0,0.9,0.1,1.4,0.1c0.4,0.1,0.7,0.1,1.1,0c0.1-0.1,0.3-0.1,0.4-0.3c0.1-0.1,0.1-0.3,0.1-0.4c0-0.5-0.1-1-0.4-1.5
					c-0.2-0.5-0.5-0.9-0.7-1.3c-0.2-0.3-0.2-0.6-0.4-0.9c0-0.2,0.1-0.5,0.2-0.6c0.2-0.5,1.6-3.4,0.5-3.4c-0.4,0.1-0.8,0.4-1.1,0.6
					l-0.1,0.1v0.1c0.1,0.4,0.4,0.8,0.8,0.5c0.5-0.4,0.7-1.1,0.9-1.5c0.7-1.8,1.2-3.5,1.6-5.3c0.2-0.5,0.2-1,0.4-1.5
					c0.1-0.8,0.1-1.5,0.1-2.3c0.1-0.9,0.2-1.8,0.3-2.7c0.4-2.8,1.2-5.4,1.8-8.2c0.6-2.6,0.8-5.3,0.1-7.9c0-0.1-0.1-0.1-0.1-0.1
					c-0.1,0-0.1,0-0.1,0c-0.1,0-0.1,0.1-0.1,0.1c-0.1,0,0,0.1,0,0.1c0.4,1.6,0.6,3.2,0.4,4.8c-0.2,1.6-0.5,3.3-0.9,4.8
					c-0.5,1.9-0.9,3.7-1.2,5.6c-0.2,1.1-0.3,2.2-0.4,3.3c-0.1,0.6-0.1,1.2-0.1,1.9c0,0.2,0,0.5-0.1,0.6c-0.2,0.9-0.4,1.9-0.6,2.7
					c-0.4,1.2-0.7,2.5-1.2,3.7c-0.1,0.2-0.7,1.9-1.1,1.7c-0.1,0-0.1-0.1-0.1-0.1c-0.1-0.2,0-0.2,0.2-0.3c0.2-0.1,0.5-0.4,0.7-0.4
					c0.2,0.1-0.1,1-0.2,1.2c-0.2,0.4-0.4,0.8-0.5,1.3c-0.2,0.4-0.3,0.7-0.4,1.1c0,0.4,0.1,0.7,0.3,1c0.3,0.7,0.8,1.3,1,2.1
					c0.1,0.3,0.2,0.8,0,1.1c-0.1,0.1-0.4,0.1-0.5,0.1c-0.6,0-1.3,0-1.9-0.1c-0.1,0-0.2,0-0.3,0c-0.1,0-0.1,0-0.1-0.1
					C74,82.5,74,82.2,74,81.9c-0.1-1.5,0.4-3.1,0.8-4.6c0.2-0.8,0.5-1.6,0.6-2.5c0.2-1.2,0.4-2.5,0.4-3.7c0.2-2.6,0.5-5.3,0.6-7.8
					c0.1-1.3,0.1-2.7,0.1-4.1c0.1-1.3,0.1-2.7,0.2-4.1c0.1-0.9,0.2-1.9,0.2-2.8c-0.1-0.7-0.3-1.3-1.1-1.3c-0.8,0-1.5,0.5-2.3,0.7
					c-1,0.3-2,0.6-3,1.1c-1,0.4-1.9,1-2.7,1.8c-0.5,0.5-0.9,1-1.4,1.5c-0.2,0.2-1.1,1.3-1.5,0.9c-0.5-0.6,0.8-1.3,1.2-1.5
					c0.6-0.3,1.3-0.6,2-0.8c0.5-0.2,1-0.4,1.5-0.6s1.1-0.2,1.6-0.2c0.4,0.1,0.4,0.5,0.4,0.8c0,0.4,0.1,0.8,0.4,1.1
					c0,0,0,0.1,0.1,0.1h0.1h0.1c0,0,0.1,0,0.1-0.1c0.4-0.4,0.2-0.8,0.2-1.3c0-0.3,0-0.5,0.3-0.6c0.2-0.1,0.5-0.1,0.8-0.1
					c0.9-0.1,1.7-0.6,2.6-0.8c0.3-0.1,0.6,0,0.8,0.1c0.2,0.2,0.5,0.4,0.5,0.7c0.2,0.6-0.1,1.3-0.4,1.9c-0.3,0.5-0.5,1.1-0.5,1.6
					c0,0.5,0,0.9,0.1,1.3c0.1,1,0.4,2.5-0.6,3l0.2,0.1c-0.7-1.7-0.1-4-1.8-5.1c-0.3-0.2-0.6-0.3-0.9-0.4c-0.4-0.1-0.7,0-1,0.1
					c-1,0.3-2,0.8-2.9,1.3c-0.9,0.5-1.9,1.1-2.7,1.7c-0.8,0.5-1.8,0.8-2.7,0.8c-0.8-0.1-1.6,0.1-2.3-0.4c-0.2-0.2-0.4-0.4-0.5-0.7
					c-0.1-0.3-0.2-0.5-0.2-0.8c0-1.2,0.8-2.3,1.5-3.2c0.9-1.1,1.8-2,2.9-2.9c0.8-0.7,1.6-1.3,2.4-2c0.6-0.6,1.2-1.3,1.8-1.9
					c0.4-0.4,0.6-0.8,0.9-1.2c0.3-0.4,0.5-0.8,0.8-1.2c0.3-0.5,0.8-1.1,1.3-1c0.5,0,1,0.4,1.4,0.8c0.4,0.3,1.2,1.2,1.8,0.7
					c0.5-0.4,0.3-1.3,0.3-1.9c0-0.4-0.2-0.8-0.1-1.2c0-0.3,0.3-0.6,0.4-0.2c0,0.1,0,0.2-0.1,0.3c-0.1,0.1-0.1,0.2-0.2,0.2l0.2,0.1
					c-0.6-0.9-0.5-2.2-0.5-3.3c0-1.3-0.1-2.6-0.3-3.9c-0.2-1.3-0.5-2.6-0.9-3.8c-0.4-1.1-0.5-2.3-0.4-3.5c0.2-1.3,0.7-2.5,0.5-3.8
					s-0.6-2.6-0.1-3.9c0.1-0.3,0.2-0.5,0.4-0.7s0.5-0.4,0.7-0.4c0.4-0.1,0.9-0.1,1.3-0.2c0.8-0.2,0.8-1.1,0.4-1.7
					C77.5,18,76.7,17.5,76,18c-0.3,0.3-0.5,0.6-0.7,0.9c-0.2,0.4-0.5,0.6-0.8,1c-0.3,0.5-0.6,1.1-0.2,1.5c0.6,0.6,1.6,0.4,2.3,0.8
					c0.4,0.2,1.2,1.3,1.7,0.9s0-1.5-0.3-1.9c-0.8-1.2-2.9-2-3.9-0.5c-0.4,0.6-0.6,1.4-0.6,2.1c-0.1,0.8-0.1,1.6,0.1,2.5
					c0.2,0.7,0.4,1.4,1.1,1.8c0.8,0.5,2.1,0.5,2.3,1.5c0.1,0.4,0.2,0.8,0.4,1.2c0,0.1,0.1,0.1,0.1,0.1c0.1,0,0.1,0,0.1,0
					c0.2-0.1,0.3-0.3,0.4-0.5c0.1-0.2,0.1-0.4-0.1-0.6c-0.2-0.6-0.2-1.3,0-1.9c0.4-1.1,1.1-2.1,1.2-3.3c0.2-1.3-0.2-2.6-0.4-3.9
					c-0.3-1.5-0.5-2.9-0.9-4.3c-0.3-1.2-0.9-2.6-0.6-3.9l-0.3,0.1c1.2,2.7,2,5.7,2.5,8.7c0.2,1.5,0.4,3,0.2,4.6
					c-0.1,0.8-0.2,1.7-0.2,2.5c0,0.5,0.1,1,0.2,1.5c0.1,0.6,0.4,1.2,0.6,1.8c0.2,0.5,0.5,0.9,0.8,1.2c0,0,0.1,0,0.1,0
					c0.1,0,0.1,0,0.1-0.1c1.1-1.1,1.3-2.7,1.5-4.2c0.1-1.9-0.4-3.8-0.8-5.7c-0.5-2.2-0.6-4.4-1.3-6.5c-0.6-1.8-1.8-3.4-2.4-5.2
					c-0.4-1-0.5-2-0.5-3.2c0-1,0-2-0.5-3c-0.1-0.1-0.2-0.1-0.3,0.1C77,5,76.8,6,76.7,6.9c-0.2,1.1-0.5,2-0.9,3
					c-0.4,0.9-0.8,1.8-1.1,2.7c-0.4,1-0.7,2-0.9,3c-0.6,2-0.9,4.1-0.9,6.3c0,1.1-0.1,2.2-0.1,3.3c0,1,0.2,1.9,0.1,2.9
					c-0.1,1-0.5,1.9-0.6,2.9c-0.1,0.9,0,1.8,0.2,2.6c0.2,0.8,0.4,1.5,0.7,2.2c0.2,0.5,0.5,0.9,0.8,1.2c0.9,0.7,2.1,0.5,3.2,0.4
					c1-0.1,2.3-0.2,3.2-0.9c1.4-1.1,0.8-2.9,0.2-4.3c-0.2-0.8-0.5-1.6-0.5-2.4c-0.1-0.6-0.2-1.3-0.8-1.6c-0.1,0-0.2,0-0.2,0.1
					c-0.4,0.9,0,1.8,0.2,2.7c0.1,0.5,0.2,1.2-0.1,1.6c-0.3,0.4-0.7,0.6-1.2,0.8c-1.3,0.4-4.6,0.4-4.4-1.8c0.1-1.2,1-2.2,0.5-3.4
					l-0.1-0.1h-0.1h-0.1l-0.1,0.1c-0.5,1.2-0.6,2.6-1.1,3.8c-0.3,0.5-0.5,1-0.6,1.5c-0.1,0.5-0.1,1.1,0.1,1.6
					c0.3,0.9,0.6,2.1,1.4,2.8c0.8,0.8,2,0.7,3,0.6c0.6-0.1,1.2-0.2,1.8-0.2c0.5-0.1,1.1-0.1,1.3,0.4c0.2,0.4,0.2,0.9,0.2,1.3
					c0,0.5,0.1,0.9,0.1,1.4c0.2,1.1,0.9,2.1,1.1,3.3c0.1,0.6,0,1.2-0.6,1.5c-0.5,0.2-0.9,0.2-1.4,0.2c-1.3,0.1-2.6,0.5-3.9,0.5
					c-0.7,0-1.4-0.2-2.1-0.3c-0.3-0.1-0.5-0.1-0.8,0c-0.2,0-0.4,0.1-0.6,0.1c-0.4-0.2-0.2-1.2-0.1-1.5c0.1-0.5,0.2-1,0.4-1.5
					c0.3-1.3,0.8-2.6,0.8-4.1c-0.1-1.3-0.5-2.6-0.8-3.9c-0.4-1.4-0.8-2.8-1-4.3c-0.2-1.5-0.4-3-0.4-4.6c0.1-1.6,0.4-3.2,0.7-4.7
					c0.6-3,1.3-5.9,2.4-8.8c0.5-1.5,1.2-2.8,1.9-4.2c0.5-1.1,0.7-2.2,0.7-3.3c0-0.5,0-1.2,0.4-1.6h-0.2c0.3,0.4,0.4,1,0.4,1.5
					c0,0.5,0,1.1,0,1.6c0,1.3,0.2,2.7-0.8,3.7C75.3,11,75.5,11.2,75.6,11.1L75.6,11.1z"/>
			</g>
		</g>
	</g>
	<g>
		<g>
			<defs>
				<rect id="SVGID_00000175294981224287395930000000293231727765037973_" x="2.5" y="3.7" width="21.6" height="79.4"/>
			</defs>
			<clipPath id="SVGID_00000023959329096205612630000001205436881532176796_">
				<use xlink:href="#SVGID_00000175294981224287395930000000293231727765037973_"  style="overflow:visible;"/>
			</clipPath>
			<g style="clip-path:url(#SVGID_00000023959329096205612630000001205436881532176796_);">
				<path class="st1" d="M17.2,11.1c1.1-1.1,0.8-2.6,0.8-4c0-0.6,0.1-1.2,0-1.9c0-0.5-0.1-1-0.4-1.4c0,0-0.1-0.1-0.1-0.1
					c-0.1,0-0.1,0-0.1,0.1C16.7,4.6,17,6,16.9,6.9c-0.2,1.4-1,2.7-1.6,4c-1.2,2.9-2.2,5.8-2.9,8.9c-0.7,3.1-1.3,6.1-1.1,9.3
					c0.1,1.6,0.4,3.1,0.8,4.6c0.3,1.3,0.8,2.7,1.1,4c0.2,0.8,0.2,1.5,0.2,2.3c-0.1,0.8-0.2,1.5-0.5,2.3c-0.2,0.6-0.3,1.2-0.4,1.9
					c-0.2,0.5-0.2,1-0.3,1.5c0,0.4,0.1,0.8,0.4,1c0.3,0.2,0.8,0,1.1,0c0.7,0,1.4,0.3,2.1,0.4c0.7,0,1.4-0.1,2.1-0.2
					c0.7-0.1,1.4-0.3,2-0.3c0.5,0,0.9-0.1,1.4-0.1c1-0.2,1.2-1.2,1-2.2c-0.2-1.2-0.9-2.2-1.1-3.3c-0.1-0.8,0.1-1.9-0.4-2.6
					c-0.6-0.8-1.9-0.5-2.6-0.3c-1.2,0.2-2.7,0.5-3.6-0.6c-0.4-0.6-0.7-1.2-0.9-1.8c-0.3-0.6-0.4-1.2-0.5-1.8c0-0.6,0.4-1.2,0.6-1.8
					c0.3-0.6,0.5-1.2,0.6-1.8c0.1-0.7,0.3-1.4,0.6-2.1h-0.2c0.5,1.2-0.6,2.4-0.5,3.6c0.1,0.9,0.9,1.5,1.7,1.7
					c1.4,0.4,4.3,0.5,4.7-1.5c0.2-1.2-0.8-2.5-0.3-3.7l-0.2,0.1c0.5,0.2,0.6,1.1,0.7,1.6c0.1,0.6,0.2,1.3,0.4,1.9
					c0.5,1.3,1.3,3,0.1,4.1c-0.8,0.8-2.1,0.9-3.1,1c-1,0.1-2.2,0.3-3-0.4c-0.4-0.4-0.6-0.8-0.8-1.3c-0.2-0.8-0.5-1.5-0.6-2.3
					c-0.2-0.9-0.2-1.8-0.1-2.6c0.2-0.9,0.5-1.6,0.6-2.6c0.1-0.9-0.1-1.8-0.1-2.7c0-1.1,0.1-2.1,0.1-3.2c0-1.1,0.1-2.1,0.2-3.1
					c0.1-1,0.4-1.9,0.6-2.9c0.3-1.1,0.6-2.1,0.9-3.2s0.8-2,1.2-3c0.4-0.9,0.7-1.9,0.9-3c0.1-1.1,0.3-2,0.6-3.1l-0.3,0.1
					c0.8,1.6,0.2,3.6,0.6,5.4s1.5,3.3,2.3,5c0.9,1.9,1,4.1,1.4,6.1c0.4,1.9,1.1,3.9,1.1,5.9c0.1,1.6-0.2,3.7-1.4,5h0.2
					c-0.4-0.3-0.6-0.8-0.8-1.2c-0.2-0.5-0.4-1.1-0.5-1.6c-0.4-1.4-0.1-2.7,0-4.1c0.1-1.4-0.1-2.9-0.3-4.3c-0.2-1.5-0.5-3-0.9-4.5
					c-0.4-1.5-0.9-3-1.6-4.5l-0.1-0.1h-0.1c0,0-0.1,0-0.1,0.1l-0.1,0.1c-0.2,1,0.1,2.1,0.3,3c0.4,1.2,0.6,2.5,0.8,3.7
					c0.1,0.8,0.3,1.5,0.4,2.3c0.2,0.7,0.3,1.4,0.4,2.1c0.1,1.2-0.4,2.2-0.8,3.3c-0.3,0.5-0.5,1.2-0.6,1.8c-0.1,0.3,0,0.6,0.1,0.9
					c0.1,0.4,0.4,0.8-0.1,1.1l0.2,0.1c-0.4-0.6-0.2-1.4-0.8-1.9c-0.7-0.6-1.8-0.5-2.3-1.2c-0.4-0.5-0.5-1.2-0.6-1.8
					c-0.1-0.8-0.1-1.6,0-2.3c0.1-0.6,0.3-1.4,0.8-1.8c0.6-0.6,1.6-0.4,2.3,0.1c0.4,0.2,0.6,0.5,0.9,0.8c0.2,0.3,0.5,0.9,0.4,1.3
					c-0.2,0.5-0.6,0.2-0.8,0.1c-0.3-0.3-0.6-0.5-0.9-0.7c-0.3-0.1-0.6-0.2-0.9-0.3c-0.4-0.1-0.9-0.1-1.2-0.4
					c-0.5-0.5,0.4-1.3,0.6-1.7c0.5-0.6,0.9-1.6,1.8-1.2c0.2,0.1,0.4,0.2,0.6,0.5c0.2,0.2,0.3,0.4,0.4,0.6c0.2,0.5-0.2,0.8-0.6,0.9
					c-0.8,0.1-1.5,0.1-2,0.7c-0.6,0.8-0.8,1.8-0.7,2.7c0.1,1.2,0.5,2.3,0.4,3.5c-0.2,1.1-0.5,2.1-0.6,3.2c0,1.1,0.2,2.1,0.5,3.2
					c0.4,1.2,0.6,2.5,0.8,3.9c0.2,1.2,0.2,2.5,0.2,3.7c0,1-0.1,2.2,0.5,3c0,0.1,0.1,0.1,0.1,0.1c0.1,0,0.1,0,0.1,0
					c0.4-0.2,0.6-0.9,0.2-1.3c-0.1-0.1-0.2-0.1-0.3-0.1c-0.1,0-0.2,0.1-0.3,0.2c-0.1,0.1-0.1,0.3-0.1,0.4c0,0.2,0,0.3,0.1,0.5
					c0.1,0.4,0.1,0.8,0.1,1.2c0.1,0.4,0,0.7-0.1,1.1c-0.3,0.8-1.7-0.7-2.1-0.9c-0.7-0.5-1.5-0.5-2.1,0.1c-0.3,0.4-0.6,0.8-0.8,1.2
					c-0.3,0.5-0.6,1-0.9,1.4c-0.9,1.2-2,2.3-3.1,3.3c-1.1,0.9-2,1.8-3,2.8c-0.9,1-1.9,2-2.5,3.3c-0.4,0.9-0.6,2.1,0.1,2.9
					c0.5,0.6,1.4,0.6,2.2,0.7c0.9,0,1.7,0.1,2.5-0.3c1-0.4,1.9-1.1,2.7-1.6c1.1-0.6,2.2-1.2,3.3-1.6c0.9-0.3,1.8-0.4,2.5,0.4
					c0.8,0.9,0.9,2.1,1,3.3c0.1,0.5,0.2,1,0.4,1.5c0,0,0,0.1,0.1,0.1s0.1,0.1,0.1,0.1h0.1h0.1c1-0.5,1-1.7,0.9-2.7
					c-0.1-0.6-0.2-1.1-0.2-1.7c0-0.8,0.4-1.3,0.6-2c0.3-0.5,0.4-1.2,0.3-1.8c-0.1-0.3-0.2-0.5-0.4-0.7c-0.2-0.2-0.4-0.4-0.6-0.5
					c-1.1-0.3-2,0.6-3,0.7c-0.4,0.1-1.1-0.1-1.4,0.2c-0.6,0.5,0.1,1.3-0.4,1.9l0.2,0.1c-0.2-0.3-0.3-0.6-0.3-1c0-0.2,0-0.4,0-0.6
					c-0.1-0.5-0.6-0.5-1.1-0.5c-1.3,0-2.6,0.8-3.9,1.2C8,55,7,55.4,6.5,56.1c-0.5,0.6,0,1.3,0.7,1c0.8-0.4,1.3-1.2,1.9-1.9
					c1.1-1.1,2.3-2,3.7-2.5c0.7-0.3,1.5-0.5,2.2-0.8c0.6-0.2,1.1-0.4,1.6-0.6c0.6-0.2,1.3-0.4,1.5,0.5c0.1,0.6,0.1,1.2,0,1.9
					c-0.2,1.8-0.4,3.6-0.4,5.4c-0.1,1.9-0.1,3.9-0.2,5.8c-0.2,1.8-0.4,3.6-0.5,5.5c-0.1,1.8-0.2,3.6-0.7,5.4c-0.5,2-1.3,4-1.2,6.1
					c0,0.4,0.1,0.7,0.2,1c0.2,0.2,0.4,0.2,0.6,0.2c0.5,0,0.9,0.1,1.4,0.1c0.4,0.1,0.7,0.1,1.1,0c0.1-0.1,0.3-0.1,0.4-0.3
					c0.1-0.1,0.1-0.3,0.1-0.4c0-0.5-0.1-1-0.4-1.5c-0.2-0.5-0.5-0.9-0.7-1.3c-0.2-0.3-0.2-0.6-0.4-0.9c0-0.2,0.1-0.5,0.2-0.6
					c0.2-0.5,1.6-3.4,0.5-3.4c-0.4,0.1-0.8,0.4-1.1,0.6L17,75.4v0.1c0.1,0.4,0.4,0.8,0.8,0.5c0.5-0.4,0.7-1.1,0.9-1.5
					c0.7-1.8,1.2-3.5,1.6-5.3c0.2-0.5,0.2-1,0.4-1.5c0.1-0.8,0.1-1.5,0.1-2.3c0.1-0.9,0.2-1.8,0.3-2.7c0.4-2.8,1.2-5.4,1.8-8.2
					c0.6-2.6,0.8-5.3,0.1-7.9c0-0.1-0.1-0.1-0.1-0.1c-0.1,0-0.1,0-0.1,0s-0.1,0.1-0.1,0.1s0,0.1,0,0.1c0.4,1.6,0.6,3.2,0.4,4.8
					c-0.2,1.6-0.5,3.3-0.9,4.8c-0.5,1.9-0.9,3.7-1.2,5.6c-0.2,1.1-0.3,2.2-0.4,3.3c-0.1,0.6-0.1,1.2-0.1,1.9c0,0.2,0,0.5-0.1,0.6
					c-0.2,0.9-0.4,1.9-0.6,2.7c-0.4,1.2-0.7,2.5-1.2,3.7c-0.1,0.2-0.7,1.9-1.1,1.7c-0.1,0-0.1-0.1-0.1-0.1c-0.1-0.2,0-0.2,0.2-0.3
					c0.2-0.1,0.5-0.4,0.7-0.4c0.2,0.1-0.1,1-0.2,1.2c-0.2,0.4-0.4,0.8-0.5,1.3c-0.2,0.4-0.3,0.7-0.4,1.1c0,0.4,0.1,0.7,0.3,1
					c0.3,0.7,0.8,1.3,1,2.1c0.1,0.3,0.2,0.8,0,1.1c-0.1,0.1-0.4,0.1-0.5,0.1c-0.6,0-1.3,0-1.9-0.1c-0.1,0-0.2,0-0.3,0
					s-0.1,0-0.1-0.1c-0.1-0.2-0.2-0.5-0.2-0.8c-0.1-1.5,0.4-3.1,0.8-4.6c0.2-0.8,0.5-1.6,0.6-2.5c0.2-1.2,0.4-2.5,0.4-3.7
					c0.2-2.6,0.5-5.3,0.6-7.8c0.1-1.3,0.1-2.7,0.1-4.1s0.1-2.7,0.2-4.1c0.1-0.9,0.2-1.9,0.2-2.8c-0.1-0.7-0.3-1.3-1.1-1.3
					s-1.5,0.5-2.3,0.7c-1,0.3-2,0.6-3,1.1c-1,0.4-1.9,1-2.7,1.8c-0.5,0.5-0.9,1-1.4,1.5c-0.2-0.1-1.1,1.1-1.5,0.6
					c-0.5-0.6,0.8-1.3,1.2-1.5c0.6-0.3,1.3-0.6,2-0.8c0.5-0.2,1-0.4,1.5-0.6c0.5-0.2,1.1-0.2,1.6-0.2c0.4,0.1,0.4,0.5,0.4,0.8
					c0,0.4,0.1,0.8,0.4,1.1c0,0,0,0.1,0.1,0.1h0.1h0.1c0,0,0.1,0,0.1-0.1c0.4-0.4,0.2-0.8,0.2-1.3c0-0.3,0-0.5,0.3-0.6
					c0.2-0.1,0.5-0.1,0.8-0.1c0.9-0.1,1.7-0.6,2.6-0.8c0.3-0.1,0.6,0,0.8,0.1c0.2,0.1,0.5,0.4,0.5,0.7c0.2,0.6-0.1,1.3-0.4,1.9
					c-0.3,0.5-0.5,1.1-0.5,1.6c0,0.5,0,0.9,0.1,1.3c0.1,1,0.4,2.5-0.6,3l0.2,0.1c-0.7-1.7-0.1-4-1.8-5.1c-0.3-0.2-0.6-0.3-0.9-0.4
					c-0.4-0.1-0.7,0-1,0.1c-1,0.3-2,0.8-2.9,1.3c-0.9,0.5-1.9,1.1-2.7,1.7c-0.8,0.5-1.8,0.8-2.7,0.8c-0.8-0.1-1.6,0.1-2.3-0.4
					c-0.2-0.2-0.4-0.4-0.5-0.7s-0.2-0.5-0.2-0.7c0-1.2,0.8-2.3,1.5-3.2c0.9-1.1,1.8-2,2.9-2.9c0.8-0.7,1.6-1.3,2.4-2
					c0.6-0.6,1.2-1.3,1.8-1.9c0.4-0.4,0.6-0.8,0.9-1.2c0.3-0.4,0.5-0.8,0.8-1.2c0.3-0.5,0.8-1.1,1.3-1c0.5,0,1,0.4,1.4,0.8
					c0.4,0.3,1.2,1.2,1.8,0.7c0.5-0.4,0.3-1.3,0.3-1.9c0-0.4-0.2-0.8-0.1-1.2c0-0.3,0.3-0.6,0.4-0.2c0,0.1,0,0.2-0.1,0.3
					c-0.1,0.1-0.1,0.2-0.2,0.2l0.2,0.1c-0.6-0.9-0.5-2.2-0.5-3.3c0-1.3-0.1-2.6-0.3-3.9c-0.2-1.3-0.5-2.6-0.9-3.8
					c-0.4-1.1-0.5-2.3-0.4-3.5c0.2-1.3,0.7-2.5,0.5-3.8s-0.6-2.6-0.1-3.9c0.1-0.3,0.2-0.5,0.4-0.7s0.5-0.4,0.7-0.4
					c0.4-0.1,0.9-0.1,1.3-0.2c0.8-0.2,0.8-1.1,0.4-1.7s-1.2-1.2-1.9-0.7c-0.3,0.3-0.5,0.6-0.7,0.9c-0.2,0.4-0.5,0.6-0.8,1
					c-0.3,0.5-0.6,1.1-0.2,1.5c0.6,0.6,1.6,0.4,2.3,0.8c0.4,0.2,1.2,1.3,1.7,0.9c0.5-0.4,0-1.5-0.3-1.9c-0.8-1.2-2.9-2-3.9-0.5
					c-0.4,0.6-0.6,1.4-0.6,2.1c-0.2,0.8-0.2,1.6-0.1,2.4c0.2,0.7,0.4,1.4,1.1,1.8c0.8,0.5,2.1,0.5,2.3,1.5c0.1,0.4,0.2,0.8,0.4,1.2
					c0,0.1,0.1,0.1,0.1,0.1c0.1,0,0.1,0,0.1,0c0.2-0.1,0.3-0.3,0.4-0.5c0.1-0.2,0.1-0.4-0.1-0.6c-0.2-0.6-0.2-1.3,0-1.9
					c0.4-1.1,1.1-2.1,1.2-3.3c0.2-1.3-0.2-2.6-0.4-3.9c-0.3-1.5-0.5-2.9-0.9-4.3c-0.3-1.2-0.9-2.6-0.6-3.9l-0.4-0.1
					c1.2,2.7,2,5.7,2.5,8.7c0.2,1.5,0.4,3,0.2,4.6c-0.1,0.8-0.2,1.7-0.2,2.5c0,0.5,0.1,1,0.2,1.5c0.1,0.6,0.4,1.2,0.6,1.8
					c0.2,0.5,0.5,0.9,0.8,1.2c0,0,0.1,0,0.1,0c0.1,0,0.1,0,0.1-0.1c1.1-1.1,1.3-2.7,1.5-4.2c0.1-1.9-0.4-3.8-0.8-5.7
					c-0.5-2.2-0.6-4.4-1.3-6.5c-0.6-1.8-1.8-3.4-2.4-5.2c-0.4-1-0.5-2-0.5-3.2c0-1,0-2-0.5-3c-0.1-0.1-0.2-0.1-0.3,0.1
					c-0.2,0.9-0.4,1.9-0.5,2.9c-0.2,1.2-0.5,2.2-0.9,3.2c-0.4,0.9-0.8,1.8-1.1,2.7c-0.4,1-0.7,2-0.9,3c-0.6,2-0.9,4.1-0.9,6.3
					c0,1.1-0.1,2.2-0.1,3.3c0,1,0.2,1.9,0.1,2.9c-0.1,1-0.5,1.9-0.6,2.9c-0.1,0.9,0,1.8,0.2,2.6c0.2,0.8,0.4,1.5,0.7,2.2
					c0.2,0.5,0.5,0.9,0.8,1.2c0.9,0.7,2.1,0.5,3.2,0.4c1-0.1,2.3-0.2,3.2-0.9c1.4-1.1,0.8-2.9,0.2-4.3c-0.2-0.8-0.5-1.6-0.5-2.4
					c-0.1-0.6-0.2-1.3-0.8-1.6c-0.1,0-0.2,0-0.2,0.1c-0.4,0.9,0,1.8,0.2,2.7c0.1,0.5,0.2,1.2-0.1,1.6c-0.3,0.4-0.7,0.6-1.2,0.8
					c-1.3,0.4-4.6,0.4-4.4-1.8c0.1-1.2,1-2.2,0.5-3.4L15,28.1H15h-0.1l-0.1,0.1c-0.5,1.2-0.6,2.6-1.1,3.8c-0.3,0.5-0.5,1-0.6,1.5
					C13,34,13,34.5,13.2,35c0.3,0.9,0.6,2.1,1.4,2.8c0.8,0.8,2,0.7,3,0.6c0.6-0.1,1.2-0.2,1.8-0.2c0.5-0.1,1.1-0.1,1.3,0.4
					c0.2,0.4,0.2,0.9,0.2,1.3c0,0.5,0.1,0.9,0.1,1.4c0.2,1.1,0.9,2.1,1.1,3.3c0.1,0.6,0,1.2-0.6,1.5c-0.5,0.2-0.9,0.2-1.4,0.2
					c-1.3,0.1-2.6,0.5-3.9,0.5c-0.7,0-1.4-0.2-2.1-0.3c-0.3-0.1-0.5-0.1-0.8,0c-0.2,0-0.4,0.1-0.6,0.1c-0.4-0.2-0.2-1.2-0.1-1.5
					c0.1-0.5,0.2-1,0.4-1.5c0.3-1.3,0.8-2.6,0.8-4.1c-0.1-1.3-0.5-2.6-0.8-3.9c-0.4-1.4-0.8-2.8-1-4.3c-0.2-1.5-0.4-3-0.4-4.6
					c0.1-1.6,0.4-3.2,0.7-4.7c0.6-3,1.3-5.9,2.4-8.8c0.5-1.5,1.2-2.8,1.9-4.2c0.5-1.1,0.7-2.2,0.7-3.3c0-0.5,0-1.2,0.4-1.6h-0.2
					c0.3,0.4,0.4,1,0.4,1.5c0,0.5,0,1.1,0,1.6c0,1.3,0.2,2.7-0.8,3.7C16.9,11,17.1,11.2,17.2,11.1L17.2,11.1z"/>
			</g>
		</g>
	</g>
</g>
</svg>
