<?xml version="1.0" encoding="utf-8"?>
<!-- Generator: Adobe Illustrator 26.0.2, SVG Export Plug-In . SVG Version: 6.00 Build 0)  -->
<svg version="1.1" id="Ebene_1" xmlns="http://www.w3.org/2000/svg" xmlns:xlink="http://www.w3.org/1999/xlink" x="0px" y="0px"
	 viewBox="0 0 100 100" style="enable-background:new 0 0 100 100;" xml:space="preserve">
<style type="text/css">
	.st0{fill:#FFB465;fill-opacity:0.1;}
	.st1{fill:none;stroke:#379F8F;stroke-linecap:round;stroke-miterlimit:10;}
</style>
<g>
	<path class="st0" d="M79.9,19.5c21,15.5,12.3,41.7,5.4,52.9c-36.1,47.9-96,0.2-79.3-33.9S53.6,0.2,79.9,19.5z"/>
	<path class="st0" d="M59.5,24.6c6.7,4.9,11.2,15.6,9,19.1C34.4,45,27.3,44.4,32.6,33.5S51.1,18.4,59.5,24.6z"/>
	<path class="st1" d="M70.8,43.8c-1.6,6.3-2.7,7-5.4,12.3s-2.5,9.7-1.6,13s-1.1,3.1-1.1,3.1s-14.9-0.1-18,0c-3,0.1-2.9-4.6-3.3-5.9
		C41,65.1,37.6,67,32.6,67s-4.4-3.5-4.4-4.2s0.6-2.9,0.6-5.9s-1.2-4.8-4.3-4.8c-3,0-1.9-3.1,1.8-6.7c3.7-3.6,1.8-3.9,2.3-11.9
		s9.2-10.8,9.2-10.8s14-6.8,26.3,1.9C73.9,31.5,70.8,43.8,70.8,43.8z"/>
	<path class="st1" d="M28.8,58.9c0,0,3.4,1.5,4.8-0.3"/>
	<path class="st1" d="M48.7,28.8c0,0-3.9-0.4-5.1,2.4c-1.2,2.8-0.2,4.5,4.3,3.4c4.6-1.1,8,2.3,6.5-1.8S48.7,28.8,48.7,28.8z"/>
	<path class="st1" d="M50.6,26.3c0,0-6.5-1.5-10.5,2.7c-4.1,4.2-4.7,9.7,1,9.7s8.1-1.5,13.8,0.3s9.6-0.3,6.6-5.4
		C58.2,28.2,50.6,26.3,50.6,26.3z"/>
	<path class="st1" d="M51.7,22.9c0,0-10.9-0.4-16,5.2S31.4,41.9,34.8,42c3.3,0,12.7-1.3,17.2-0.2c4.5,1,14.9,4.3,15.6-0.1
		C68.3,37.1,64.8,24.1,51.7,22.9z"/>
</g>
</svg>
