<?xml version="1.0" encoding="utf-8"?>
<!-- Generator: Adobe Illustrator 26.0.2, SVG Export Plug-In . SVG Version: 6.00 Build 0)  -->
<svg version="1.1" id="Ebene_1" xmlns="http://www.w3.org/2000/svg" xmlns:xlink="http://www.w3.org/1999/xlink" x="0px" y="0px"
	 viewBox="0 0 145.6 146" style="enable-background:new 0 0 145.6 146;" xml:space="preserve">
<style type="text/css">
	.st0{fill:#88DBB1;fill-opacity:0.2;}
	.st1{fill:#379F8F;}
	.st2{fill:none;stroke:#379F8F;stroke-width:0.5;stroke-linecap:round;stroke-linejoin:round;}
	.st3{fill:#E7B480;}
	.st4{fill:#3A2110;}
</style>
<g id="Ebene_2_00000079483575094550817930000001226310691713041552_">
	<path class="st0" d="M73,0L73,0c40.3,0,73,32.7,73,73l0,0c0,40.3-32.7,73-73,73l0,0c-40.3,0-73-32.7-73-73l0,0C0,32.7,32.7,0,73,0z
		"/>
</g>
<g id="Ebene_1_00000018924994781117323370000005887659099098769561_">
	<path class="st1" d="M60.4,76.5c1-0.8,2-0.9,2.8-0.9c1.5,0,3.1,0.1,4.6,0.3c1.2,0.2,2.3,0.3,3.5,0.3c1.4-0.1,2.9-0.3,4.3-0.5
		c1.7-0.3,3.4-0.4,5-0.4c1.2,0,2.3,0.3,3.6,1.2c4.2,2.7,2.2,10.8,2.2,10.8c-0.1,0.4-0.3,0.7-0.6,0.9h0.3c-1.7-0.9-3-2.2-4.6-3.3
		c-0.7-0.5-1.4-0.8-2.2-1c-0.8-0.2-1.6-0.1-2.4,0.1c-1.2,0.3-2.2,0.9-3.4,1.2c-0.5,0.2-1,0.2-1.5,0.1c-0.4-0.2-0.1-1,0.2-1.2
		c0.4-0.4,1.1,0.3,1.2,0.6c0.2,0.4,0.3,0.8,0.2,1.2s-0.3,0.8-0.6,1c-0.8,0.7-2,0.7-2.9,1.1c-1,0.5-1.7,1.4-2.1,2.4
		c-0.4,1.1-1,2.1-1.7,3c-0.7,0.8-1.5,1.5-2.4,2.1c-1.6,1-3.5,1.7-5.4,1.9c-3,0.5-6,0.8-8.8,1.7c-1.2,0.4-2.3,0.9-3.4,1.4
		c-1.2,0.4-2.4,0.7-3.4-0.1l0.1,0.4c0.6-1.2,2.1-1,3.2-0.7c1.8,0.5,3.5,1.2,5.1,2c1.5,0.8,3,1.6,4.6,2.5c2,1,4.1,1.8,6.3,2.4
		c1.4,0.5,3,1,4.2,2c0.9,0.9,1.6,1.9,2.3,3c0,0.1,0.1,0.1,0.2,0.1s0.2,0,0.2,0c2.3-1.1,1.1-3.8-0.2-5.2l-0.2,0.5
		c1.6,0,3.1,0.6,4.7,0.5c0.6,0,1.3-0.3,1.8-0.6c0.5-0.4,1-0.8,1.3-1.4c0.3-0.5,0.5-1,0.8-1.5c0.4-0.6,0.9-1,1.6-1.2
		c1.7-0.5,3.6,0.2,5.2,0.9c1.4,0.7,2.6,1.8,4,2.5c1.4,0.8,3,1,4.6,1.1c1.5,0.1,3,0.6,4.2,1.5c0.4,0.3,0.9,0.8,0.9,1.2
		c0,0.3-0.3,0.6-0.7,0.7c-0.6,0.3-1.2,0.4-1.8,0.5c-1.6,0.3-3.3,0.4-4.9,0.4c-1.2,0-2.5,0-3.7-0.1c-3.3-0.3-6.6-1.4-9.9-0.9
		c-1.7,0.3-3.4,0.9-5.1,1.3c-1.9,0.4-3.8,0.6-5.7,0.7c-3.9,0.2-7.8,0.1-11.6,0c-1.9-0.1-3.8-0.2-5.8-0.1c-1.8,0-3.6,0.1-5.4,0.2
		c-1.7,0.1-3.5,0-5.2-0.3c-1-0.2-2-0.8-2.6-1.7c-0.8-1-1.4-2.2-2.1-3.2c-0.8-1.2-1.5-2.4-2.1-3.7c-0.6-1.2-0.7-2.5-0.3-3.8
		c0.4-1.2,1.5-2,2.6-2.6c2.3-1.3,4.7-2.2,7.3-2.7c2.7-0.6,5.4-1,8.2-1.2c1.2-0.1,2.4-0.2,3.5-0.2c1.2,0,2.3,0.2,3.5,0.1
		s2.1-0.5,2.2-1.8c0.1-0.5,0.5-0.8,0.7-1.3c0.1-0.3,0.2-0.4,0.5-0.6c1.4-0.7,2.9-0.2,4.3-0.1c1.9,0.2,3.7,0.1,5.6,0.1
		c2,0,3.9,0.1,5.9,0.1s3.8,0.2,5.7,0.3c0.9,0,1.9,0,2.8,0c0.7-0.1,1.4-0.2,2.1-0.4c0.7-0.2,1.5-0.3,2,0.3c0.1,0.1,0.2,0.3,0.3,0.5
		c0.1,0.2,0.1,0.4,0.1,0.6c0,0.3,0,0.6,0,0.9c0.1,0.2,0.2,0.3,0.3,0.4c0.1,0.1,0.3,0.2,0.4,0.3c1.3,0.5,2.9,0.4,4.2,0.3
		c2.7-0.2,5.3-0.8,8-0.8c1.6,0,3.2,0.1,4.7,0.3c1.9,0.2,3.7,0.6,5.5,1.1c1.5,0.5,3.1,1.2,4.1,2.4c0.5,0.6,0.8,1.3,0.8,2.1
		c0.1,0.7,0,1.5-0.4,2.2c-0.9,2.3-2.9,3.7-5.1,4.6c-2.3,0.9-4.8,1.6-7.3,2c-1.5,0.3-3,0.5-4.5,0.7c-1.9,0.1-3.8,0.1-5.7,0.1
		c-0.9,0-1.7-0.1-2.6-0.1c-0.8,0-1.5,0.1-2.2,0.1c-1.5,0.1-3.2,0.2-4.6-0.5c-2.1-1-2.6-4.2-1.5-6.1c0.6-0.9,1.5-1.6,2.6-2
		c1.2-0.4,2.5-0.7,3.7-0.9c2.4-0.3,4.8-0.4,7.2-0.2c1.3,0.2,2.6,0.6,3.8,1.1c1.2,0.4,2.4,0.9,3.7,0.8c0.8-0.1,2.3-0.4,2.2-1.5
		s-1.6-1.9-2.5-2.2c-2.7-1.2-5.8-1.1-8.7-0.8c-2.9,0.4-5.7,1.1-8.5,1.6c-2.1,0.3-5,0.5-6.5,2.3c-0.9,1-0.8,2.2-0.5,3.4
		c0.2,0.6,0.3,1.3,0.2,2c-0.2,0.7-0.9,1.6-1.6,1.6c-0.6,0-1-0.6-1.2-1c-0.2-0.6-0.3-1.3-0.2-2c0.3-1.4,1-2.7,0.7-4.3
		c0-0.1,0-0.1-0.1-0.1l-0.1-0.1c-1.6-0.2-2.2,1.2-2.6,2.5c-0.2,0.8-0.4,1.5-0.7,2.2c-0.2,0.4-0.5,0.8-1,1.1
		c-0.4,0.3-0.9,0.4-1.4,0.5c-1.2,0.1-2.4-0.5-3.6-0.8c-1.3-0.4-2.7-0.7-4.1-1c-2.4-0.6-4.8-0.9-7.3-0.9c-1.1,0.1-2.3,0.1-3.4,0
		c-1-0.1-2.1-0.4-2.8-1.2l-0.1,0.4c1.3-1,3.1-1.3,4.6-1.5c1.7-0.2,3.4-0.3,5.1-0.2c0.8,0,1.6,0.1,2.4,0.2c0.7,0.1,1.5-0.1,2.2-0.4
		c0.8-0.4,1.6-0.9,2.4-1.5c0.5-0.4,1-0.7,1.6-0.9c0.3-0.1,0.5-0.2,0.8-0.1c0.3,0,0.5,0.1,0.8,0.2c1,0.5,1.9,1.1,2.7,1.8
		c0.3,0.2,0.8-0.2,0.4-0.4l0,0c-0.8-0.7-1.6-1.2-2.5-1.7c-0.5-0.3-1.1-0.4-1.6-0.4c-1.3,0.1-2.4,1.2-3.5,1.9c-0.7,0.6-1.6,1-2.5,1.1
		c-0.9,0-1.7-0.1-2.5-0.2c-1.7-0.1-3.4,0-5.1,0.2c-1.8,0.2-3.9,0.5-5.4,1.6c-0.1,0-0.1,0.1-0.1,0.2s0,0.2,0,0.2
		c1.2,1.6,3.4,1.6,5.2,1.6c1,0,2-0.1,2.9-0.1c1.3,0.1,2.7,0.3,4,0.6c1.4,0.3,2.9,0.6,4.3,1c1.2,0.3,2.5,0.8,3.7,1.1
		c0.6,0.2,1.2,0.2,1.8,0.1c0.6-0.1,1.1-0.3,1.6-0.7c0.6-0.5,1-1.1,1.2-1.8c0.3-0.8,0.5-1.7,0.8-2.5c0.3-0.7,0.7-1.4,1.6-1.2
		l-0.2-0.2c0.4,1.6-0.7,3.1-0.8,4.7c0,1.1,0.4,2.6,1.5,3c1.3,0.4,2.5-1.1,2.7-2.2c0.2-1.4-0.7-2.7-0.4-4c0.3-1.2,1.5-1.9,2.6-2.2
		c1.2-0.3,2.4-0.6,3.7-0.7c2.9-0.5,5.8-1.2,8.8-1.6s6.4-0.5,9.1,1.1c0.6,0.2,1,0.7,1.4,1.2c0.2,0.5-0.4,0.7-0.8,0.9
		c-1.3,0.4-2.7-0.1-3.9-0.5c-1.3-0.5-2.6-0.9-4-1.2c-1.1-0.1-2.2-0.2-3.3-0.2c-2.7-0.1-5.3,0.3-7.9,1.1c-1.1,0.3-2,0.9-2.8,1.7
		c-0.7,0.9-1.1,2.1-1.1,3.2c0,1.2,0.4,2.3,1.1,3.3c0.4,0.5,0.9,0.9,1.4,1.2c0.6,0.3,1.2,0.5,1.8,0.5c1.6,0.1,3.2,0.1,4.8-0.1
		c1.8-0.1,3.6,0.1,5.5,0.1c3.1,0,6.3-0.4,9.3-1.1c4.4-0.9,10.3-2.5,11.6-7.6c0.2-0.7,0.2-1.5,0-2.2s-0.6-1.4-1.1-2
		c-1.2-1.2-2.8-2-4.5-2.5c-3.4-1-6.9-1.4-10.4-1.4c-2.9,0-5.8,0.8-8.7,0.9c-0.8,0-1.5,0-2.3-0.1c-0.3-0.1-0.9-0.1-1-0.5
		c0-0.3,0-0.6,0-0.8c0-0.4-0.2-0.8-0.5-1.2c-1-1.2-2.4-0.7-3.6-0.4c-0.9,0.2-1.8,0.2-2.7,0.2c-1,0-2,0-3-0.1c-4-0.2-8-0.3-12-0.4
		c-1,0-2,0-2.9-0.1c-0.8,0-1.5-0.2-2.3-0.2c-0.7-0.1-1.4,0-2.1,0.1c-0.5,0.1-0.9,0.3-1.2,0.6c-0.2,0.3-0.3,0.6-0.5,0.9
		c-0.2,0.2-0.3,0.4-0.4,0.7c-0.1,0.2,0,0.5-0.1,0.7c-0.2,0.6-0.9,0.8-1.5,0.9c-0.7,0-1.3,0-2,0c-2.4-0.1-4.9,0.1-7.3,0.4
		c-2.8,0.3-5.6,0.8-8.3,1.6c-2.4,0.7-4.8,1.7-6.7,3.3c-0.5,0.4-0.9,0.9-1.2,1.5c-0.3,0.6-0.4,1.2-0.4,1.8c0.1,1.4,0.5,2.7,1.2,3.9
		c0.7,1.3,1.5,2.5,2.3,3.7c0.6,1,1.3,2,2.1,2.9c0.8,0.8,1.9,1.3,3,1.4c1.8,0.2,3.6,0.3,5.5,0.2c1.9-0.1,3.7-0.2,5.6-0.2
		c2,0,4,0.1,6,0.2c4,0.2,7.9,0.1,11.9-0.2c1.9-0.1,3.7-0.4,5.5-0.9s3.6-1.1,5.5-1.1c3,0,5.8,0.9,8.8,1.1c1.4,0.1,2.9,0.1,4.3,0
		c1.7,0,3.3-0.2,5-0.6c0.9-0.2,2.3-0.8,2-1.9c-0.2-0.6-0.6-1.1-1.1-1.4c-1.1-0.9-2.5-1.4-4-1.6c-1.8-0.2-3.4-0.3-5-1.2
		c-1.4-0.8-2.6-1.9-4.2-2.6c-1.5-0.7-3.3-1.3-5-0.9c-0.6,0.1-1.2,0.4-1.7,0.8s-0.9,0.9-1.1,1.5c-0.3,0.5-0.6,1-0.9,1.4
		c-0.3,0.3-0.6,0.5-1,0.7s-0.8,0.3-1.1,0.3c-1.6,0.1-3-0.5-4.6-0.5c-0.1,0-0.1,0-0.2,0.1c-0.1,0-0.1,0.1-0.1,0.1c0,0.1,0,0.1,0,0.2
		s0,0.1,0.1,0.2c1,1.1,2.2,3.4,0.3,4.3l0.4,0.1c-0.6-1-1.3-1.9-2.1-2.8c-0.9-0.9-2-1.5-3.2-1.9c-2.5-1-5.1-1.5-7.5-2.8
		c-1.6-0.8-3.1-1.7-4.7-2.5c-1.7-0.9-3.5-1.7-5.3-2.2c-1.3-0.3-3.2-0.5-4,1c0,0.1,0,0.2,0,0.2c0,0.1,0.1,0.1,0.1,0.2
		c2,1.5,4.4-0.1,6.3-0.8c2.8-1.1,5.8-1.4,8.7-1.9c2.1-0.3,4.2-0.8,6.1-1.9c0.9-0.5,1.8-1.2,2.5-2c0.5-0.4,0.9-0.9,1.2-1.4
		c0.3-0.5,0.6-1.1,0.8-1.6c0.5-1.2,1-2.5,2.4-2.9c1.1-0.4,2.2-0.4,3-1.2c0.3-0.3,0.6-0.7,0.7-1.1s0.1-0.9,0-1.3
		c-0.1-0.3-0.3-0.7-0.5-0.9c-0.2-0.3-0.5-0.5-0.9-0.6c-0.7-0.2-1.2,0.3-1.4,0.9c-0.1,0.2-0.2,0.5-0.1,0.8c0,0.3,0.2,0.5,0.4,0.7
		c0.5,0.2,1.1,0.3,1.6,0.1c0.6-0.1,1.2-0.3,1.8-0.5c1.6-0.6,3.1-1.4,4.8-0.8c0.8,0.3,1.6,0.8,2.2,1.4c0.8,0.6,1.5,1.3,2.4,1.9
		c0.5,0.3,0.9,0.6,1.4,0.9c0,0,0.1,0,0.2,0s0.1,0,0.2,0c0.3-0.2,0.6-0.5,0.8-0.8c0,0,3.8-9.5-3.1-12.6c-1.4-0.7-3.4-0.6-4.8-0.5
		c-1.8,0.1-3.5,0.4-5.3,0.6c-1.2,0.2-2.5,0.3-3.7,0.2c-1.5-0.1-3.1-0.4-4.6-0.5c-1.4-0.2-2.9-0.2-4.3,0.1c-0.2,0-0.5,0.1-0.7,0.3
		c-0.2,0.1-0.4,0.3-0.5,0.5c-8.8,11.1-2.1,11.5-2.1,11.5c0.2,0,0.5,0,0.7-0.1s0.4-0.2,0.6-0.4c0.6-0.5,1.2-1,1.6-1.6
		c0.6-0.7,1.1-1.5,1.5-2.4c0.5-0.8,0.9-1.7,1.1-2.7c0.1-0.9-0.3-1.9-0.4-2.7c-0.1-0.4,0-0.8,0.1-1.1c0.2-0.4,0.4-0.7,0.8-0.8
		c1.3-0.8,3.1-0.6,4.6-0.7c0.6,0,1.2-0.2,1.8-0.4c0.6-0.3,1-0.7,1.4-1.1c0.8-1.1,1.3-2.3,1.6-3.6c0.4-1.5,0.6-3.1,0.8-4.7
		c0.3-3.1,0.2-6.3-0.2-9.4c-0.1-0.5-0.2-1-0.3-1.5c0-0.1,0-0.1-0.1-0.1l-0.1-0.1c-0.1,0-0.1,0-0.2,0s-0.1,0-0.1,0.1
		c-3.7,2.9-1.8,8.4-3.9,12.1c-1,1.7-2.9,2.7-4.7,3.3c-2.2,0.7-4.5,1.2-6.8,1.5s-4.5,0.4-6.8,0.5l0.3,0.2c-0.3-2,0.8-3.8,1.9-5.3
		c1.2-1.7,2.7-3.2,3.7-5.1c0.5-0.9,0.8-1.9,0.9-3v-0.1l-0.1-0.1c0,0-0.1,0-0.1-0.1h-0.1c-0.6,0.2-1.2,0.4-1.7,0.8s-0.9,0.9-1.2,1.4
		l0.5,0.3c0.3-0.5,0.5-1,0.6-1.5c0.1-0.6,0.4-1.1,0.8-1.5c0.6-0.4,1.3-0.5,1.9-0.5c0.6-0.1,1.2-0.3,1.7-0.7c1.7-1.4,2-3.9,1.9-5.9
		c0-1.2-0.3-2.3-0.8-3.4c0-0.1-0.1-0.1-0.1-0.1c-0.1,0-0.1,0-0.2,0c-2.5,0.4-5.1,0.5-7.2,2.1c-1.7,1.5-3.1,3.3-4,5.3
		c-2.1,3-3,7-4.8,10.7c-0.7,1.4-1.4,2.9-2,4.3c-0.6,1.3-1.1,2.7-1.3,4.2c-0.1,0.6-0.1,1.1,0.1,1.7c0.1,0.6,0.4,1.1,0.8,1.5
		c1,1.1,2.7,1.3,4.1,1.3c2.7,0.1,5.2-0.9,7.7-1.9c2.7-1,5.6-1.6,8.3-2.4c1.2-0.4,2.4-1,3.6-1.3c1-0.3,2-0.5,2.9-0.6
		c1.9-0.2,3.9-0.4,5.6-1.2c0.7-0.3,1.4-0.9,1.8-1.6c0.2-0.3,0.3-0.7,0.3-1.1c0.2-1.3,0.3-2.6,0.3-3.9c0-1.6,0-3.3-0.1-4.9
		c0-1.4-0.2-2.7-0.5-4.1c-0.1-0.5-0.4-1.7-1.1-1.6c-0.8,0.2-1.1,1.4-1.2,2.1c-0.3,1.4-0.4,2.9-0.5,4.4c-0.1,1.7-0.1,3.4,0,5
		c0,1.2,0.1,2.4,0.2,3.7s0.4,2.8,1.7,3.4c0.7,0.3,1.4,0.4,2.1,0.4c1.3,0.1,2.6,0.3,3.9,0.5c2.6,0.4,5.3,1,7.8,1.8
		c2.8,0.8,5.5,1.8,8.4,2.3c2.1,0.3,5.5,0.6,6.2-2.1c0.1-0.7,0.1-1.4,0-2.1c-0.2-1.1-0.5-2.3-0.9-3.3c-1-2.4-2.1-4.8-3.4-7.1
		c-1.2-2.1-2.4-4.2-3.4-6.4c-0.8-1.9-1.5-3.8-2.4-5.7c-0.8-1.6-1.8-3.4-3.4-4.4c-0.9-0.6-1.9-0.9-3-0.8c-1.9,0.3-2.7,2.3-3,3.9
		c-0.4,2.2-0.3,4.4,0.4,6.5c0.4,1.4,1.3,3.4,3,3.5c0.4,0,0.8-0.1,1.2-0.3c0.4-0.2,0.7-0.4,1-0.8h-0.4c0.9,0.8,1.7,1.8,2.4,2.8
		c1.1,1.4,2.2,2.9,3.2,4.5c0.4,0.6,0.8,1.3,1.2,2c0.1,0.2,0.2,0.5,0.3,0.7c0,0.1,0.1,0.3,0.1,0.5c0,0.1,0,0,0,0.1
		c0,0-0.1,0.1-0.2,0.1c-0.2,0.1-0.4,0.2-0.7,0.2c-0.7,0.1-1.4,0.2-2.1,0.2c-1.8,0.1-3.7,0-5.5,0c-1.2,0-2.3-0.1-3.5-0.2
		c-1.4-0.2-2.9-0.5-4.2-1c-0.3-0.1-1.2-0.4-1.2-0.8l0,0c0.1-0.1,0.2-0.2,0.3-0.2c0.4-0.2,0.8-0.4,1.3-0.3c1.6,0,3.2,1.7,4.8,0.6
		c0.9-0.7,1.5-1.7,1.7-2.8c0.2-0.9,0.1-1.8-0.3-2.6c-0.8-1.7-2.5-2.8-3.4-4.4c-1.4-2.4-0.7-5-0.1-7.5c0.3-1.2,0.4-2.4,0.3-3.6
		c0-0.8-0.3-1.5-0.6-2.2c-0.7-1-1.4,0.3-1.7,0.9c-0.5,1.4-0.9,2.8-1.2,4.2c-0.3,1.4-0.6,2.8-0.8,4.2c-0.1,0.9-0.4,1.8-0.8,2.6
		c-0.5,0.8-1.3,1.4-2.3,1.7c-2.3,0.8-4.8,0.8-7.1,0c-1.1-0.4-2.2-1-3.1-1.7c-0.9-0.8-1.6-1.7-2.2-2.8c-0.4-1-0.4-2.2-0.3-3.2
		c0.1-1.1,0.2-2.1,0.1-3.2c0-0.4-0.2-0.9-0.4-1.3c-0.2-0.4-0.5-0.7-0.9-1c-0.1,0-0.2-0.1-0.2,0c-0.1,0-0.1,0.1-0.2,0.1
		C62.1,45.6,62,46,62,46.4c0,0.2,0.3,0.4,0.5,0.3c2-1,4.1-2.1,5.5-3.8c0.7-0.8,1.1-1.7,1.3-2.7c0.1-1.2-0.1-2.3-0.7-3.3
		c-0.2-0.3-0.7,0-0.5,0.3c1.7,3.2,5.9,4.1,9.2,3.2c0.8-0.2,1.5-0.5,2.1-1s1.2-1.1,1.5-1.8c0.3-0.9,0.6-1.8,0.7-2.8
		c0.1-0.6,0.3-1.2,0.5-1.7s0.5-1,0.8-1.4c0.6-0.8,1-1.7,0.7-2.7c-0.4-1-0.9-1.9-1.5-2.8c-0.3-0.4-0.6-0.9-0.8-1.3
		c-0.2-0.5-0.4-1-0.6-1.6c-0.4-1-0.9-1.8-1.5-2.6c-0.5-0.6-1.1-1.1-1.9-1.4c-0.7-0.3-1.5-0.5-2.3-0.5c-1.7,0.1-3.3,0.7-4.7,1.8
		c-1.5,1.1-2.9,2.6-3.8,4.2c-0.3,0.5-0.6,1-0.9,1.5c-0.4,0.4-0.8,0.8-1.2,1.2c-0.3,0.4-0.6,0.7-1.1,0.9c-0.3,0.1-0.6,0.3-0.9,0.6
		c-0.2,0.4-0.3,0.8-0.2,1.3c0,0.4,0.7,0.4,0.6,0c0-0.4-0.1-0.8,0.3-1.1c0.4-0.3,0.6-0.3,0.9-0.5c0.4-0.3,0.7-0.6,1-1
		c0.4-0.3,0.7-0.7,1-1.1c0.6-0.8,1-1.8,1.6-2.6c0.5-0.7,1.1-1.4,1.8-2c2.1-2,5.6-3.7,8.3-1.8c0.7,0.5,1.2,1.2,1.6,1.9
		c0.5,0.9,0.7,1.9,1.1,2.8c0.5,0.9,1,1.7,1.6,2.6c0.4,0.7,1,1.7,0.7,2.5c-0.3,1-1.1,1.8-1.5,2.7c-0.4,1-0.7,2-0.9,3.1
		c-0.1,0.7-0.4,1.4-0.8,2.1c-0.5,0.6-1,1-1.7,1.3c-2.8,1.4-6.9,1-9-1.5c-0.3-0.3-0.5-0.6-0.7-1L67.6,37c0.6,1,0.8,2.1,0.7,3.2
		c-0.2,0.9-0.7,1.8-1.4,2.5c-1.4,1.5-3.3,2.5-5.1,3.4l0.5,0.3c0-0.3,0.1-0.6,0.2-0.8l-0.4,0.1c0.8,0.6,1,1.7,1,2.7
		c0,1.1-0.2,2.3-0.2,3.4c0,1.1,0.2,2.1,0.8,3c0.6,1,1.4,1.9,2.4,2.7c1.9,1.4,4.2,2.1,6.5,2.1c2.1,0,4.7-0.4,6.1-2.1
		c1.2-1.5,1.2-3.6,1.6-5.3c0.3-1.3,0.5-2.6,0.8-3.8c0.2-0.7,0.4-1.4,0.6-2.1c0.1-0.4,0.3-0.9,0.6-1.2c0,0,0,0,0.1,0
		c0.1,0.2,0.2,0.4,0.3,0.7c0.3,1.1,0.4,2.3,0.2,3.4c-0.4,2.5-1.5,5-0.7,7.5c0.3,1,0.8,2,1.5,2.8c0.6,0.7,1.3,1.4,1.9,2.2
		c0.6,0.7,0.9,1.6,0.9,2.5c0,0.6-0.2,1.2-0.4,1.7c-0.3,0.5-0.6,1-1.1,1.4c-0.7,0.5-1.6,0.1-2.3-0.2c-0.8-0.4-1.7-0.6-2.6-0.5
		c-0.6,0.1-1.5,0.4-1.7,1c-0.2,0.5,0.3,0.9,0.6,1.1c1.3,0.7,2.8,1.1,4.3,1.3c1.1,0.2,2.2,0.3,3.2,0.3c1.8,0.1,3.6,0.2,5.4,0.1
		c0.9,0,1.7,0,2.6-0.1c0.6,0,1.2-0.2,1.8-0.4c1-0.5,0.5-1.5,0.2-2.3c-0.8-1.5-1.7-3-2.8-4.3c-1-1.4-2.1-2.8-3.2-4
		c-0.3-0.3-0.6-0.7-0.9-1c-0.1-0.1-0.1-0.1-0.2-0.1s-0.2,0-0.2,0.1c-0.2,0.3-0.5,0.5-0.8,0.7s-0.7,0.2-1,0.2
		c-0.3-0.1-0.6-0.2-0.8-0.4c-0.2-0.2-0.4-0.4-0.6-0.7c-1-1.6-1.4-3.6-1.4-5.5c-0.1-1.7,0.1-3.9,1.2-5.3c1.3-1.6,3.6-0.6,4.8,0.6
		c1.4,1.3,2.2,3.2,3,5s1.4,3.5,2.2,5.2c2.2,4.3,5.1,8.5,6.6,13.1c0.4,1,0.6,2,0.7,3c0.1,0.6,0,1.2-0.2,1.8c-0.2,0.4-0.6,0.8-1,1
		c-0.4,0.3-0.9,0.4-1.4,0.4c-1.3,0.1-2.7,0-4-0.3c-1.4-0.3-2.9-0.7-4.3-1.2c-1.1-0.3-2.3-0.7-3.4-1c-2.7-0.7-5.3-1.3-8.1-1.8
		c-1.1-0.2-2.3-0.3-3.5-0.4c-0.7,0-1.3-0.1-2-0.4c-1.1-0.6-1.2-2.1-1.2-3.1c-0.2-2.8-0.3-5.6-0.1-8.5c0-1.4,0.2-2.8,0.4-4.2
		c0.1-0.4,0.2-0.9,0.4-1.3c0.1-0.1,0.1-0.2,0.2-0.3l0.1-0.1l0.1,0.1c0.1,0.1,0.1,0.3,0.2,0.4c0.1,0.5,0.2,0.9,0.3,1.4
		c0.2,1.4,0.3,2.8,0.3,4.2c0,1.5,0,3.1,0,4.6c0,1.1-0.1,2.2-0.4,3.3c-0.3,1.2-1.6,1.9-2.8,2.3c-1.8,0.5-3.8,0.6-5.6,0.9
		c-0.9,0.1-1.7,0.4-2.6,0.7c-1.3,0.5-2.6,1-3.9,1.4c-1.3,0.4-2.7,0.7-4,1.1c-1.3,0.3-2.6,0.8-3.8,1.2c-2.3,0.9-4.7,1.7-7.2,1.6
		c-1.2-0.1-2.7-0.3-3.4-1.4c-0.6-0.9-0.5-2.1-0.3-3.2c0.4-1.4,0.9-2.7,1.5-4c0.6-1.4,1.3-2.7,1.9-4.1c0.7-1.5,1.2-3.1,1.8-4.7
		c0.7-2.1,1.5-4.2,2.5-6.1c1-1.9,2.2-3.9,4-5.1c2-1.4,4.5-1.4,6.8-1.8L60,47.5c0.8,2,0.9,4.2,0.4,6.2c-0.2,1-0.8,1.9-1.6,2.6
		c-1.1,0.7-2.5,0.2-3.5,1s-0.9,2.2-1.5,3.1c0,0.1-0.1,0.2,0,0.2c0,0.1,0.1,0.1,0.1,0.2c0.1,0,0.2,0.1,0.2,0c0.1,0,0.1-0.1,0.2-0.1
		c0.3-0.5,0.6-0.9,1.1-1.3c0.4-0.3,0.9-0.6,1.5-0.7l0.1-0.2c-0.1,2-1.5,3.8-2.7,5.3c-1.3,1.6-2.7,3.2-3.5,5.1c-0.4,1-0.6,2-0.4,3
		c0,0.1,0.1,0.1,0.1,0.2c0.1,0,0.1,0.1,0.2,0.1c2,0,4.1-0.1,6.1-0.4c2.4-0.2,4.7-0.7,6.9-1.4c1.9-0.6,3.8-1.4,5.1-2.8
		c1.5-1.7,1.7-4,1.9-6.1c0.3-2.5,0.4-5.2,2.5-6.9l-0.5-0.1c0.6,2.6,0.8,5.2,0.7,7.8c0,3-0.3,6.1-1.3,8.9c-0.3,1-0.9,1.9-1.8,2.6
		c-1.2,0.8-2.8,0.6-4.2,0.7c-1.3,0.1-2.9,0.3-3.6,1.6c-0.2,0.3-0.3,0.7-0.3,1c0,0.4,0,0.7,0.1,1.1c0.2,0.9,0.5,1.8,0.2,2.7
		c-0.6,1.7-1.6,3.3-2.8,4.7c-0.4,0.5-0.9,0.9-1.5,1.2c0,0-2.2,0.6-2.5-1.8C55.7,84,58.2,78.5,60.4,76.5z"/>
	<path class="st2" d="M60.3,45.6c0,0-0.3,1-1.3,1.1c-1,0-1-1.2-1-1.2S56.3,28.2,64,21s16.1-6.2,21.2,2.1s4.9,20.8,4.9,20.8
		S90,45.5,88.7,45C87,44.4,88,43.6,88,43.6"/>
	<path class="st2" d="M84.5,42.7c0,0,3.3-6.3,1.4-12s-1.8-10-8.6-11.3"/>
</g>
<path class="st3" d="M102.1,139.5H42.2c-7.7,0-14.1-6.3-14.1-14.1v0c0-7.7,6.3-14.1,14.1-14.1h59.9c7.7,0,14.1,6.3,14.1,14.1v0
	C116.2,133.2,109.8,139.5,102.1,139.5z"/>
<g>
	<path class="st4" d="M36.8,127.6l-1,3l-1.3,0l3.2-9.5l1.5,0l3.3,9.5l-1.4,0l-1.1-3L36.8,127.6z M39.9,126.6l-1-2.7
		c-0.2-0.6-0.4-1.2-0.5-1.7l0,0c-0.1,0.6-0.3,1.2-0.5,1.7l-1,2.7L39.9,126.6z"/>
	<path class="st4" d="M49.4,128.6c0,0.7,0,1.4,0.1,1.9l-1.1,0l-0.1-1.2l0,0c-0.3,0.6-1.1,1.3-2.2,1.3c-1.1,0-2.3-0.6-2.3-3l0-4
		l1.3,0l0,3.8c0,1.3,0.4,2.2,1.5,2.2c0.9,0,1.5-0.6,1.7-1.2c0.1-0.2,0.1-0.4,0.1-0.7l0-4.2l1.3,0l0,5L49.4,128.6z"/>
	<path class="st4" d="M51.3,129.3c0.4,0.2,1.1,0.5,1.7,0.5c0.9,0,1.4-0.5,1.4-1.1s-0.4-1-1.3-1.3c-1.3-0.5-1.9-1.2-1.9-1.9
		c0-1.1,0.9-2,2.3-2c0.7,0,1.3,0.2,1.7,0.4l-0.3,0.9c-0.3-0.2-0.8-0.4-1.4-0.4c-0.8,0-1.2,0.4-1.2,1c0,0.6,0.4,0.8,1.3,1.2
		c1.2,0.5,1.9,1.1,1.9,2c0,1.2-1,2-2.5,2c-0.8,0-1.5-0.2-1.9-0.5L51.3,129.3z"/>
	<path class="st4" d="M62.9,123.7c0,0.5-0.1,1.1-0.1,1.9l0,4c0,1.5-0.3,2.5-1,3.1c-0.7,0.6-1.7,0.8-2.5,0.8c-0.8,0-1.7-0.2-2.3-0.6
		l0.3-1c0.5,0.3,1.2,0.6,2,0.6c1.3,0,2.2-0.7,2.2-2.4l0-0.8l0,0c-0.4,0.7-1.2,1.2-2.2,1.2c-1.7,0-2.9-1.5-2.9-3.3
		c0-2.3,1.5-3.7,3.1-3.7c1.2,0,1.9,0.6,2.1,1.2l0,0l0.1-1.1l1.2,0L62.9,123.7z M61.7,126.4c0-0.2,0-0.4-0.1-0.6
		c-0.2-0.7-0.9-1.4-1.7-1.4c-1.2,0-2,1-2,2.6c0,1.4,0.7,2.4,2,2.4c0.8,0,1.5-0.5,1.7-1.3c0.1-0.2,0.1-0.5,0.1-0.7L61.7,126.4z"/>
	<path class="st4" d="M65.6,127.4c0,1.7,1.1,2.4,2.3,2.4c0.9,0,1.5-0.2,1.9-0.4l0.2,0.9c-0.5,0.2-1.2,0.4-2.3,0.4
		c-2.1,0-3.4-1.4-3.4-3.5c0-2,1.3-3.7,3.2-3.7c2.2,0,2.8,1.9,2.8,3.2c0,0.3,0,0.5,0,0.6l-4.8,0L65.6,127.4z M69.3,126.4
		c0-0.8-0.3-2-1.7-2c-1.3,0-1.9,1.2-1.9,2L69.3,126.4z"/>
	<path class="st4" d="M72,130.5c0-0.5,0.1-1.2,0.1-1.7l0-8.3l1.3,0l0,4.3l0,0c0.5-0.8,1.3-1.3,2.3-1.3c1.7,0,2.9,1.5,2.9,3.5
		c0,2.4-1.5,3.7-3.1,3.7c-1,0-1.7-0.4-2.3-1.3l0,0l-0.1,1.2l-1.1,0L72,130.5L72,130.5z M73.3,127.7c0,0.2,0,0.3,0.1,0.5
		c0.2,0.9,1,1.5,1.9,1.5c1.3,0,2-1.1,2-2.6c0-1.4-0.7-2.5-2-2.5c-0.9,0-1.7,0.6-1.9,1.5c0,0.1-0.1,0.3-0.1,0.5L73.3,127.7
		L73.3,127.7L73.3,127.7z"/>
	<path class="st4" d="M85.9,128.6c0,0.7,0,1.4,0.1,1.9l-1.1,0l-0.1-1.2l0,0c-0.3,0.6-1.1,1.3-2.2,1.3c-1.1,0-2.3-0.6-2.3-3l0-4
		l1.3,0l0,3.8c0,1.3,0.4,2.2,1.5,2.2c0.9,0,1.5-0.6,1.7-1.2c0.1-0.2,0.1-0.4,0.1-0.7l0-4.2l1.3,0l0,5L85.9,128.6z"/>
	<path class="st4" d="M92.9,130.3c-0.3,0.2-1.1,0.4-1.9,0.4c-2,0-3.4-1.4-3.4-3.5c0-2.1,1.5-3.7,3.7-3.7c0.8,0,1.4,0.2,1.7,0.4
		l-0.3,1c-0.3-0.2-0.8-0.3-1.5-0.3c-1.5,0-2.4,1.2-2.4,2.6c0,1.5,1.1,2.5,2.4,2.5c0.7,0,1.2-0.2,1.5-0.4L92.9,130.3z"/>
	<path class="st4" d="M94.4,120.5l1.3,0l0,4.2l0,0c0.2-0.4,0.5-0.7,0.9-0.9c0.4-0.2,0.8-0.4,1.3-0.4c1,0,2.4,0.6,2.4,2.9l0,4.1
		l-1.3,0l0-4c0-1.1-0.4-2-1.5-2c-0.8,0-1.5,0.6-1.7,1.3c-0.1,0.2-0.1,0.4-0.1,0.6l0,4.2l-1.3,0L94.4,120.5L94.4,120.5z"/>
	<path class="st4" d="M103.7,121.7l0,1.9l1.7,0l0,1l-1.7,0l0,3.7c0,0.9,0.2,1.4,1,1.4c0.3,0,0.6,0,0.7-0.1l0.1,1
		c-0.2,0.1-0.6,0.2-1.1,0.2c-0.6,0-1.1-0.2-1.4-0.5c-0.4-0.4-0.5-1-0.5-1.7l0-4l-1.1,0l0-1l1.1,0l0-1.7L103.7,121.7z"/>
	<path class="st4" d="M106.6,129.8c0-0.5,0.4-0.9,0.9-0.9c0.5,0,0.9,0.4,0.9,0.9c0,0.5-0.3,0.9-0.9,0.9
		C107,130.7,106.6,130.3,106.6,129.8z M107,127.7l-0.2-6.8l1.4,0l-0.2,6.8L107,127.7z"/>
</g>
</svg>
