<?xml version="1.0" encoding="utf-8"?>
<!-- Generator: Adobe Illustrator 26.0.2, SVG Export Plug-In . SVG Version: 6.00 Build 0)  -->
<svg version="1.1" id="Ebene_1" xmlns="http://www.w3.org/2000/svg" xmlns:xlink="http://www.w3.org/1999/xlink" x="0px" y="0px"
	 viewBox="0 0 100 100" style="enable-background:new 0 0 100 100;" xml:space="preserve">
<style type="text/css">
	.st0{fill:#FFB465;fill-opacity:0.1;}
	.st1{fill:none;stroke:#379F8F;stroke-miterlimit:10;}
	.st2{fill:none;stroke:#379F8F;stroke-linecap:round;stroke-miterlimit:10;}
</style>
<g>
	<path class="st0" d="M92.8,65c-5.1,27.2-34.2,31-48.1,29.5C-17.6,82,0.4,2.8,40.6,3.1C80.9,3.4,99.2,31,92.8,65z"/>
	<path class="st0" d="M76.1,36.8c-2.2,11.9-14.9,13.6-21,12.9c-27.3-5.4-19.4-40-1.8-39.9C70.8,9.9,78.9,22,76.1,36.8z"/>
	<path class="st1" d="M57.2,49.4c10.2,0,18.4-8.2,18.4-18.4s-8.2-18.4-18.4-18.4S38.8,20.8,38.8,31S47.1,49.4,57.2,49.4z"/>
	<path class="st1" d="M57.2,46c8.4,0,15.3-6.9,15.3-15.3s-6.9-15.3-15.3-15.3c-8.4,0-15.3,6.9-15.3,15.3S48.7,46,57.2,46z"/>
	<path class="st1" d="M57.2,40.7c5.2,0,9.4-4.2,9.4-9.4S62.4,22,57.2,22s-9.4,4.2-9.4,9.4S52.1,40.7,57.2,40.7z"/>
	<path class="st1" d="M57.2,35.2c2.4,0,4.3-1.9,4.3-4.3c0-2.4-1.9-4.3-4.3-4.3S53,28.6,53,30.9C52.9,33.3,54.9,35.2,57.2,35.2z"/>
	<path class="st2" d="M33.8,29c0,0-9.2,3.1-9.8,11.5s1.5,8.9-2.4,12.6s-5.1,7.1-1.8,7.1s4.5,1.9,4.5,5.1c0,3.2-0.7,5.6-0.7,6.3
		c0,0.7-0.5,4.4,4.7,4.4s8.9-2.1,9.2-0.7c0.4,1.3,0.3,6.4,3.5,6.2s19,0,19,0s2.2,0.1,1.2-3.4c-0.9-3.5-0.8-9.8,2.2-15.4
		s4.4-7.5,4.8-11.5"/>
	<path class="st2" d="M24.2,67.4c0,0,3.6,1.6,5.1-0.4"/>
</g>
</svg>
