<?xml version="1.0" encoding="utf-8"?>
<!-- Generator: Adobe Illustrator 26.0.2, SVG Export Plug-In . SVG Version: 6.00 Build 0)  -->
<svg version="1.1" id="Ebene_1" xmlns="http://www.w3.org/2000/svg" xmlns:xlink="http://www.w3.org/1999/xlink" x="0px" y="0px"
	 viewBox="0 0 100 100" style="enable-background:new 0 0 100 100;" xml:space="preserve">
<style type="text/css">
	.st0{fill:#FFB465;fill-opacity:0.1;}
	.st1{fill:none;stroke:#379F8F;stroke-linecap:round;stroke-miterlimit:10;}
</style>
<g>
	<path class="st0" d="M19.1,16.4C36.5-5.2,64,5.2,75.5,13.1C124.8,53.6,71.5,115,36,95.8C0.5,76.5-2.6,43.5,19.1,16.4z"/>
	<path class="st0" d="M43.4,28c2.6-3.3,6.9-1.7,8.7-0.5c7.6,6.2-0.6,15.6-6.1,12.7C40.5,37.3,40.1,32.2,43.4,28z"/>
	<path class="st0" d="M54.3,45.2c1.8-2.2,4.6-1.2,5.8-0.3c5.1,4.2-0.4,10.5-4.1,8.5C52.4,51.4,52.1,48,54.3,45.2z"/>
	<path class="st1" d="M73.4,43.8c-1.7,6.7-2.8,7.5-5.8,13.1S65,67.2,65.9,70.7c1,3.5-1.2,3.4-1.2,3.4s-15.9-0.2-19.1,0
		c-3.2,0.2-3.1-4.9-3.5-6.2c-0.4-1.3-4,0.7-9.3,0.7s-4.7-3.8-4.7-4.4c0-0.7,0.7-3.1,0.7-6.3c0-3.2-1.3-5.1-4.5-5.1s-2-3.3,1.9-7.1
		c3.9-3.8,1.9-4.2,2.4-12.6c0.5-8.5,9.8-11.5,9.8-11.5s14.9-7.2,28,2C76.7,30.7,73.4,43.8,73.4,43.8z"/>
	<path class="st1" d="M28.7,59.8c0,0,3.6,1.6,5.1-0.4"/>
	<path class="st1" d="M48.4,38.9c3,0,5.4-2.4,5.4-5.4s-2.4-5.4-5.4-5.4S43,30.6,43,33.5C43,36.5,45.4,38.9,48.4,38.9z"/>
	<path class="st1" d="M52.3,29.7l2.7-3.1"/>
	<path class="st1" d="M53.8,33.5l3.8,0.1"/>
	<path class="st1" d="M52.4,37.4l2.2,2.4"/>
	<path class="st1" d="M48.3,39.1l0.1,3.3"/>
	<path class="st1" d="M44.4,37.3L42,40"/>
	<path class="st1" d="M42.9,33.6l-3.4-0.1"/>
	<path class="st1" d="M45,29.5l-2-2.2"/>
	<path class="st1" d="M48.9,27.9l-0.1-3.1"/>
	<path class="st1" d="M55.6,53.2c1.9,0,3.4-1.5,3.4-3.4s-1.5-3.4-3.4-3.4s-3.4,1.5-3.4,3.4C52.2,51.7,53.7,53.2,55.6,53.2z"/>
	<path class="st1" d="M58,47.4l1.7-2"/>
	<path class="st1" d="M58.9,49.8l2.4,0.1"/>
	<path class="st1" d="M58.1,52.2l1.4,1.5"/>
	<path class="st1" d="M55.4,53.3l0.1,2.1"/>
	<path class="st1" d="M53.1,52.2l-1.6,1.7"/>
	<path class="st1" d="M52.1,49.9l-2.1-0.1"/>
	<path class="st1" d="M53.4,47.3l-1.3-1.4"/>
	<path class="st1" d="M55.9,46.3l-0.1-2"/>
</g>
</svg>
