<?xml version="1.0" encoding="utf-8"?>
<!-- Generator: Adobe Illustrator 26.0.2, SVG Export Plug-In . SVG Version: 6.00 Build 0)  -->
<svg version="1.1" id="Ebene_1" xmlns="http://www.w3.org/2000/svg" xmlns:xlink="http://www.w3.org/1999/xlink" x="0px" y="0px"
	 viewBox="0 0 269.3 146" style="enable-background:new 0 0 269.3 146;" xml:space="preserve">
<style type="text/css">
	.st0{fill:#88DBB1;fill-opacity:0.2;}
	.st1{fill:#379F8F;}
	.st2{fill:none;stroke:#379F8F;stroke-width:0.5;stroke-linecap:round;stroke-linejoin:round;}
	.st3{fill:#E7B480;}
	.st4{fill:#3A2110;}
</style>
<g id="Ebene_2_00000079483575094550817930000001226310691713041552_">
	<path class="st0" d="M73,0L73,0c40.3,0,73,32.7,73,73l0,0c0,40.3-32.7,73-73,73l0,0c-40.3,0-73-32.7-73-73l0,0C0,32.7,32.7,0,73,0z
		"/>
</g>
<g id="Ebene_1_00000018924994781117323370000005887659099098769561_">
	<path class="st1" d="M60.4,82.5c1-0.8,2-0.9,2.8-0.9c1.5,0,3.1,0.1,4.6,0.3c1.2,0.2,2.3,0.3,3.5,0.3c1.4-0.1,2.9-0.3,4.3-0.5
		c1.7-0.3,3.4-0.4,5-0.4c1.2,0,2.3,0.3,3.6,1.2c4.2,2.7,2.2,10.8,2.2,10.8c-0.1,0.4-0.3,0.7-0.6,0.9h0.3c-1.7-0.9-3-2.2-4.6-3.3
		c-0.7-0.5-1.4-0.8-2.2-1c-0.8-0.2-1.6-0.1-2.4,0.1c-1.2,0.3-2.2,0.9-3.4,1.2c-0.5,0.2-1,0.2-1.5,0.1c-0.4-0.2-0.1-1,0.2-1.2
		c0.4-0.4,1.1,0.3,1.2,0.6c0.2,0.4,0.3,0.8,0.2,1.2s-0.3,0.8-0.6,1c-0.8,0.7-2,0.7-2.9,1.1c-1,0.5-1.7,1.4-2.1,2.4
		c-0.4,1.1-1,2.1-1.7,3c-0.7,0.8-1.5,1.5-2.4,2.1c-1.6,1-3.5,1.7-5.4,1.9c-3,0.5-6,0.8-8.8,1.7c-1.2,0.4-2.3,0.9-3.4,1.4
		c-1.2,0.4-2.4,0.7-3.4-0.1l0.1,0.4c0.6-1.2,2.1-1,3.2-0.7c1.8,0.5,3.5,1.2,5.1,2c1.5,0.8,3,1.6,4.6,2.5c2,1,4.1,1.8,6.3,2.4
		c1.4,0.5,3,1,4.2,2c0.9,0.9,1.6,1.9,2.3,3c0,0.1,0.1,0.1,0.2,0.1s0.2,0,0.2,0c2.3-1.1,1.1-3.8-0.2-5.2l-0.2,0.5
		c1.6,0,3.1,0.6,4.7,0.5c0.6,0,1.3-0.3,1.8-0.6c0.5-0.4,1-0.8,1.3-1.4c0.3-0.5,0.5-1,0.8-1.5c0.4-0.6,0.9-1,1.6-1.2
		c1.7-0.5,3.6,0.2,5.2,0.9c1.4,0.7,2.6,1.8,4,2.5c1.4,0.8,3,1,4.6,1.1c1.5,0.1,3,0.6,4.2,1.5c0.4,0.3,0.9,0.8,0.9,1.2
		c0,0.3-0.3,0.6-0.7,0.7c-0.6,0.3-1.2,0.4-1.8,0.5c-1.6,0.3-3.3,0.4-4.9,0.4c-1.2,0-2.5,0-3.7-0.1c-3.3-0.3-6.6-1.4-9.9-0.9
		c-1.7,0.3-3.4,0.9-5.1,1.3c-1.9,0.4-3.8,0.6-5.7,0.7c-3.9,0.2-7.8,0.1-11.6,0c-1.9-0.1-3.8-0.2-5.8-0.1c-1.8,0-3.6,0.1-5.4,0.2
		c-1.7,0.1-3.5,0-5.2-0.3c-1-0.2-2-0.8-2.6-1.7c-0.8-1-1.4-2.2-2.1-3.2c-0.8-1.2-1.5-2.4-2.1-3.7c-0.6-1.2-0.7-2.5-0.3-3.8
		c0.4-1.2,1.5-2,2.6-2.6c2.3-1.3,4.7-2.2,7.3-2.7c2.7-0.6,5.4-1,8.2-1.2c1.2-0.1,2.4-0.2,3.5-0.2c1.2,0,2.3,0.2,3.5,0.1
		s2.1-0.5,2.2-1.8c0.1-0.5,0.5-0.8,0.7-1.3c0.1-0.3,0.2-0.4,0.5-0.6c1.4-0.7,2.9-0.2,4.3-0.1c1.9,0.2,3.7,0.1,5.6,0.1
		c2,0,3.9,0.1,5.9,0.1s3.8,0.2,5.7,0.3c0.9,0,1.9,0,2.8,0c0.7-0.1,1.4-0.2,2.1-0.4c0.7-0.2,1.5-0.3,2,0.3c0.1,0.1,0.2,0.3,0.3,0.5
		c0.1,0.2,0.1,0.4,0.1,0.6c0,0.3,0,0.6,0,0.9c0.1,0.2,0.2,0.3,0.3,0.4c0.1,0.1,0.3,0.2,0.4,0.3c1.3,0.5,2.9,0.4,4.2,0.3
		c2.7-0.2,5.3-0.8,8-0.8c1.6,0,3.2,0.1,4.7,0.3c1.9,0.2,3.7,0.6,5.5,1.1c1.5,0.5,3.1,1.2,4.1,2.4c0.5,0.6,0.8,1.3,0.8,2.1
		c0.1,0.7,0,1.5-0.4,2.2c-0.9,2.3-2.9,3.7-5.1,4.6c-2.3,0.9-4.8,1.6-7.3,2c-1.5,0.3-3,0.5-4.5,0.7c-1.9,0.1-3.8,0.1-5.7,0.1
		c-0.9,0-1.7-0.1-2.6-0.1c-0.8,0-1.5,0.1-2.2,0.1c-1.5,0.1-3.2,0.2-4.6-0.5c-2.1-1-2.6-4.2-1.5-6.1c0.6-0.9,1.5-1.6,2.6-2
		c1.2-0.4,2.5-0.7,3.7-0.9c2.4-0.3,4.8-0.4,7.2-0.2c1.3,0.2,2.6,0.6,3.8,1.1c1.2,0.4,2.4,0.9,3.7,0.8c0.8-0.1,2.3-0.4,2.2-1.5
		s-1.6-1.9-2.5-2.2c-2.7-1.2-5.8-1.1-8.7-0.8c-2.9,0.4-5.7,1.1-8.5,1.6c-2.1,0.3-5,0.5-6.5,2.3c-0.9,1-0.8,2.2-0.5,3.4
		c0.2,0.6,0.3,1.3,0.2,2c-0.2,0.7-0.9,1.6-1.6,1.6c-0.6,0-1-0.6-1.2-1c-0.2-0.6-0.3-1.3-0.2-2c0.3-1.4,1-2.7,0.7-4.3
		c0-0.1,0-0.1-0.1-0.1l-0.1-0.1c-1.6-0.2-2.2,1.2-2.6,2.5c-0.2,0.8-0.4,1.5-0.7,2.2c-0.2,0.4-0.5,0.8-1,1.1
		c-0.4,0.3-0.9,0.4-1.4,0.5c-1.2,0.1-2.4-0.5-3.6-0.8c-1.3-0.4-2.7-0.7-4.1-1c-2.4-0.6-4.8-0.9-7.3-0.9c-1.1,0.1-2.3,0.1-3.4,0
		c-1-0.1-2.1-0.4-2.8-1.2l-0.1,0.4c1.3-1,3.1-1.3,4.6-1.5c1.7-0.2,3.4-0.3,5.1-0.2c0.8,0,1.6,0.1,2.4,0.2c0.7,0.1,1.5-0.1,2.2-0.4
		c0.8-0.4,1.6-0.9,2.4-1.5c0.5-0.4,1-0.7,1.6-0.9c0.3-0.1,0.5-0.2,0.8-0.1c0.3,0,0.5,0.1,0.8,0.2c1,0.5,1.9,1.1,2.7,1.8
		c0.3,0.2,0.8-0.2,0.4-0.4l0,0c-0.8-0.7-1.6-1.2-2.5-1.7c-0.5-0.3-1.1-0.4-1.6-0.4c-1.3,0.1-2.4,1.2-3.5,1.9c-0.7,0.6-1.6,1-2.5,1.1
		c-0.9,0-1.7-0.1-2.5-0.2c-1.7-0.1-3.4,0-5.1,0.2c-1.8,0.2-3.9,0.5-5.4,1.6c-0.1,0-0.1,0.1-0.1,0.2s0,0.2,0,0.2
		c1.2,1.6,3.4,1.6,5.2,1.6c1,0,2-0.1,2.9-0.1c1.3,0.1,2.7,0.3,4,0.6c1.4,0.3,2.9,0.6,4.3,1c1.2,0.3,2.5,0.8,3.7,1.1
		c0.6,0.2,1.2,0.2,1.8,0.1c0.6-0.1,1.1-0.3,1.6-0.7c0.6-0.5,1-1.1,1.2-1.8c0.3-0.8,0.5-1.7,0.8-2.5c0.3-0.7,0.7-1.4,1.6-1.2
		l-0.2-0.2c0.4,1.6-0.7,3.1-0.8,4.7c0,1.1,0.4,2.6,1.5,3c1.3,0.4,2.5-1.1,2.7-2.2c0.2-1.4-0.7-2.7-0.4-4c0.3-1.2,1.5-1.9,2.6-2.2
		c1.2-0.3,2.4-0.6,3.7-0.7c2.9-0.5,5.8-1.2,8.8-1.6s6.4-0.5,9.1,1.1c0.6,0.2,1,0.7,1.4,1.2c0.2,0.5-0.4,0.7-0.8,0.9
		c-1.3,0.4-2.7-0.1-3.9-0.5c-1.3-0.5-2.6-0.9-4-1.2c-1.1-0.1-2.2-0.2-3.3-0.2c-2.7-0.1-5.3,0.3-7.9,1.1c-1.1,0.3-2,0.9-2.8,1.7
		c-0.7,0.9-1.1,2.1-1.1,3.2c0,1.2,0.4,2.3,1.1,3.3c0.4,0.5,0.9,0.9,1.4,1.2c0.6,0.3,1.2,0.5,1.8,0.5c1.6,0.1,3.2,0.1,4.8-0.1
		c1.8-0.1,3.6,0.1,5.5,0.1c3.1,0,6.3-0.4,9.3-1.1c4.4-0.9,10.3-2.5,11.6-7.6c0.2-0.7,0.2-1.5,0-2.2s-0.6-1.4-1.1-2
		c-1.2-1.2-2.8-2-4.5-2.5c-3.4-1-6.9-1.4-10.4-1.4c-2.9,0-5.8,0.8-8.7,0.9c-0.8,0-1.5,0-2.3-0.1c-0.3-0.1-0.9-0.1-1-0.5
		c0-0.3,0-0.6,0-0.8c0-0.4-0.2-0.8-0.5-1.2c-1-1.2-2.4-0.7-3.6-0.4c-0.9,0.2-1.8,0.2-2.7,0.2c-1,0-2,0-3-0.1c-4-0.2-8-0.3-12-0.4
		c-1,0-2,0-2.9-0.1c-0.8,0-1.5-0.2-2.3-0.2c-0.7-0.1-1.4,0-2.1,0.1c-0.5,0.1-0.9,0.3-1.2,0.6c-0.2,0.3-0.3,0.6-0.5,0.9
		c-0.2,0.2-0.3,0.4-0.4,0.7c-0.1,0.2,0,0.5-0.1,0.7c-0.2,0.6-0.9,0.8-1.5,0.9c-0.7,0-1.3,0-2,0c-2.4-0.1-4.9,0.1-7.3,0.4
		c-2.8,0.3-5.6,0.8-8.3,1.6c-2.4,0.7-4.8,1.7-6.7,3.3c-0.5,0.4-0.9,0.9-1.2,1.5c-0.3,0.6-0.4,1.2-0.4,1.8c0.1,1.4,0.5,2.7,1.2,3.9
		c0.7,1.3,1.5,2.5,2.3,3.7c0.6,1,1.3,2,2.1,2.9c0.8,0.8,1.9,1.3,3,1.4c1.8,0.2,3.6,0.3,5.5,0.2c1.9-0.1,3.7-0.2,5.6-0.2
		c2,0,4,0.1,6,0.2c4,0.2,7.9,0.1,11.9-0.2c1.9-0.1,3.7-0.4,5.5-0.9s3.6-1.1,5.5-1.1c3,0,5.8,0.9,8.8,1.1c1.4,0.1,2.9,0.1,4.3,0
		c1.7,0,3.3-0.2,5-0.6c0.9-0.2,2.3-0.8,2-1.9c-0.2-0.6-0.6-1.1-1.1-1.4c-1.1-0.9-2.5-1.4-4-1.6c-1.8-0.2-3.4-0.3-5-1.2
		c-1.4-0.8-2.6-1.9-4.2-2.6c-1.5-0.7-3.3-1.3-5-0.9c-0.6,0.1-1.2,0.4-1.7,0.8s-0.9,0.9-1.1,1.5c-0.3,0.5-0.6,1-0.9,1.4
		c-0.3,0.3-0.6,0.5-1,0.7s-0.8,0.3-1.1,0.3c-1.6,0.1-3-0.5-4.6-0.5c-0.1,0-0.1,0-0.2,0.1c-0.1,0-0.1,0.1-0.1,0.1c0,0.1,0,0.1,0,0.2
		s0,0.1,0.1,0.2c1,1.1,2.2,3.4,0.3,4.3l0.4,0.1c-0.6-1-1.3-1.9-2.1-2.8c-0.9-0.9-2-1.5-3.2-1.9c-2.5-1-5.1-1.5-7.5-2.8
		c-1.6-0.8-3.1-1.7-4.7-2.5c-1.7-0.9-3.5-1.7-5.3-2.2c-1.3-0.3-3.2-0.5-4,1c0,0.1,0,0.2,0,0.2c0,0.1,0.1,0.1,0.1,0.2
		c2,1.5,4.4-0.1,6.3-0.8c2.8-1.1,5.8-1.4,8.7-1.9c2.1-0.3,4.2-0.8,6.1-1.9c0.9-0.5,1.8-1.2,2.5-2c0.5-0.4,0.9-0.9,1.2-1.4
		c0.3-0.5,0.6-1.1,0.8-1.6c0.5-1.2,1-2.5,2.4-2.9c1.1-0.4,2.2-0.4,3-1.2c0.3-0.3,0.6-0.7,0.7-1.1s0.1-0.9,0-1.3
		c-0.1-0.3-0.3-0.7-0.5-0.9c-0.2-0.3-0.5-0.5-0.9-0.6c-0.7-0.2-1.2,0.3-1.4,0.9c-0.1,0.2-0.2,0.5-0.1,0.8c0,0.3,0.2,0.5,0.4,0.7
		c0.5,0.2,1.1,0.3,1.6,0.1c0.6-0.1,1.2-0.3,1.8-0.5c1.6-0.6,3.1-1.4,4.8-0.8c0.8,0.3,1.6,0.8,2.2,1.4c0.8,0.6,1.5,1.3,2.4,1.9
		c0.5,0.3,0.9,0.6,1.4,0.9c0,0,0.1,0,0.2,0s0.1,0,0.2,0c0.3-0.2,0.6-0.5,0.8-0.8c0,0,3.8-9.5-3.1-12.6c-1.4-0.7-3.4-0.6-4.8-0.5
		c-1.8,0.1-3.5,0.4-5.3,0.6c-1.2,0.2-2.5,0.3-3.7,0.2c-1.5-0.1-3.1-0.4-4.6-0.5c-1.4-0.2-2.9-0.2-4.3,0.1c-0.2,0-0.5,0.1-0.7,0.3
		c-0.2,0.1-0.4,0.3-0.5,0.5c-8.8,11.1-2.1,11.5-2.1,11.5c0.2,0,0.5,0,0.7-0.1s0.4-0.2,0.6-0.4c0.6-0.5,1.2-1,1.6-1.6
		c0.6-0.7,1.1-1.5,1.5-2.4c0.5-0.8,0.9-1.7,1.1-2.7c0.1-0.9-0.3-1.9-0.4-2.7c-0.1-0.4,0-0.8,0.1-1.1c0.2-0.4,0.4-0.7,0.8-0.8
		c1.3-0.8,3.1-0.6,4.6-0.7c0.6,0,1.2-0.2,1.8-0.4c0.6-0.3,1-0.7,1.4-1.1c0.8-1.1,1.3-2.3,1.6-3.6c0.4-1.5,0.6-3.1,0.8-4.7
		c0.3-3.1,0.2-6.3-0.2-9.4c-0.1-0.5-0.2-1-0.3-1.5c0-0.1,0-0.1-0.1-0.1l-0.1-0.1c-0.1,0-0.1,0-0.2,0s-0.1,0-0.1,0.1
		c-3.7,2.9-1.8,8.4-3.9,12.1c-1,1.7-2.9,2.7-4.7,3.3c-2.2,0.7-4.5,1.2-6.8,1.5s-4.5,0.4-6.8,0.5l0.3,0.2c-0.3-2,0.8-3.8,1.9-5.3
		c1.2-1.7,2.7-3.2,3.7-5.1c0.5-0.9,0.8-1.9,0.9-3v-0.1l-0.1-0.1c0,0-0.1,0-0.1-0.1h-0.1c-0.6,0.2-1.2,0.4-1.7,0.8s-0.9,0.9-1.2,1.4
		l0.5,0.3c0.3-0.5,0.5-1,0.6-1.5c0.1-0.6,0.4-1.1,0.8-1.5c0.6-0.4,1.3-0.5,1.9-0.5c0.6-0.1,1.2-0.3,1.7-0.7c1.7-1.4,2-3.9,1.9-5.9
		c0-1.2-0.3-2.3-0.8-3.4c0-0.1-0.1-0.1-0.1-0.1c-0.1,0-0.1,0-0.2,0c-2.5,0.4-5.1,0.5-7.2,2.1c-1.7,1.5-3.1,3.3-4,5.3
		c-2.1,3-3,7-4.8,10.7c-0.7,1.4-1.4,2.9-2,4.3c-0.6,1.3-1.1,2.7-1.3,4.2c-0.1,0.6-0.1,1.1,0.1,1.7c0.1,0.6,0.4,1.1,0.8,1.5
		c1,1.1,2.7,1.3,4.1,1.3c2.7,0.1,5.2-0.9,7.7-1.9c2.7-1,5.6-1.6,8.3-2.4c1.2-0.4,2.4-1,3.6-1.3c1-0.3,2-0.5,2.9-0.6
		c1.9-0.2,3.9-0.4,5.6-1.2c0.7-0.3,1.4-0.9,1.8-1.6c0.2-0.3,0.3-0.7,0.3-1.1c0.2-1.3,0.3-2.6,0.3-3.9c0-1.6,0-3.3-0.1-4.9
		c0-1.4-0.2-2.7-0.5-4.1c-0.1-0.5-0.4-1.7-1.1-1.6c-0.8,0.2-1.1,1.4-1.2,2.1c-0.3,1.4-0.4,2.9-0.5,4.4c-0.1,1.7-0.1,3.4,0,5
		c0,1.2,0.1,2.4,0.2,3.7s0.4,2.8,1.7,3.4c0.7,0.3,1.4,0.4,2.1,0.4c1.3,0.1,2.6,0.3,3.9,0.5c2.6,0.4,5.3,1,7.8,1.8
		c2.8,0.8,5.5,1.8,8.4,2.3c2.1,0.3,5.5,0.6,6.2-2.1c0.1-0.7,0.1-1.4,0-2.1c-0.2-1.1-0.5-2.3-0.9-3.3c-1-2.4-2.1-4.8-3.4-7.1
		c-1.2-2.1-2.4-4.2-3.4-6.4c-0.8-1.9-1.5-3.8-2.4-5.7c-0.8-1.6-1.8-3.4-3.4-4.4c-0.9-0.6-1.9-0.9-3-0.8c-1.9,0.3-2.7,2.3-3,3.9
		c-0.4,2.2-0.3,4.4,0.4,6.5c0.4,1.4,1.3,3.4,3,3.5c0.4,0,0.8-0.1,1.2-0.3c0.4-0.2,0.7-0.4,1-0.8h-0.4c0.9,0.8,1.7,1.8,2.4,2.8
		c1.1,1.4,2.2,2.9,3.2,4.5c0.4,0.6,0.8,1.3,1.2,2c0.1,0.2,0.2,0.5,0.3,0.7c0,0.1,0.1,0.3,0.1,0.5c0,0.1,0,0,0,0.1
		c0,0-0.1,0.1-0.2,0.1c-0.2,0.1-0.4,0.2-0.7,0.2c-0.7,0.1-1.4,0.2-2.1,0.2c-1.8,0.1-3.7,0-5.5,0c-1.2,0-2.3-0.1-3.5-0.2
		c-1.4-0.2-2.9-0.5-4.2-1c-0.3-0.1-1.2-0.4-1.2-0.8l0,0c0.1-0.1,0.2-0.2,0.3-0.2c0.4-0.2,0.8-0.4,1.3-0.3c1.6,0,3.2,1.7,4.8,0.6
		c0.9-0.7,1.5-1.7,1.7-2.8c0.2-0.9,0.1-1.8-0.3-2.6c-0.8-1.7-2.5-2.8-3.4-4.4c-1.4-2.4-0.7-5-0.1-7.5c0.3-1.2,0.4-2.4,0.3-3.6
		c0-0.8-0.3-1.5-0.6-2.2c-0.7-1-1.4,0.3-1.7,0.9c-0.5,1.4-0.9,2.8-1.2,4.2c-0.3,1.4-0.6,2.8-0.8,4.2c-0.1,0.9-0.4,1.8-0.8,2.6
		c-0.5,0.8-1.3,1.4-2.3,1.7c-2.3,0.8-4.8,0.8-7.1,0c-1.1-0.4-2.2-1-3.1-1.7c-0.9-0.8-1.6-1.7-2.2-2.8c-0.4-1-0.4-2.2-0.3-3.2
		c0.1-1.1,0.2-2.1,0.1-3.2c0-0.4-0.2-0.9-0.4-1.3c-0.2-0.4-0.5-0.7-0.9-1c-0.1,0-0.2-0.1-0.2,0c-0.1,0-0.1,0.1-0.2,0.1
		C62.1,51.6,62,52,62,52.4c0,0.2,0.3,0.4,0.5,0.3c2-1,4.1-2.1,5.5-3.8c0.7-0.8,1.1-1.7,1.3-2.7c0.1-1.2-0.1-2.3-0.7-3.3
		c-0.2-0.3-0.7,0-0.5,0.3c1.7,3.2,5.9,4.1,9.2,3.2c0.8-0.2,1.5-0.5,2.1-1s1.2-1.1,1.5-1.8c0.3-0.9,0.6-1.8,0.7-2.8
		c0.1-0.6,0.3-1.2,0.5-1.7s0.5-1,0.8-1.4c0.6-0.8,1-1.7,0.7-2.7c-0.4-1-0.9-1.9-1.5-2.8c-0.3-0.4-0.6-0.9-0.8-1.3
		c-0.2-0.5-0.4-1-0.6-1.6c-0.4-1-0.9-1.8-1.5-2.6c-0.5-0.6-1.1-1.1-1.9-1.4c-0.7-0.3-1.5-0.5-2.3-0.5c-1.7,0.1-3.3,0.7-4.7,1.8
		c-1.5,1.1-2.9,2.6-3.8,4.2c-0.3,0.5-0.6,1-0.9,1.5c-0.4,0.4-0.8,0.8-1.2,1.2c-0.3,0.4-0.6,0.7-1.1,0.9c-0.3,0.1-0.6,0.3-0.9,0.6
		c-0.2,0.4-0.3,0.8-0.2,1.3c0,0.4,0.7,0.4,0.6,0c0-0.4-0.1-0.8,0.3-1.1c0.4-0.3,0.6-0.3,0.9-0.5c0.4-0.3,0.7-0.6,1-1
		c0.4-0.3,0.7-0.7,1-1.1c0.6-0.8,1-1.8,1.6-2.6c0.5-0.7,1.1-1.4,1.8-2c2.1-2,5.6-3.7,8.3-1.8c0.7,0.5,1.2,1.2,1.6,1.9
		c0.5,0.9,0.7,1.9,1.1,2.8c0.5,0.9,1,1.7,1.6,2.6c0.4,0.7,1,1.7,0.7,2.5c-0.3,1-1.1,1.8-1.5,2.7c-0.4,1-0.7,2-0.9,3.1
		c-0.1,0.7-0.4,1.4-0.8,2.1c-0.5,0.6-1,1-1.7,1.3c-2.8,1.4-6.9,1-9-1.5c-0.3-0.3-0.5-0.6-0.7-1L67.6,43c0.6,1,0.8,2.1,0.7,3.2
		c-0.2,0.9-0.7,1.8-1.4,2.5c-1.4,1.5-3.3,2.5-5.1,3.4l0.5,0.3c0-0.3,0.1-0.6,0.2-0.8l-0.4,0.1c0.8,0.6,1,1.7,1,2.7
		c0,1.1-0.2,2.3-0.2,3.4c0,1.1,0.2,2.1,0.8,3c0.6,1,1.4,1.9,2.4,2.7c1.9,1.4,4.2,2.1,6.5,2.1c2.1,0,4.7-0.4,6.1-2.1
		c1.2-1.5,1.2-3.6,1.6-5.3c0.3-1.3,0.5-2.6,0.8-3.8c0.2-0.7,0.4-1.4,0.6-2.1c0.1-0.4,0.3-0.9,0.6-1.2c0,0,0,0,0.1,0
		c0.1,0.2,0.2,0.4,0.3,0.7c0.3,1.1,0.4,2.3,0.2,3.4c-0.4,2.5-1.5,5-0.7,7.5c0.3,1,0.8,2,1.5,2.8c0.6,0.7,1.3,1.4,1.9,2.2
		c0.6,0.7,0.9,1.6,0.9,2.5c0,0.6-0.2,1.2-0.4,1.7c-0.3,0.5-0.6,1-1.1,1.4c-0.7,0.5-1.6,0.1-2.3-0.2c-0.8-0.4-1.7-0.6-2.6-0.5
		c-0.6,0.1-1.5,0.4-1.7,1c-0.2,0.5,0.3,0.9,0.6,1.1c1.3,0.7,2.8,1.1,4.3,1.3c1.1,0.2,2.2,0.3,3.2,0.3c1.8,0.1,3.6,0.2,5.4,0.1
		c0.9,0,1.7,0,2.6-0.1c0.6,0,1.2-0.2,1.8-0.4c1-0.5,0.5-1.5,0.2-2.3c-0.8-1.5-1.7-3-2.8-4.3c-1-1.4-2.1-2.8-3.2-4
		c-0.3-0.3-0.6-0.7-0.9-1c-0.1-0.1-0.1-0.1-0.2-0.1s-0.2,0-0.2,0.1c-0.2,0.3-0.5,0.5-0.8,0.7s-0.7,0.2-1,0.2
		c-0.3-0.1-0.6-0.2-0.8-0.4c-0.2-0.2-0.4-0.4-0.6-0.7c-1-1.6-1.4-3.6-1.4-5.5c-0.1-1.7,0.1-3.9,1.2-5.3c1.3-1.6,3.6-0.6,4.8,0.6
		c1.4,1.3,2.2,3.2,3,5s1.4,3.5,2.2,5.2c2.2,4.3,5.1,8.5,6.6,13.1c0.4,1,0.6,2,0.7,3c0.1,0.6,0,1.2-0.2,1.8c-0.2,0.4-0.6,0.8-1,1
		c-0.4,0.3-0.9,0.4-1.4,0.4c-1.3,0.1-2.7,0-4-0.3c-1.4-0.3-2.9-0.7-4.3-1.2c-1.1-0.3-2.3-0.7-3.4-1c-2.7-0.7-5.3-1.3-8.1-1.8
		c-1.1-0.2-2.3-0.3-3.5-0.4c-0.7,0-1.3-0.1-2-0.4c-1.1-0.6-1.2-2.1-1.2-3.1c-0.2-2.8-0.3-5.6-0.1-8.5c0-1.4,0.2-2.8,0.4-4.2
		c0.1-0.4,0.2-0.9,0.4-1.3c0.1-0.1,0.1-0.2,0.2-0.3l0.1-0.1l0.1,0.1c0.1,0.1,0.1,0.3,0.2,0.4c0.1,0.5,0.2,0.9,0.3,1.4
		c0.2,1.4,0.3,2.8,0.3,4.2c0,1.5,0,3.1,0,4.6c0,1.1-0.1,2.2-0.4,3.3c-0.3,1.2-1.6,1.9-2.8,2.3c-1.8,0.5-3.8,0.6-5.6,0.9
		c-0.9,0.1-1.7,0.4-2.6,0.7c-1.3,0.5-2.6,1-3.9,1.4c-1.3,0.4-2.7,0.7-4,1.1c-1.3,0.3-2.6,0.8-3.8,1.2c-2.3,0.9-4.7,1.7-7.2,1.6
		c-1.2-0.1-2.7-0.3-3.4-1.4c-0.6-0.9-0.5-2.1-0.3-3.2c0.4-1.4,0.9-2.7,1.5-4c0.6-1.4,1.3-2.7,1.9-4.1c0.7-1.5,1.2-3.1,1.8-4.7
		c0.7-2.1,1.5-4.2,2.5-6.1c1-1.9,2.2-3.9,4-5.1c2-1.4,4.5-1.4,6.8-1.8L60,53.5c0.8,2,0.9,4.2,0.4,6.2c-0.2,1-0.8,1.9-1.6,2.6
		c-1.1,0.7-2.5,0.2-3.5,1s-0.9,2.2-1.5,3.1c0,0.1-0.1,0.2,0,0.2c0,0.1,0.1,0.1,0.1,0.2c0.1,0,0.2,0.1,0.2,0c0.1,0,0.1-0.1,0.2-0.1
		c0.3-0.5,0.6-0.9,1.1-1.3c0.4-0.3,0.9-0.6,1.5-0.7l0.1-0.2c-0.1,2-1.5,3.8-2.7,5.3c-1.3,1.6-2.7,3.2-3.5,5.1c-0.4,1-0.6,2-0.4,3
		c0,0.1,0.1,0.1,0.1,0.2c0.1,0,0.1,0.1,0.2,0.1c2,0,4.1-0.1,6.1-0.4c2.4-0.2,4.7-0.7,6.9-1.4c1.9-0.6,3.8-1.4,5.1-2.8
		c1.5-1.7,1.7-4,1.9-6.1c0.3-2.5,0.4-5.2,2.5-6.9l-0.5-0.1c0.6,2.6,0.8,5.2,0.7,7.8c0,3-0.3,6.1-1.3,8.9c-0.3,1-0.9,1.9-1.8,2.6
		c-1.2,0.8-2.8,0.6-4.2,0.7c-1.3,0.1-2.9,0.3-3.6,1.6c-0.2,0.3-0.3,0.7-0.3,1c0,0.4,0,0.7,0.1,1.1c0.2,0.9,0.5,1.8,0.2,2.7
		c-0.6,1.7-1.6,3.3-2.8,4.7c-0.4,0.5-0.9,0.9-1.5,1.2c0,0-2.2,0.6-2.5-1.8C55.7,90,58.2,84.5,60.4,82.5z"/>
	<path class="st2" d="M60.3,51.6c0,0-0.3,1-1.3,1.1c-1,0-1-1.2-1-1.2S56.3,34.2,64,27s16.1-6.2,21.2,2.1s4.9,20.8,4.9,20.8
		S90,51.5,88.7,51C87,50.4,88,49.6,88,49.6"/>
	<path class="st2" d="M84.5,48.7c0,0,3.3-6.3,1.4-12s-1.8-10-8.6-11.3"/>
</g>
<circle class="st3" cx="197.2" cy="75" r="68.1"/>
<g>
	<path class="st4" d="M144.1,64.3l-1.5,4.6h-1.9l4.8-14.4h2.2l5,14.4h-2.1l-1.6-4.6H144.1z M148.8,62.8l-1.5-4.1
		c-0.3-0.9-0.6-1.8-0.7-2.6l0,0c-0.1,0.9-0.4,1.8-0.7,2.6l-1.5,4.1H148.8z"/>
	<path class="st4" d="M163.2,65.9c0,1,0,2.1,0.1,2.8h-1.6l-0.1-1.8l0,0c-0.4,0.9-1.6,1.9-3.4,1.9c-1.6,0-3.5-0.9-3.5-4.6v-6h1.9V64
		c0,1.9,0.6,3.4,2.3,3.4c1.3,0,2.2-0.9,2.5-1.8c0.1-0.3,0.1-0.6,0.1-1v-6.3h1.9v7.6H163.2z"/>
	<path class="st4" d="M166.1,66.9c0.6,0.3,1.6,0.7,2.5,0.7c1.3,0,2.1-0.7,2.1-1.6c0-0.9-0.6-1.5-1.9-1.9c-1.9-0.7-2.8-1.8-2.8-2.9
		c0-1.6,1.3-3.1,3.5-3.1c1,0,1.9,0.3,2.5,0.6l-0.4,1.3c-0.4-0.3-1.2-0.6-2.1-0.6c-1.2,0-1.8,0.6-1.8,1.5c0,0.9,0.6,1.2,1.9,1.8
		c1.8,0.7,2.8,1.6,2.8,3.1c0,1.8-1.5,3.1-3.8,3.1c-1.2,0-2.2-0.3-2.9-0.7L166.1,66.9z"/>
	<path class="st4" d="M183.7,58.4c0,0.7-0.1,1.6-0.1,2.8v6c0,2.3-0.4,3.8-1.5,4.7c-1,0.9-2.5,1.2-3.8,1.2c-1.2,0-2.6-0.3-3.5-0.9
		l0.4-1.5c0.7,0.4,1.8,0.9,3.1,0.9c1.9,0,3.4-1,3.4-3.7v-1.2l0,0c-0.6,1-1.8,1.8-3.4,1.8c-2.6,0-4.4-2.2-4.4-5
		c0-3.5,2.3-5.6,4.7-5.6c1.8,0,2.8,0.9,3.2,1.8l0,0l0.1-1.6h1.8V58.4z M181.8,62.5c0-0.3,0-0.6-0.1-0.9c-0.3-1-1.3-2.1-2.6-2.1
		c-1.8,0-3.1,1.5-3.1,4c0,2.1,1,3.7,3.1,3.7c1.2,0,2.2-0.7,2.6-1.9c0.1-0.3,0.1-0.7,0.1-1V62.5z"/>
	<path class="st4" d="M187.8,64c0,2.5,1.6,3.7,3.5,3.7c1.3,0,2.2-0.3,2.9-0.6l0.3,1.3c-0.7,0.3-1.8,0.6-3.5,0.6
		c-3.2,0-5.1-2.1-5.1-5.3c0-3.1,1.9-5.6,4.8-5.6c3.4,0,4.3,2.9,4.3,4.8c0,0.4,0,0.7,0,0.9h-7.2V64z M193.4,62.5
		c0-1.2-0.4-3.1-2.6-3.1c-1.9,0-2.8,1.8-2.9,3.1H193.4z"/>
	<path class="st4" d="M197.5,68.8c0-0.7,0.1-1.8,0.1-2.6V53.7h1.9v6.5l0,0c0.7-1.2,1.9-1.9,3.5-1.9c2.6,0,4.4,2.2,4.4,5.3
		c0,3.7-2.3,5.6-4.7,5.6c-1.5,0-2.6-0.6-3.5-1.9l0,0l-0.1,1.8h-1.6V68.8z M199.4,64.6c0,0.3,0,0.4,0.1,0.7c0.3,1.3,1.5,2.2,2.8,2.2
		c1.9,0,3.1-1.6,3.1-4c0-2.1-1-3.8-3.1-3.8c-1.3,0-2.5,0.9-2.9,2.3c0,0.1-0.1,0.4-0.1,0.7v1.8H199.4z"/>
	<path class="st4" d="M218.5,65.9c0,1,0,2.1,0.1,2.8h-1.6l-0.1-1.8l0,0c-0.4,0.9-1.6,1.9-3.4,1.9c-1.6,0-3.5-0.9-3.5-4.6v-6h1.9V64
		c0,1.9,0.6,3.4,2.3,3.4c1.3,0,2.2-0.9,2.5-1.8c0.1-0.3,0.1-0.6,0.1-1v-6.3h1.9v7.6H218.5z"/>
	<path class="st4" d="M229.1,68.4c-0.4,0.3-1.6,0.6-2.9,0.6c-3.1,0-5.1-2.1-5.1-5.3c0-3.2,2.2-5.6,5.6-5.6c1.2,0,2.1,0.3,2.6,0.6
		l-0.4,1.5c-0.4-0.3-1.2-0.4-2.2-0.4c-2.3,0-3.7,1.8-3.7,4c0,2.3,1.6,3.8,3.7,3.8c1,0,1.8-0.3,2.3-0.6L229.1,68.4z"/>
	<path class="st4" d="M231.3,53.6h1.9V60l0,0c0.3-0.6,0.7-1,1.3-1.3c0.6-0.3,1.2-0.6,1.9-0.6c1.5,0,3.7,0.9,3.7,4.4v6.2h-1.9v-6
		c0-1.6-0.6-3.1-2.3-3.1c-1.2,0-2.2,0.9-2.5,1.9c-0.1,0.3-0.1,0.6-0.1,0.9v6.3h-1.9L231.3,53.6L231.3,53.6z"/>
	<path class="st4" d="M245.4,55.5v2.9h2.6v1.5h-2.6v5.6c0,1.3,0.3,2.1,1.5,2.1c0.4,0,0.9,0,1-0.1l0.1,1.5c-0.3,0.1-0.9,0.3-1.6,0.3
		c-0.9,0-1.6-0.3-2.1-0.7c-0.6-0.6-0.7-1.5-0.7-2.6V60H242v-1.5h1.6v-2.6L245.4,55.5z"/>
	<path class="st4" d="M249.8,67.7c0-0.7,0.6-1.3,1.3-1.3c0.7,0,1.3,0.6,1.3,1.3S252,69,251.1,69C250.4,69,249.8,68.4,249.8,67.7z
		 M250.4,64.6l-0.3-10.3h2.1l-0.3,10.3H250.4z"/>
</g>
<g>
	<path class="st4" d="M140.4,80h0.9v6.3h3.1V87h-4V80z"/>
	<path class="st4" d="M148.2,87l-0.1-0.6l0,0c-0.3,0.4-0.9,0.7-1.6,0.7c-1,0-1.6-0.7-1.6-1.5c0-1.2,1-1.9,3.1-1.9v-0.1
		c0-0.4-0.1-1.2-1.2-1.2c-0.4,0-1,0.1-1.3,0.4l-0.1-0.6c0.4-0.3,1-0.4,1.6-0.4c1.6,0,1.9,1,1.9,2.1v1.9c0,0.4,0,0.9,0.1,1.2H148.2z
		 M148,84.4c-1,0-2.2,0.1-2.2,1.2c0,0.6,0.4,0.9,0.9,0.9c0.7,0,1-0.4,1.2-0.9c0-0.1,0-0.1,0-0.3v-0.9H148z"/>
	<path class="st4" d="M150.2,86c0.3,0.1,0.7,0.4,1.2,0.4c0.7,0,1-0.3,1-0.7c0-0.4-0.3-0.7-0.9-0.9c-0.9-0.3-1.3-0.9-1.3-1.5
		c0-0.9,0.7-1.5,1.8-1.5c0.6,0,1,0.1,1.2,0.3l-0.3,0.7c-0.1-0.1-0.6-0.3-1-0.3c-0.6,0-0.9,0.3-0.9,0.7c0,0.4,0.3,0.6,1,0.9
		c0.9,0.3,1.3,0.7,1.3,1.5c0,0.9-0.7,1.5-1.9,1.5c-0.6,0-1-0.1-1.5-0.3L150.2,86z"/>
	<path class="st4" d="M154.4,86c0.3,0.1,0.7,0.4,1.2,0.4c0.7,0,1-0.3,1-0.7c0-0.4-0.3-0.7-0.9-0.9c-0.9-0.3-1.3-0.9-1.3-1.5
		c0-0.9,0.7-1.5,1.8-1.5c0.6,0,1,0.1,1.2,0.3l-0.3,0.7c-0.1-0.1-0.6-0.3-1-0.3c-0.6,0-0.9,0.3-0.9,0.7c0,0.4,0.3,0.6,1,0.9
		c0.9,0.3,1.3,0.7,1.3,1.5c0,0.9-0.7,1.5-1.9,1.5c-0.6,0-1-0.1-1.5-0.3L154.4,86z"/>
	<path class="st4" d="M165.2,79.6v6.2c0,0.4,0,1,0,1.3h-0.9v-0.9l0,0c-0.3,0.6-0.9,1-1.8,1c-1.2,0-2.2-1-2.2-2.6
		c0-1.6,1-2.8,2.2-2.8c0.7,0,1.3,0.3,1.5,0.7l0,0v-3.1h1.2V79.6z M164.3,84c0-0.1,0-0.3,0-0.4c-0.1-0.6-0.6-1-1.3-1
		c-1,0-1.5,0.9-1.5,1.9c0,1,0.4,1.9,1.5,1.9c0.6,0,1.2-0.4,1.3-1c0-0.1,0-0.3,0-0.4V84z"/>
	<path class="st4" d="M167.9,80.4c0,0.3-0.3,0.6-0.6,0.6c-0.3,0-0.6-0.3-0.6-0.6c0-0.3,0.3-0.6,0.6-0.6
		C167.6,80,167.9,80.1,167.9,80.4z M166.8,87v-5.1h0.9V87H166.8z"/>
	<path class="st4" d="M172.9,86.7c-0.3,0.1-0.7,0.3-1.5,0.3c-1.5,0-2.5-1-2.5-2.6c0-1.6,1-2.6,2.8-2.6c0.6,0,1,0.1,1.3,0.3l-0.1,0.7
		c-0.3-0.1-0.6-0.3-1-0.3c-1.2,0-1.8,0.9-1.8,1.9c0,1.2,0.7,1.9,1.8,1.9c0.6,0,0.9-0.1,1.2-0.3L172.9,86.7z"/>
	<path class="st4" d="M173.9,79.6h0.9v3.2l0,0c0.1-0.3,0.4-0.4,0.7-0.6c0.3-0.1,0.6-0.3,0.9-0.3c0.7,0,1.8,0.4,1.8,2.2v3.1h-0.9
		v-2.9c0-0.9-0.3-1.5-1.2-1.5c-0.6,0-1,0.4-1.2,0.9c0,0.1,0,0.3,0,0.4v3.1H174v-7.6H173.9z"/>
	<path class="st4" d="M184.8,87l-0.1-0.6l0,0c-0.3,0.4-0.9,0.7-1.6,0.7c-1,0-1.6-0.7-1.6-1.5c0-1.2,1-1.9,3.1-1.9v-0.1
		c0-0.4-0.1-1.2-1.2-1.2c-0.4,0-1,0.1-1.3,0.4l-0.1-0.6c0.4-0.3,1-0.4,1.6-0.4c1.6,0,1.9,1,1.9,2.1v1.9c0,0.4,0,0.9,0.1,1.2H184.8z
		 M184.6,84.4c-1,0-2.2,0.1-2.2,1.2c0,0.6,0.4,0.9,0.9,0.9c0.7,0,1-0.4,1.2-0.9c0-0.1,0-0.1,0-0.3v-0.9H184.6z"/>
	<path class="st4" d="M191.2,85.6c0,0.6,0,1,0,1.3h-0.9V86l0,0c-0.3,0.4-0.7,0.9-1.6,0.9c-0.7,0-1.8-0.4-1.8-2.2v-2.9h0.9v2.8
		c0,1,0.3,1.6,1.2,1.6c0.6,0,1-0.4,1.2-0.9c0-0.1,0.1-0.3,0.1-0.4v-3.1h0.9L191.2,85.6L191.2,85.6z"/>
	<path class="st4" d="M192.8,87v-4.4h-0.7v-0.7h0.7v-0.3c0-0.7,0.1-1.3,0.6-1.8c0.3-0.3,0.7-0.4,1.2-0.4c0.3,0,0.6,0.1,0.7,0.1
		l-0.1,0.7c-0.1,0-0.3-0.1-0.6-0.1c-0.7,0-1,0.7-1,1.5v0.3h1.2v0.7h-1.2V87H192.8z"/>
	<path class="st4" d="M202.4,79.6v6.2c0,0.4,0,1,0,1.3h-0.7v-0.9l0,0c-0.3,0.6-0.9,1-1.8,1c-1.2,0-2.2-1-2.2-2.6
		c0-1.6,1-2.8,2.2-2.8c0.7,0,1.3,0.3,1.5,0.7l0,0v-3.1h1V79.6z M201.5,84c0-0.1,0-0.3,0-0.4c-0.1-0.6-0.6-1-1.3-1
		c-0.9,0-1.5,0.9-1.5,1.9c0,1,0.4,1.9,1.5,1.9c0.6,0,1.2-0.4,1.3-1c0-0.1,0-0.3,0-0.4V84z"/>
	<path class="st4" d="M205,80.4c0,0.3-0.3,0.6-0.6,0.6s-0.6-0.3-0.6-0.6c0-0.3,0.3-0.6,0.6-0.6C204.7,80,205,80.1,205,80.4z M204,87
		v-5.1h0.9V87H204z"/>
	<path class="st4" d="M206.9,84.7c0,1.2,0.9,1.8,1.8,1.8c0.7,0,1-0.1,1.5-0.3l0.1,0.7c-0.3,0.1-0.9,0.3-1.6,0.3
		c-1.6,0-2.5-1-2.5-2.5s0.9-2.8,2.3-2.8c1.6,0,2.1,1.5,2.1,2.3c0,0.1,0,0.3,0,0.4H206.9z M209.6,84c0-0.6-0.3-1.5-1.3-1.5
		c-0.9,0-1.3,0.9-1.5,1.5H209.6z"/>
	<path class="st4" d="M214.7,87l-1.8-7h1l0.9,3.5c0.1,0.9,0.4,1.8,0.6,2.5l0,0c0.1-0.7,0.3-1.5,0.6-2.5l0.9-3.5h1l0.9,3.5
		c0.1,0.9,0.4,1.6,0.4,2.3l0,0c0.1-0.7,0.3-1.6,0.6-2.5l0.9-3.5h0.9l-2.1,7h-1l-0.9-3.7c-0.1-0.9-0.3-1.6-0.4-2.3l0,0
		c-0.1,0.7-0.3,1.3-0.6,2.3l-1,3.7h-0.9V87z"/>
	<path class="st4" d="M224.8,87l-0.1-0.6l0,0c-0.3,0.4-0.9,0.7-1.6,0.7c-1,0-1.6-0.7-1.6-1.5c0-1.2,1-1.9,3.1-1.9v-0.1
		c0-0.4-0.1-1.2-1.2-1.2c-0.4,0-1,0.1-1.3,0.4l-0.1-0.6c0.4-0.3,1-0.4,1.6-0.4c1.6,0,1.9,1,1.9,2.1v1.9c0,0.4,0,0.9,0.1,1.2H224.8z
		 M224.7,84.4c-1,0-2.2,0.1-2.2,1.2c0,0.6,0.4,0.9,0.9,0.9c0.7,0,1-0.4,1.2-0.9c0-0.1,0-0.1,0-0.3v-0.9H224.7z"/>
	<path class="st4" d="M227,83.5c0-0.6,0-1.2,0-1.6h0.9v1l0,0c0.3-0.7,0.7-1.2,1.5-1.2c0.1,0,0.1,0,0.3,0v0.9c-0.1,0-0.1,0-0.3,0
		c-0.6,0-1.2,0.4-1.2,1.2c0,0.1,0,0.3,0,0.4v2.6h-0.9v-3.4H227z"/>
	<path class="st4" d="M231.9,80.4v1.5h1.3v0.7h-1.3v2.8c0,0.6,0.1,1,0.7,1c0.3,0,0.4,0,0.6,0v0.7c-0.1,0.1-0.4,0.1-0.9,0.1
		s-0.7-0.1-1-0.4c-0.3-0.3-0.3-0.7-0.3-1.3v-2.8h-0.7V82h0.7v-1.2L231.9,80.4z"/>
	<path class="st4" d="M234.7,84.7c0,1.2,0.9,1.8,1.8,1.8c0.7,0,1-0.1,1.5-0.3l0.1,0.7c-0.3,0.1-0.9,0.3-1.6,0.3
		c-1.6,0-2.5-1-2.5-2.5s0.9-2.8,2.3-2.8c1.6,0,2.1,1.5,2.1,2.3c0,0.1,0,0.3,0,0.4H234.7z M237.3,84c0-0.6-0.3-1.5-1.3-1.5
		c-0.9,0-1.3,0.9-1.5,1.5H237.3z"/>
	<path class="st4" d="M239.4,79.6h0.9V87h-0.9V79.6z"/>
	<path class="st4" d="M242.9,80.4c0,0.3-0.3,0.6-0.6,0.6c-0.3,0-0.6-0.3-0.6-0.6c0-0.3,0.3-0.6,0.6-0.6
		C242.6,80,242.9,80.1,242.9,80.4z M241.9,87v-5.1h0.9V87H241.9z"/>
	<path class="st4" d="M244.2,86c0.3,0.1,0.7,0.4,1.2,0.4c0.7,0,1-0.3,1-0.7c0-0.4-0.3-0.7-0.9-0.9c-0.9-0.3-1.3-0.9-1.3-1.5
		c0-0.9,0.7-1.5,1.8-1.5c0.6,0,1,0.1,1.2,0.3l-0.3,0.7c-0.1-0.1-0.6-0.3-1-0.3c-0.6,0-0.9,0.3-0.9,0.7c0,0.4,0.3,0.6,1,0.9
		c0.9,0.3,1.3,0.7,1.3,1.5c0,0.9-0.7,1.5-1.9,1.5c-0.6,0-1-0.1-1.5-0.3L244.2,86z"/>
	<path class="st4" d="M249.5,80.4v1.5h1.3v0.7h-1.3v2.8c0,0.6,0.1,1,0.7,1c0.3,0,0.4,0,0.6,0v0.7c-0.1,0.1-0.4,0.1-0.9,0.1
		c-0.4,0-0.7-0.1-1-0.4c-0.3-0.3-0.3-0.7-0.3-1.3v-2.8h-0.7V82h0.7v-1.2L249.5,80.4z"/>
	<path class="st4" d="M252.3,84.7c0,1.2,0.9,1.8,1.8,1.8c0.7,0,1-0.1,1.5-0.3l0.1,0.7c-0.3,0.1-0.9,0.3-1.6,0.3
		c-1.6,0-2.5-1-2.5-2.5s0.9-2.8,2.3-2.8c1.6,0,2.1,1.5,2.1,2.3c0,0.1,0,0.3,0,0.4H252.3z M255.1,84c0-0.6-0.3-1.5-1.3-1.5
		c-0.9,0-1.3,0.9-1.5,1.5H255.1z"/>
	<path class="st4" d="M143.2,98.6c0.3,0.1,0.7,0.4,1.2,0.4c0.7,0,1-0.3,1-0.7c0-0.4-0.3-0.7-0.9-0.9c-0.9-0.3-1.3-0.9-1.3-1.5
		c0-0.9,0.7-1.5,1.8-1.5c0.6,0,1,0.1,1.2,0.3l-0.3,0.7c-0.1-0.1-0.6-0.3-1-0.3c-0.6,0-0.9,0.3-0.9,0.7c0,0.4,0.3,0.6,1,0.9
		c0.9,0.3,1.3,0.7,1.3,1.5c0,0.9-0.7,1.5-1.9,1.5c-0.6,0-1-0.1-1.5-0.3L143.2,98.6z"/>
	<path class="st4" d="M147.9,97.2c0,1.2,0.9,1.8,1.8,1.8c0.7,0,1-0.1,1.5-0.3l0.1,0.7c-0.3,0.1-0.9,0.3-1.6,0.3
		c-1.6,0-2.5-1-2.5-2.5s0.9-2.8,2.3-2.8c1.6,0,2.1,1.5,2.1,2.3c0,0.1,0,0.3,0,0.4H147.9z M150.7,96.6c0-0.6-0.3-1.5-1.3-1.5
		c-0.9,0-1.3,0.9-1.5,1.5H150.7z"/>
	<path class="st4" d="M153.8,93.1v1.5h1.3v0.7h-1.3v2.8c0,0.6,0.1,1,0.7,1c0.3,0,0.4,0,0.6,0v0.7c-0.1,0.1-0.4,0.1-0.9,0.1
		c-0.4,0-0.7-0.1-1-0.4c-0.3-0.3-0.3-0.7-0.3-1.3v-2.8h-0.7v-0.7h0.7v-1.2L153.8,93.1z"/>
	<path class="st4" d="M155.5,99.1l2.3-2.9c0.3-0.3,0.4-0.6,0.6-0.7l0,0h-2.8v-0.7h3.8v0.6l-2.2,2.9c-0.1,0.3-0.4,0.6-0.6,0.7l0,0
		h2.9v0.7h-4.1C155.5,99.7,155.5,99.1,155.5,99.1z"/>
	<path class="st4" d="M161,97.2c0,1.2,0.9,1.8,1.8,1.8c0.7,0,1-0.1,1.5-0.3l0.1,0.7c-0.3,0.1-0.9,0.3-1.6,0.3c-1.6,0-2.5-1-2.5-2.5
		s0.9-2.8,2.3-2.8c1.6,0,2.1,1.5,2.1,2.3c0,0.1,0,0.3,0,0.4H161z M163.8,96.6c0-0.6-0.3-1.5-1.3-1.5c-0.9,0-1.3,0.9-1.5,1.5H163.8z"
		/>
	<path class="st4" d="M165.8,95.9c0-0.6,0-0.9,0-1.3h0.9v0.9l0,0c0.3-0.4,0.9-0.9,1.6-0.9c0.7,0,1.8,0.4,1.8,2.2v3.1h-0.9v-2.9
		c0-0.9-0.3-1.5-1.2-1.5c-0.6,0-1,0.4-1.2,0.9c0,0.1,0,0.3,0,0.4v3.1H166v-4H165.8z"/>
	<path class="st4" d="M170.9,100.8c0.3-0.6,0.4-1.8,0.6-2.5l1-0.1c-0.3,0.9-0.7,2.1-1,2.5L170.9,100.8z"/>
	<path class="st4" d="M176.4,94.5l1,2.8c0.1,0.4,0.3,0.9,0.4,1.3l0,0c0.1-0.4,0.3-0.9,0.4-1.3l1-2.8h1l-2.1,5.1h-0.9l-1.9-5.1H176.4
		z"/>
	<path class="st4" d="M182,93.1c0,0.3-0.3,0.6-0.6,0.6c-0.3,0-0.6-0.3-0.6-0.6c0-0.3,0.3-0.6,0.6-0.6C181.8,92.5,182,92.8,182,93.1z
		 M180.9,99.5v-5.1h0.9v5.1H180.9z"/>
	<path class="st4" d="M184,97.2c0,1.2,0.9,1.8,1.8,1.8c0.7,0,1-0.1,1.5-0.3l0.1,0.7c-0.3,0.1-0.9,0.3-1.6,0.3c-1.6,0-2.5-1-2.5-2.5
		s0.9-2.8,2.3-2.8c1.6,0,2.1,1.5,2.1,2.3c0,0.1,0,0.3,0,0.4H184z M186.7,96.6c0-0.6-0.3-1.5-1.3-1.5c-0.9,0-1.3,0.9-1.5,1.5H186.7z"
		/>
	<path class="st4" d="M188.7,92.2h0.9v7.5h-0.9V92.2z"/>
	<path class="st4" d="M191.2,92.2h0.9v7.5h-0.9V92.2z"/>
	<path class="st4" d="M194.2,97.2c0,1.2,0.9,1.8,1.8,1.8c0.7,0,1-0.1,1.5-0.3l0.1,0.7c-0.3,0.1-0.9,0.3-1.6,0.3
		c-1.6,0-2.5-1-2.5-2.5s0.9-2.8,2.3-2.8c1.6,0,2.1,1.5,2.1,2.3c0,0.1,0,0.3,0,0.4H194.2z M196.8,96.6c0-0.6-0.3-1.5-1.3-1.5
		c-0.9,0-1.3,0.9-1.5,1.5H196.8z"/>
	<path class="st4" d="M199.9,93.1c0,0.3-0.3,0.6-0.6,0.6c-0.3,0-0.6-0.3-0.6-0.6c0-0.3,0.3-0.6,0.6-0.6
		C199.7,92.5,199.9,92.8,199.9,93.1z M198.9,99.5v-5.1h0.9v5.1H198.9z"/>
	<path class="st4" d="M205,99.4c-0.3,0.1-0.7,0.3-1.5,0.3c-1.5,0-2.5-1-2.5-2.6c0-1.6,1-2.6,2.8-2.6c0.6,0,1,0.1,1.3,0.3l-0.1,0.7
		c-0.1-0.1-0.6-0.3-1-0.3c-1.2,0-1.8,0.9-1.8,1.9c0,1.2,0.7,1.9,1.8,1.9c0.6,0,0.9-0.1,1.2-0.3L205,99.4z"/>
	<path class="st4" d="M206,92.2h0.9v3.2l0,0c0.1-0.3,0.4-0.4,0.7-0.6c0.3-0.1,0.6-0.3,0.9-0.3c0.7,0,1.8,0.4,1.8,2.2v3.1h-0.9v-2.9
		c0-0.9-0.3-1.5-1.2-1.5c-0.6,0-1,0.4-1.2,0.9c0,0.1,0,0.3,0,0.4v3.1h-1V92.2z"/>
	<path class="st4" d="M212.9,93.1v1.5h1.3v0.7h-1.3v2.8c0,0.6,0.1,1,0.7,1c0.3,0,0.4,0,0.6,0v0.7c-0.1,0.1-0.4,0.1-0.9,0.1
		s-0.7-0.1-1-0.4c-0.3-0.3-0.3-0.7-0.3-1.3v-2.8h-0.7v-0.7h0.7v-1.2L212.9,93.1z"/>
	<path class="st4" d="M217.4,98.6c0.3,0.1,0.7,0.4,1.2,0.4c0.7,0,1-0.3,1-0.7c0-0.4-0.3-0.7-0.9-0.9c-0.9-0.3-1.3-0.9-1.3-1.5
		c0-0.9,0.7-1.5,1.8-1.5c0.6,0,1,0.1,1.2,0.3l-0.3,0.7c-0.1-0.1-0.6-0.3-1-0.3c-0.6,0-0.9,0.3-0.9,0.7c0,0.4,0.3,0.6,1,0.9
		c0.9,0.3,1.3,0.7,1.3,1.5c0,0.9-0.7,1.5-1.9,1.5c-0.6,0-1-0.1-1.5-0.3L217.4,98.6z"/>
	<path class="st4" d="M225.3,99.4c-0.3,0.1-0.7,0.3-1.5,0.3c-1.5,0-2.5-1-2.5-2.6c0-1.6,1-2.6,2.8-2.6c0.6,0,1,0.1,1.3,0.3l-0.1,0.7
		c-0.3-0.1-0.6-0.3-1-0.3c-1.2,0-1.8,0.9-1.8,1.9c0,1.2,0.7,1.9,1.8,1.9c0.6,0,0.9-0.1,1.2-0.3L225.3,99.4z"/>
	<path class="st4" d="M226.3,92.2h0.9v3.2l0,0c0.1-0.3,0.4-0.4,0.7-0.6c0.3-0.1,0.6-0.3,0.9-0.3c0.7,0,1.8,0.4,1.8,2.2v3.1h-0.9
		v-2.9c0-0.9-0.3-1.5-1.2-1.5c-0.6,0-1,0.4-1.2,0.9c0,0.1,0,0.3,0,0.4v3.1h-0.9v-7.6H226.3z"/>
	<path class="st4" d="M235,99.5l-0.1-0.6l0,0c-0.3,0.4-0.9,0.7-1.6,0.7c-1,0-1.6-0.7-1.6-1.5c0-1.2,1-1.9,3.1-1.9v-0.1
		c0-0.4-0.1-1.2-1.2-1.2c-0.4,0-1,0.1-1.3,0.4l-0.1-0.6c0.4-0.3,1-0.4,1.6-0.4c1.6,0,1.9,1,1.9,2.1v1.9c0,0.4,0,0.9,0.1,1.2H235z
		 M234.8,97c-1,0-2.2,0.1-2.2,1.2c0,0.6,0.4,0.9,0.9,0.9c0.7,0,1-0.4,1.2-0.9c0-0.1,0-0.1,0-0.3V97H234.8z"/>
	<path class="st4" d="M240.3,99.5v-4.4h-2.1v4.4h-0.9v-4.4h-0.7v-0.7h0.7v-0.1c0-0.7,0.1-1.3,0.6-1.8c0.3-0.3,0.7-0.4,1.3-0.4
		c0.3,0,0.6,0.1,0.7,0.1l-0.1,0.7c-0.1,0-0.3-0.1-0.6-0.1c-0.7,0-0.9,0.6-0.9,1.5v0.3h2.1v-0.3c0-0.7,0.1-1.3,0.6-1.8
		c0.3-0.3,0.7-0.4,1.2-0.4c0.3,0,0.6,0.1,0.7,0.1l-0.1,0.7c-0.1,0-0.3-0.1-0.6-0.1c-0.7,0-1,0.7-1,1.5v0.3h1.2v0.7h-1v4.4h-1V99.5z"
		/>
	<path class="st4" d="M243.6,97.2c0,1.2,0.9,1.8,1.8,1.8c0.7,0,1-0.1,1.5-0.3l0.1,0.7c-0.3,0.1-0.9,0.3-1.6,0.3
		c-1.6,0-2.5-1-2.5-2.5s0.9-2.8,2.3-2.8c1.6,0,2.1,1.5,2.1,2.3c0,0.1,0,0.3,0,0.4H243.6z M246.4,96.6c0-0.6-0.3-1.5-1.3-1.5
		c-0.9,0-1.3,0.9-1.5,1.5H246.4z"/>
	<path class="st4" d="M248.3,95.9c0-0.6,0-0.9,0-1.3h0.9v0.9l0,0c0.3-0.4,0.9-0.9,1.6-0.9c0.7,0,1.8,0.4,1.8,2.2v3.1h-0.9v-2.9
		c0-0.9-0.3-1.5-1.2-1.5c-0.6,0-1,0.4-1.2,0.9c0,0.1,0,0.3,0,0.4v3.1h-0.9v-4H248.3z"/>
	<path class="st4" d="M160.8,107l0.7,2.6c0.1,0.6,0.3,1,0.4,1.6l0,0c0.1-0.6,0.3-1,0.4-1.6l0.9-2.6h0.7l0.7,2.5
		c0.1,0.6,0.3,1.2,0.4,1.6l0,0c0.1-0.6,0.1-1,0.4-1.6l0.7-2.5h0.9l-1.6,5.1h-0.9l-0.7-2.3c-0.1-0.6-0.3-1-0.4-1.6l0,0
		c-0.1,0.6-0.3,1.2-0.4,1.6l-0.9,2.3h-0.9l-1.5-5.1H160.8z"/>
	<path class="st4" d="M169.2,105.7c0,0.3-0.3,0.6-0.6,0.6s-0.6-0.3-0.6-0.6s0.3-0.6,0.6-0.6C169,105.1,169.2,105.2,169.2,105.7z
		 M168.2,112.2V107h0.9v5.1H168.2z"/>
	<path class="st4" d="M170.7,108.6c0-0.6,0-1.2,0-1.6h0.9v1l0,0c0.3-0.7,0.7-1.2,1.5-1.2c0.1,0,0.1,0,0.3,0v0.9c-0.1,0-0.1,0-0.3,0
		c-0.6,0-1.2,0.4-1.2,1.2c0,0.1,0,0.3,0,0.4v2.6h-0.9v-3.4H170.7z"/>
	<path class="st4" d="M176.8,109.8c0,1.2,0.9,1.8,1.8,1.8c0.7,0,1-0.1,1.5-0.3l0.1,0.7c-0.3,0.1-0.9,0.3-1.6,0.3
		c-1.6,0-2.5-1-2.5-2.5c0-1.5,0.9-2.8,2.3-2.8c1.6,0,2.1,1.5,2.1,2.3c0,0.1,0,0.3,0,0.4H176.8z M179.5,109.1c0-0.6-0.3-1.5-1.3-1.5
		c-0.9,0-1.3,0.9-1.5,1.5H179.5z"/>
	<path class="st4" d="M182.6,105.7c0,0.3-0.3,0.6-0.6,0.6c-0.3,0-0.6-0.3-0.6-0.6s0.3-0.6,0.6-0.6
		C182.4,105.1,182.6,105.2,182.6,105.7z M181.5,112.2V107h0.9v5.1H181.5z"/>
	<path class="st4" d="M184,108.5c0-0.6,0-0.9,0-1.3h0.9v0.9l0,0c0.3-0.4,0.9-0.9,1.6-0.9c0.7,0,1.8,0.4,1.8,2.2v3.1h-0.9v-2.9
		c0-0.9-0.3-1.5-1.2-1.5c-0.6,0-1,0.4-1.2,0.9c0,0.1,0,0.3,0,0.4v3.1h-1V108.5z"/>
	<path class="st4" d="M190.3,109.8c0,1.2,0.9,1.8,1.8,1.8c0.7,0,1-0.1,1.5-0.3l0.1,0.7c-0.3,0.1-0.9,0.3-1.6,0.3
		c-1.6,0-2.5-1-2.5-2.5c0-1.5,0.9-2.8,2.3-2.8c1.6,0,2.1,1.5,2.1,2.3c0,0.1,0,0.3,0,0.4H190.3z M193,109.1c0-0.6-0.3-1.5-1.3-1.5
		c-0.9,0-1.3,0.9-1.5,1.5H193z"/>
	<path class="st4" d="M195,108.5c0-0.6,0-0.9,0-1.3h0.9v0.9l0,0c0.3-0.4,0.9-0.9,1.6-0.9c0.7,0,1.8,0.4,1.8,2.2v3.1h-0.9v-2.9
		c0-0.9-0.3-1.5-1.2-1.5c-0.6,0-1,0.4-1.2,0.9c0,0.1,0,0.3,0,0.4v3.1h-0.9v-4H195z"/>
	<path class="st4" d="M202.8,112.2v-0.6l0.7-0.7c1.8-1.6,2.5-2.5,2.5-3.5c0-0.7-0.3-1.3-1.3-1.3c-0.6,0-1.2,0.3-1.5,0.6L203,106
		c0.4-0.4,1.2-0.7,1.9-0.7c1.5,0,2.1,1,2.1,1.9c0,1.3-0.9,2.2-2.3,3.7l-0.6,0.4l0,0h3.1v0.7h-4.3V112.2z"/>
	<path class="st4" d="M208.2,111.6c0-0.4,0.3-0.7,0.6-0.7c0.4,0,0.6,0.3,0.6,0.7c0,0.4-0.3,0.6-0.6,0.6
		C208.5,112.3,208.2,112,208.2,111.6z"/>
	<path class="st4" d="M212.9,105.1h0.9v3.4l0,0c0.1-0.3,0.4-0.6,0.6-0.7l2.2-2.6h1.2l-2.5,2.9l2.8,4.1h-1l-2.3-3.5l-0.7,0.7v2.6
		h-0.9v-6.9H212.9z"/>
	<path class="st4" d="M222.6,110.7c0,0.6,0,1,0,1.3h-0.9v-0.9l0,0c-0.3,0.4-0.7,0.9-1.6,0.9c-0.7,0-1.8-0.4-1.8-2.2v-2.9h0.9v2.8
		c0,1,0.3,1.6,1.2,1.6c0.6,0,1-0.4,1.2-0.9c0-0.1,0.1-0.3,0.1-0.4v-3.1h0.9L222.6,110.7L222.6,110.7z"/>
	<path class="st4" d="M224.3,108.6c0-0.6,0-1.2,0-1.6h0.9v1l0,0c0.3-0.7,0.7-1.2,1.5-1.2c0.1,0,0.1,0,0.3,0v0.9c-0.1,0-0.1,0-0.3,0
		c-0.6,0-1.2,0.4-1.2,1.2c0,0.1,0,0.3,0,0.4v2.6h-0.9v-3.4H224.3z"/>
	<path class="st4" d="M227.5,111.1c0.3,0.1,0.7,0.4,1.2,0.4c0.7,0,1-0.3,1-0.7c0-0.4-0.3-0.7-0.9-0.9c-0.9-0.3-1.3-0.9-1.3-1.5
		c0-0.9,0.7-1.5,1.8-1.5c0.6,0,1,0.1,1.2,0.3l-0.3,0.7c-0.1-0.1-0.6-0.3-1-0.3c-0.6,0-0.9,0.3-0.9,0.7c0,0.4,0.3,0.6,1,0.9
		c0.9,0.3,1.3,0.7,1.3,1.5c0,0.9-0.7,1.5-1.9,1.5c-0.6,0-1-0.1-1.5-0.3L227.5,111.1z"/>
	<path class="st4" d="M233.8,107.9c0-0.4,0.3-0.7,0.6-0.7s0.6,0.3,0.6,0.7c0,0.3-0.3,0.6-0.6,0.6
		C234.1,108.5,233.8,108.2,233.8,107.9z M233.8,111.6c0-0.4,0.3-0.6,0.6-0.6s0.6,0.3,0.6,0.6c0,0.4-0.3,0.6-0.6,0.6
		C234.1,112.3,233.8,112,233.8,111.6z"/>
	<path class="st4" d="M235.7,113.3c0.7-1,1.3-2.3,1.3-4.3c0-1.9-0.6-3.2-1.3-4.3h0.7c0.7,0.9,1.3,2.2,1.3,4.3c0,2.1-0.7,3.4-1.3,4.3
		H235.7z"/>
</g>
</svg>
