<?xml version="1.0" encoding="utf-8"?>
<!-- Generator: Adobe Illustrator 26.0.2, SVG Export Plug-In . SVG Version: 6.00 Build 0)  -->
<svg version="1.1" id="Ebene_1" xmlns="http://www.w3.org/2000/svg" xmlns:xlink="http://www.w3.org/1999/xlink" x="0px" y="0px"
	 viewBox="0 0 76 76" style="enable-background:new 0 0 76 76;" xml:space="preserve">
<style type="text/css">
	.st0{fill:#FFFFFF;}
	.st1{fill:none;}
	.st2{fill:url(#SVGID_1_);}
	.st3{fill:url(#SVGID_00000118388840983297566870000007266192514868953010_);}
	.st4{fill:url(#SVGID_00000180346841747350027500000003953212927212655762_);}
</style>
<path class="st0" d="M38.3,74.8L38.3,74.8c-20.1,0-36.6-16.5-36.6-36.6v0c0-20.1,16.5-36.6,36.6-36.6h0c20.1,0,36.6,16.5,36.6,36.6
	v0C74.9,58.3,58.4,74.8,38.3,74.8z"/>
<polyline class="st1" points="76,76 0,76 0,0 "/>
<g>
	
		<radialGradient id="SVGID_1_" cx="-315.953" cy="4.047" r="1" gradientTransform="matrix(79.0718 0 0 79.0718 24995.709 -258.6792)" gradientUnits="userSpaceOnUse">
		<stop  offset="0" style="stop-color:#F9ED41"/>
		<stop  offset="0.24" style="stop-color:#FF833D"/>
		<stop  offset="0.4" style="stop-color:#EE5568"/>
		<stop  offset="0.49" style="stop-color:#E7407B"/>
		<stop  offset="1" style="stop-color:#0028FF"/>
	</radialGradient>
	<path class="st2" d="M46.3,59.4H29.7c-3.5,0-6.8-1.4-9.3-3.9s-3.8-5.8-3.8-9.3V29.7c0-3.5,1.4-6.8,3.8-9.3c2.5-2.5,5.8-3.8,9.3-3.8
		h16.6c3.5,0,6.8,1.4,9.3,3.8c2.5,2.5,3.8,5.8,3.8,9.3v16.6c0,3.5-1.4,6.8-3.8,9.3C53.1,58,49.8,59.4,46.3,59.4z M29.7,19.8
		c-2.6,0-5.1,1-7,2.9s-2.9,4.4-2.9,7v16.6c0,2.6,1,5.1,2.9,7s4.4,2.9,7,2.9h16.6c2.6,0,5.1-1,7-2.9s2.9-4.4,2.9-7V29.7
		c0-2.6-1.1-5.1-2.9-7c-1.9-1.9-4.4-2.9-7-2.9C46.3,19.8,29.7,19.8,29.7,19.8z"/>
	
		<radialGradient id="SVGID_00000148659561490070454500000013707197212149307548_" cx="-315.953" cy="4.047" r="1" gradientTransform="matrix(79.0718 0 0 79.0718 24995.709 -258.6792)" gradientUnits="userSpaceOnUse">
		<stop  offset="0" style="stop-color:#F9ED41"/>
		<stop  offset="0.24" style="stop-color:#FF833D"/>
		<stop  offset="0.4" style="stop-color:#EE5568"/>
		<stop  offset="0.49" style="stop-color:#E7407B"/>
		<stop  offset="1" style="stop-color:#0028FF"/>
	</radialGradient>
	<path style="fill:url(#SVGID_00000148659561490070454500000013707197212149307548_);" d="M38,48.8c-2.1,0-4.2-0.6-6-1.8
		s-3.2-2.9-4-4.9s-1-4.2-0.6-6.3s1.4-4,3-5.6c1.5-1.5,3.4-2.6,5.6-3c2.1-0.4,4.3-0.2,6.3,0.6c2,0.8,3.7,2.2,4.9,4
		c1.2,1.8,1.8,3.9,1.8,6c0,2.9-1.1,5.6-3.2,7.7C43.6,47.7,40.9,48.8,38,48.8z M38,30.4c-1.5,0-3,0.4-4.2,1.3c-1.2,0.8-2.2,2-2.8,3.4
		c-0.6,1.4-0.7,2.9-0.4,4.4c0.3,1.5,1,2.8,2.1,3.9c1.1,1.1,2.4,1.8,3.9,2.1s3,0.1,4.4-0.4c1.4-0.6,2.6-1.5,3.4-2.8
		c0.8-1.2,1.3-2.7,1.3-4.2c0-2-0.8-3.9-2.2-5.3C41.9,31.2,40,30.4,38,30.4z"/>
	
		<radialGradient id="SVGID_00000006682712719761590800000007467861196853501074_" cx="-315.9528" cy="4.0472" r="1" gradientTransform="matrix(79.0663 0 0 79.0663 24993.9492 -258.681)" gradientUnits="userSpaceOnUse">
		<stop  offset="0" style="stop-color:#F9ED41"/>
		<stop  offset="0.24" style="stop-color:#FF833D"/>
		<stop  offset="0.4" style="stop-color:#EE5568"/>
		<stop  offset="0.49" style="stop-color:#E7407B"/>
		<stop  offset="1" style="stop-color:#0028FF"/>
	</radialGradient>
	<path style="fill:url(#SVGID_00000006682712719761590800000007467861196853501074_);" d="M52.8,26c0,0.6-0.2,1.1-0.5,1.6
		s-0.8,0.8-1.3,1s-1.1,0.3-1.6,0.2s-1-0.4-1.4-0.8s-0.7-0.9-0.8-1.4s-0.1-1.1,0.2-1.6c0.2-0.5,0.6-1,1-1.3c0.5-0.3,1-0.5,1.6-0.5
		c0.7,0,1.5,0.3,2,0.8S52.8,25.2,52.8,26z"/>
</g>
</svg>
