<svg width="76" height="76" viewBox="0 0 76 76" fill="none" xmlns="http://www.w3.org/2000/svg">
<g clip-path="url(#clip0_45_60)">
<path d="M53.924 0H22.076C9.88376 0 0 9.88376 0 22.076V53.924C0 66.1162 9.88376 76 22.076 76H53.924C66.1162 76 76 66.1162 76 53.924V22.076C76 9.88376 66.1162 0 53.924 0Z" fill="white"/>
<path d="M46.3053 59.4334H29.6885C26.2087 59.429 22.8728 58.0443 20.4127 55.5832C17.9526 53.1221 16.5694 49.7856 16.5664 46.3058V29.6889C16.5708 26.2101 17.9547 22.875 20.4146 20.4151C22.8746 17.9552 26.2096 16.5713 29.6885 16.5669H46.3053C49.7846 16.5698 53.1205 17.9533 55.5807 20.4135C58.041 22.8737 59.4244 26.2097 59.4274 29.6889V46.3058C59.4244 49.7856 58.0411 53.1221 55.5811 55.5832C53.121 58.0443 49.7851 59.429 46.3053 59.4334ZM29.6885 19.7778C27.0603 19.7808 24.5405 20.8258 22.6815 22.6837C20.8226 24.5416 19.7762 27.0608 19.7718 29.6889V46.3058C19.7747 48.9349 20.8205 51.4556 22.6796 53.3147C24.5387 55.1738 27.0593 56.2195 29.6885 56.2225H46.3053C48.9345 56.2195 51.4551 55.1738 53.3142 53.3147C55.1733 51.4556 56.219 48.9349 56.222 46.3058V29.6889C56.2176 27.0608 55.1712 24.5416 53.3122 22.6837C51.4533 20.8258 48.9335 19.7808 46.3053 19.7778H29.6885Z" fill="url(#paint0_radial_45_60)"/>
<path d="M37.9971 48.8434C35.8519 48.8445 33.7547 48.2095 31.9704 47.0186C30.1862 45.8277 28.7952 44.1345 27.9732 42.1531C27.1513 40.1717 26.9354 37.991 27.3528 35.8869C27.7702 33.7828 28.8022 31.8497 30.3183 30.332C31.8344 28.8144 33.7664 27.7804 35.8701 27.3609C37.9738 26.9413 40.1547 27.155 42.137 27.9748C44.1192 28.7947 45.8139 30.184 47.0066 31.967C48.1992 33.75 48.8364 35.8467 48.8375 37.9918C48.8361 40.8675 47.6938 43.6251 45.6615 45.6595C43.6291 47.6939 40.8727 48.839 37.9971 48.8434ZM37.9971 30.4402C36.5022 30.4402 35.0409 30.8836 33.798 31.7142C32.5551 32.5449 31.5865 33.7255 31.0147 35.1067C30.4428 36.4879 30.2935 38.0077 30.5856 39.4738C30.8776 40.9398 31.5979 42.2864 32.6553 43.3431C33.7128 44.3997 35.0599 45.119 36.5262 45.41C37.9925 45.701 39.5121 45.5505 40.8929 44.9777C42.2737 44.4048 43.4536 43.4354 44.2833 42.1919C45.113 40.9484 45.5553 39.4867 45.5542 37.9918C45.5498 35.9894 44.752 34.0704 43.3356 32.655C41.9191 31.2396 39.9995 30.4432 37.9971 30.4402Z" fill="url(#paint1_radial_45_60)"/>
<path d="M52.8444 25.9772C52.8455 26.5368 52.6805 27.0841 52.3703 27.5499C52.0601 28.0156 51.6186 28.3788 51.1018 28.5935C50.585 28.8081 50.0162 28.8646 49.4673 28.7557C48.9184 28.6468 48.4141 28.3774 48.0184 27.9817C47.6227 27.586 47.3534 27.0818 47.2445 26.5329C47.1356 25.984 47.192 25.4151 47.4067 24.8983C47.6213 24.3815 47.9845 23.9401 48.4503 23.6299C48.916 23.3197 49.4634 23.1547 50.023 23.1558C50.7712 23.1558 51.4889 23.453 52.018 23.9821C52.5471 24.5113 52.8444 25.2289 52.8444 25.9772Z" fill="url(#paint2_radial_45_60)"/>
</g>
<defs>
<radialGradient id="paint0_radial_45_60" cx="0" cy="0" r="1" gradientUnits="userSpaceOnUse" gradientTransform="translate(12.7322 61.3199) scale(79.0718 79.0718)">
<stop stop-color="#F9ED41"/>
<stop offset="0.24" stop-color="#FF833D"/>
<stop offset="0.4" stop-color="#EE5568"/>
<stop offset="0.49" stop-color="#E7407B"/>
<stop offset="1" stop-color="#0028FF"/>
</radialGradient>
<radialGradient id="paint1_radial_45_60" cx="0" cy="0" r="1" gradientUnits="userSpaceOnUse" gradientTransform="translate(12.7324 61.3199) scale(79.0718 79.0718)">
<stop stop-color="#F9ED41"/>
<stop offset="0.24" stop-color="#FF833D"/>
<stop offset="0.4" stop-color="#EE5568"/>
<stop offset="0.49" stop-color="#E7407B"/>
<stop offset="1" stop-color="#0028FF"/>
</radialGradient>
<radialGradient id="paint2_radial_45_60" cx="0" cy="0" r="1" gradientUnits="userSpaceOnUse" gradientTransform="translate(12.7325 61.3199) scale(79.0663)">
<stop stop-color="#F9ED41"/>
<stop offset="0.24" stop-color="#FF833D"/>
<stop offset="0.4" stop-color="#EE5568"/>
<stop offset="0.49" stop-color="#E7407B"/>
<stop offset="1" stop-color="#0028FF"/>
</radialGradient>
<clipPath id="clip0_45_60">
<rect width="76" height="76" fill="white"/>
</clipPath>
</defs>
</svg>
