<svg width="146" height="146" viewBox="0 0 146 146" fill="none" xmlns="http://www.w3.org/2000/svg">
<rect width="146" height="146" rx="73" fill="#88DBB1" fill-opacity="0.2"/>
<g clip-path="url(#clip0_44_36)">
<path d="M71.0527 15.3095C71.5339 14.7112 72.1411 14.0047 72.1984 13.2014C72.1687 12.5923 71.9348 12.0106 71.5339 11.5491C71.0699 10.8768 70.7147 10.1476 70.2679 9.46956C70.1288 9.17523 69.8968 8.93413 69.6073 8.78296C69.3177 8.63178 68.9865 8.57879 68.6639 8.63203L68.9904 8.76308C68.3145 7.23047 70.0846 5.51552 68.7956 4.07976C68.7643 4.04975 68.7266 4.02722 68.6852 4.01388C68.6438 4.00055 68.5999 3.99675 68.5569 4.00279C68.5138 4.00883 68.4727 4.02455 68.4367 4.04874C68.4006 4.07294 68.3706 4.10498 68.3488 4.14244C66.8938 6.15934 66.6704 8.73459 65.4845 10.8939C65.0835 11.6289 64.6539 12.5006 64.8773 13.3609C65.0664 14.0959 65.6679 14.6827 66.0574 15.3208C66.6764 16.5096 67.1717 17.7581 67.5354 19.047C67.9822 20.3289 68.4118 21.6165 68.8014 22.9156C69.608 25.5347 70.183 28.2189 70.5199 30.9376C70.8053 33.0965 70.8591 35.2795 70.6804 37.4498C70.5715 38.5437 70.4111 39.6319 70.2736 40.7201C69.817 43.6309 69.6424 46.5786 69.7523 49.5227C69.8784 51.4598 70.245 54.3199 72.3703 55.1233C74.9653 56.1032 77.1479 53.7844 77.7895 51.5054C78.1103 50.3659 78.2363 48.9415 77.5489 47.9103C77.1763 47.4268 76.6327 47.1023 76.0284 47.0029C75.4241 46.9034 74.8044 47.0364 74.2951 47.3747C74.0465 47.5287 73.843 47.7451 73.7052 48.0022C73.5675 48.2592 73.5002 48.5479 73.5103 48.839C73.5236 49.0969 73.6377 49.3395 73.8281 49.515C74.0185 49.6906 74.2703 49.7853 74.5299 49.7791C76.1683 49.7791 76.5636 47.7964 76.6667 46.5429C76.7211 45.6701 76.7211 44.7949 76.6667 43.9221C76.6209 42.8396 76.6667 41.7627 76.6266 40.6802C76.5922 37.6948 76.4949 34.7093 76.2772 31.7295C76.1626 30.2083 76.0251 28.6928 75.8418 27.1716C75.7553 26.1749 75.4935 25.201 75.0684 24.2943C74.5715 23.4347 73.9962 22.6222 73.3499 21.8672C72.7256 20.9813 72.1793 20.0434 71.7172 19.0641C71.3583 18.2287 70.8068 17.4891 70.1075 16.9047C70.0522 16.8735 69.9882 16.861 69.9251 16.8692C69.862 16.8775 69.8034 16.9059 69.7581 16.9503C68.2629 18.3291 70.1418 20.9898 70.9438 22.2262C71.5167 23.0808 72.1354 23.8955 72.628 24.79C73.3935 26.35 73.669 28.103 73.4186 29.8209C73.2696 31.3136 72.8858 32.7608 72.8457 34.2649C72.8584 35.6268 72.7761 36.988 72.5994 38.3386C72.3875 39.5635 71.8948 40.9081 70.5772 41.3012C69.3914 41.6545 68.6009 40.4865 68.1598 39.592C67.7103 38.4733 67.382 37.3102 67.1802 36.1223C66.8537 34.7948 65.8626 33.7806 65.4616 32.493C65.3211 32.0447 65.2967 31.5682 65.3908 31.1081C65.485 30.6479 65.6946 30.2188 66.0001 29.8608C66.1444 29.6292 66.3461 29.4385 66.5859 29.3068C66.8256 29.1751 67.0954 29.1069 67.3692 29.1087C68.2629 29.2169 68.9045 30.2482 69.0363 31.08C69.0833 31.2641 69.0832 31.4569 69.0362 31.641C68.9892 31.8251 68.8966 31.9946 68.767 32.134C68.6352 32.248 68.3144 32.4417 68.154 32.3164C67.9936 32.191 68.0509 31.8435 68.0624 31.6839C68.177 30.2482 69.3341 29.5474 70.6746 29.3537C73.2009 28.9947 76.2886 29.3537 78.4655 30.7496C79.0307 31.0918 79.5121 31.555 79.8747 32.1056C80.2855 32.8259 80.4408 33.6627 80.3158 34.4814C80.1947 35.3151 80.162 36.1592 80.2184 36.9997C80.3556 37.7319 80.5747 38.4466 80.8715 39.1305C81.0955 39.6209 81.2127 40.153 81.2152 40.6916C81.1697 41.1476 81.0717 41.5968 80.923 42.0305C80.6481 42.8794 80.1726 44.093 79.2847 44.4861C79.0601 44.5672 78.8162 44.5796 78.5845 44.5218C78.3527 44.4639 78.1437 44.3384 77.9843 44.1614C77.9534 44.1311 77.9159 44.1082 77.8748 44.0944C77.8337 44.0807 77.79 44.0764 77.7469 44.0818C77.7039 44.0873 77.6627 44.1025 77.6264 44.1261C77.5901 44.1498 77.5597 44.1813 77.5374 44.2183C76.1912 46.0415 79.3763 48.3319 80.5392 49.2777C81.4437 49.9159 82.2927 50.6287 83.077 51.4085C84.3774 52.8728 83.9649 54.508 83.7128 56.2457C83.579 57.045 83.5946 57.862 83.7587 58.6557C83.9305 59.4192 84.4518 60.2339 84.4117 61.0315C84.3372 62.7123 81.6563 62.3021 80.5621 62.2622C78.918 62.1938 77.2682 62.5015 75.6298 62.3192C74.8308 62.2659 74.065 61.9806 73.4275 61.4985C72.7901 61.0164 72.3089 60.3587 72.0438 59.6072C71.8413 59.0402 71.7085 58.451 71.6485 57.8523C71.6485 57.6074 71.511 56.9636 71.7058 56.7584C71.6141 56.8496 71.7058 56.8268 71.8261 56.9863C72.0282 57.2622 72.1974 57.5604 72.3302 57.8751C72.7073 58.7231 72.9749 59.6152 73.1265 60.5302C73.3098 61.4816 73.4243 62.4502 73.516 63.4188C73.6314 64.3142 73.6582 65.2187 73.5962 66.1194C73.5192 67.0283 73.233 67.9075 72.7598 68.6889C72.32 69.2856 71.8456 69.8563 71.3391 70.3982C70.7663 71.0477 69.844 71.9593 70.3309 72.8822C70.8178 73.8052 71.8261 74.3237 72.6223 74.7966C74.6674 75.9931 76.936 76.7394 78.9925 77.896C80.2585 78.6082 81.9083 79.7705 83.3118 78.6994C84.4575 77.839 84.2972 76.2608 84.1539 75.0188C84.0481 74.3252 84.0078 73.6232 84.0336 72.9221C84.1081 72.0447 84.2857 71.173 84.4404 70.307C84.7383 68.6775 85.0533 66.9341 84.6237 65.2989C84.4309 64.5694 84.07 63.8945 83.5696 63.3276C83.543 63.3009 83.5113 63.2797 83.4764 63.2653C83.4415 63.2508 83.4041 63.2434 83.3663 63.2434C83.3285 63.2434 83.291 63.2508 83.2561 63.2653C83.2212 63.2797 83.1895 63.3009 83.1629 63.3276C82.4525 64.2164 82.3265 65.4698 82.1948 66.5581C82.0757 67.9646 81.8845 69.3642 81.6219 70.7514C80.8371 74.2268 78.9409 77.2408 77.0849 80.2434C75.3563 83.1257 73.3142 85.8101 70.9954 88.2483C68.3374 90.9717 65.2038 93.3019 62.1734 95.598C59.6431 97.5368 57.0036 99.3306 54.268 100.971C53.2745 101.598 52.228 102.137 51.1402 102.583C50.4127 102.862 49.3529 103.062 49.1524 102.013C49.1186 101.627 49.1966 101.24 49.3773 100.896C49.558 100.553 49.8338 100.268 50.1721 100.076C51.0543 99.5976 51.4152 100.794 51.2491 101.478C51.0028 102.503 49.8513 103.187 48.992 103.643C47.9953 104.152 46.968 104.599 45.9158 104.982C42.9284 106.189 40.1265 107.808 37.5922 109.79C36.2287 110.763 34.9796 111.884 33.8686 113.135C33.4733 113.63 33.1411 114.177 32.7745 114.69C32.4078 115.203 32.0355 115.761 31.3652 115.83C30.5747 115.875 30.2596 115.26 30.3398 114.553L30.0534 114.838C30.5804 114.838 31.0273 115.362 31.3423 115.721C31.8709 116.357 32.3298 117.046 32.7114 117.778C33.1108 118.502 33.4592 119.252 33.754 120.023C33.9914 120.566 34.1422 121.143 34.2009 121.732L34.4873 121.447C33.1525 121.487 31.8178 121.447 30.4773 121.396C29.6982 121.362 28.2603 121.464 27.9739 120.513C27.7562 119.778 28.0369 118.872 28.0942 118.131C28.1859 116.992 27.8479 115.921 27.6588 114.804C27.5127 114.199 27.5127 113.569 27.6588 112.964C27.888 112.246 28.4265 112.041 29.0509 111.739C30.1966 111.169 30.7122 110.098 31.308 109.061C32.7107 106.749 34.4808 104.679 36.5496 102.931C38.639 101.091 40.9902 99.5687 43.527 98.4125C45.9186 97.3984 48.2184 96.1823 50.4012 94.7776C52.5854 93.3015 54.5921 91.581 56.3819 89.6499C58.5014 87.3709 60.5924 85.0919 62.6203 82.7673C63.4774 81.8992 64.1256 80.8493 64.5164 79.6964C64.7971 78.6709 64.9117 77.6795 65.5074 76.7622C66.2218 75.7179 67.0583 74.7616 67.9994 73.9135C68.7509 73.1116 69.7678 72.6059 70.8637 72.4891C72.2672 72.415 73.4759 73.2127 74.593 73.9534C75.8647 74.7966 77.1135 75.6626 78.4139 76.4887C80.8745 77.9321 83.5628 78.9511 86.3652 79.5027C88.6566 80.0211 90.9022 80.6137 93.1764 81.1436C95.1867 81.5551 97.1704 82.0859 99.117 82.7331C101 83.3444 102.727 84.3574 104.175 85.7015C105.848 87.4108 106.295 89.5644 106.719 91.8263C107.292 94.9086 107.601 98.0365 107.939 101.153C108.094 102.566 108.3 104.002 108.409 105.398C108.512 106.697 108.563 107.996 108.718 109.283C108.987 111.596 109.566 114.172 111.485 115.71C113.244 117.123 115.592 117.283 117.735 117.647C118.274 117.706 118.799 117.862 119.281 118.109C119.751 118.418 120.153 118.819 120.462 119.288L120.633 118.866C118.405 119.755 116.051 119.647 113.719 119.596C111.743 119.55 109.766 119.721 107.79 119.624C106.719 119.573 104.473 119.59 104.135 118.223C103.906 117.294 104.404 116.211 104.588 115.311C104.764 114.706 104.803 114.07 104.704 113.447C104.605 112.825 104.37 112.232 104.015 111.71L103.975 112.052C104.502 111.408 105.344 111.545 106.089 111.403C106.429 111.35 106.745 111.193 106.992 110.954C107.239 110.716 107.406 110.406 107.469 110.07C107.487 109.997 107.476 109.921 107.439 109.856C107.401 109.791 107.341 109.743 107.269 109.722C106.496 109.423 105.642 109.405 104.857 109.671C104.605 109.774 104.328 109.8 104.061 109.745C103.534 109.551 103.259 108.742 103.064 108.286C101.97 105.683 101.3 102.896 100.463 100.207C100.121 98.9766 99.8891 97.7182 99.77 96.4469C99.5319 94.7486 99.4475 93.0325 99.5179 91.3192C99.5523 90.664 99.5981 88.5389 100.595 88.4705C101.07 88.4363 101.689 89.3536 101.987 89.684C102.285 90.0145 102.497 90.1569 102.44 90.5729C102.371 91.0856 101.792 91.0287 101.38 91.0742C100.847 91.1369 100.331 91.2679 99.7987 91.3477C98.9483 91.4683 98.0911 91.5349 97.2322 91.5471C95.7763 91.5642 94.3206 91.4957 92.8728 91.342C91.1256 91.1711 89.3841 91.0172 87.6255 90.8976C85.3908 90.7946 83.1693 90.4992 80.986 90.0145C79.2675 89.5929 77.1364 88.9149 76.2485 87.2227C76.0766 86.898 75.584 87.1886 75.7559 87.5133C76.5865 89.1029 78.4254 89.8778 80.0695 90.362C82.222 90.9302 84.4277 91.2758 86.6516 91.3933C88.5306 91.5414 90.4038 91.6497 92.277 91.8548C93.9214 92.0475 95.5766 92.135 97.2322 92.1169C98.7675 92.0827 100.234 91.7807 101.752 91.6098C102.588 91.5186 103.293 91.0002 102.978 90.0316C102.851 89.78 102.678 89.554 102.468 89.365C102.153 89.0118 101.832 88.6642 101.489 88.3451C101.338 88.1464 101.123 88.0048 100.881 87.9437C100.638 87.8825 100.382 87.9056 100.154 88.009C99.9285 88.1469 99.7332 88.3284 99.5797 88.5427C99.4262 88.757 99.3176 88.9999 99.2602 89.2567C98.7561 90.8406 98.8763 92.6752 98.9852 94.2933C99.0956 96.0439 99.333 97.7842 99.6955 99.5008C99.9189 100.549 100.303 101.552 100.606 102.572C101.139 104.355 101.62 106.155 102.291 107.893C102.623 108.753 103.064 110.28 104.21 110.354C104.6 110.335 104.986 110.26 105.355 110.132C105.928 109.99 106.532 110.04 107.074 110.275L106.873 109.927C106.644 110.822 105.957 110.856 105.155 110.936C104.846 110.94 104.541 111.006 104.258 111.13C103.976 111.255 103.722 111.435 103.511 111.659C103.467 111.703 103.438 111.761 103.43 111.822C103.422 111.884 103.434 111.947 103.465 112.001C104.284 113.083 104.21 114.314 103.912 115.568C103.694 116.491 103.27 117.573 103.591 118.525C103.986 119.704 105.453 119.983 106.535 120.108C108.609 120.353 110.689 120.165 112.768 120.16C115.472 120.16 118.17 120.45 120.754 119.425C120.903 119.362 121.046 119.168 120.92 119.003C120.39 118.168 119.577 117.547 118.628 117.254C117.437 116.935 116.177 116.872 114.968 116.61C113.797 116.411 112.694 115.93 111.754 115.209C110.75 114.287 110.05 113.086 109.743 111.762C109.022 109.175 109.13 106.446 108.804 103.785C108.414 100.589 108.145 97.3756 107.658 94.1907C107.435 92.6524 107.16 91.1198 106.805 89.6043C106.592 88.5654 106.205 87.5696 105.659 86.6587C104.59 85.1134 103.121 83.8833 101.408 83.0978C97.6791 81.2404 93.3884 80.5852 89.3784 79.5654C86.411 78.8076 83.329 78.3746 80.5621 76.9958C79.1471 76.2539 77.7827 75.4203 76.4777 74.5003C75.3113 73.5913 74.0448 72.8172 72.7025 72.1929C70.5199 71.3496 68.6467 72.3239 67.1229 73.9021C66.2162 74.7606 65.4266 75.7337 64.7742 76.7964C64.2873 77.6909 64.2014 78.6652 63.9149 79.6451C63.4738 81.1151 62.2995 82.2261 61.3084 83.3485C60.2372 84.5734 59.1488 85.7756 58.0431 86.9778C56.085 89.2416 53.9262 91.3258 51.5928 93.2051C49.4748 94.7735 47.1931 96.1107 44.7872 97.1933C43.5098 97.763 42.2209 98.3328 41.0007 99.0108C39.8035 99.6907 38.655 100.452 37.5635 101.29C35.3254 102.998 33.3509 105.023 31.7032 107.301C31.3366 107.819 30.9871 108.349 30.6721 108.902C30.3565 109.558 29.9475 110.167 29.4576 110.708C28.9637 111.067 28.4339 111.374 27.8765 111.625C27.4778 111.898 27.1879 112.301 27.0573 112.764C26.7079 113.904 27.1032 115.157 27.3323 116.291C27.4898 117.305 27.4898 118.337 27.3323 119.351C27.2539 119.678 27.2492 120.018 27.3185 120.347C27.3879 120.676 27.5295 120.985 27.7333 121.254C28.3978 121.926 29.555 121.886 30.4257 121.92C31.7605 121.983 33.0952 122.011 34.4357 121.972C34.5112 121.97 34.5832 121.94 34.6366 121.886C34.69 121.833 34.7207 121.762 34.7222 121.687C34.6617 121.01 34.4894 120.348 34.2123 119.727C33.8783 118.861 33.48 118.021 33.0208 117.214C32.4479 116.206 31.3939 114.229 30.0018 114.234C29.9268 114.237 29.8556 114.268 29.8024 114.321C29.7493 114.374 29.7182 114.445 29.7154 114.519C29.6625 114.796 29.6856 115.082 29.7824 115.347C29.8793 115.612 30.0461 115.846 30.2655 116.025C30.4848 116.203 30.7485 116.319 31.0288 116.361C31.309 116.403 31.5954 116.369 31.8579 116.263C32.3648 116.021 32.7892 115.637 33.0781 115.157C33.5077 114.588 33.8629 113.944 34.3326 113.403C35.7125 111.915 37.2598 110.59 38.9441 109.454C40.5962 108.279 42.3415 107.238 44.1628 106.343C46.3683 105.267 49.0894 104.703 50.9053 102.959C51.3011 102.638 51.5858 102.201 51.7193 101.711C51.8529 101.22 51.8286 100.7 51.6501 100.224C51.5991 100.055 51.5103 99.8987 51.3904 99.7679C51.2706 99.637 51.1226 99.5347 50.9575 99.4685C50.7924 99.4023 50.6145 99.3738 50.4369 99.3854C50.2593 99.3969 50.0865 99.448 49.9315 99.5349C48.5394 100.247 47.7718 102.982 49.8456 103.386C50.7965 103.574 52.0052 102.817 52.8072 102.412C53.7983 101.905 54.7549 101.324 55.7002 100.737C59.2868 98.4623 62.7304 95.9717 66.0116 93.2791C67.6327 91.9801 69.2711 90.6925 70.7606 89.2453C72.0631 87.9682 73.2712 86.5992 74.3753 85.1489C76.6663 82.0868 78.7083 78.848 80.4819 75.4632C81.3709 73.7385 81.9946 71.891 82.3322 69.9822C82.6244 68.5351 82.6358 67.0537 82.9051 65.6066C82.9692 64.9301 83.1972 64.2791 83.5696 63.7093H83.1629C85.6605 66.5865 83.2087 70.609 83.455 73.8907C83.5524 75.1783 84.1998 77.2807 82.9624 78.2265C81.6162 79.252 79.8289 77.6111 78.603 77.0357C76.3115 75.9646 73.8654 75.0701 71.8146 73.5773C71.4031 73.3276 71.0575 72.9838 70.8064 72.5746C70.6059 72.1359 70.984 71.7029 71.2417 71.3667C72.1411 70.1873 73.2353 69.2644 73.7509 67.84C74.3925 66.051 74.1748 64.1822 73.9628 62.3419C73.8452 60.5935 73.4084 58.8811 72.6739 57.2883C72.439 56.8496 71.5855 55.5506 71.1444 56.5647C70.7892 57.3738 71.1444 58.6044 71.3678 59.4135C71.5252 60.0588 71.824 60.6616 72.2429 61.1787C72.6618 61.6958 73.1904 62.1144 73.791 62.4046C75.395 63.1453 77.2281 62.9231 78.9467 62.8376C80.4017 62.7636 81.9026 63.0199 83.3405 62.7693C83.6416 62.7257 83.929 62.6149 84.181 62.4452C84.433 62.2755 84.6431 62.0513 84.7955 61.7893C84.928 61.4842 84.9929 61.1543 84.986 60.8221C84.9791 60.4898 84.9005 60.1629 84.7554 59.8635C84.403 59.0168 84.2088 58.1132 84.1826 57.1971C84.2112 56.3881 84.406 55.5962 84.5148 54.7985C84.6414 54.0829 84.594 53.3475 84.3768 52.6537C84.1596 51.96 83.7787 51.3279 83.266 50.8103C82.4067 49.9671 81.3985 49.2777 80.4762 48.5313C79.5539 47.785 78.4196 46.8791 77.9327 45.751C77.8303 45.5613 77.784 45.3466 77.7992 45.1318C77.8144 44.917 77.8905 44.7109 78.0186 44.5374L77.5718 44.6001C79.7487 46.4859 81.3298 43.1586 81.6792 41.3867C81.7868 40.9365 81.8005 40.4692 81.7193 40.0136C81.5475 39.1647 81.1178 38.4012 80.8944 37.5694C80.396 35.712 81.4673 33.7179 80.4304 31.9688C78.9639 29.4277 75.2747 28.7668 72.5822 28.7384C71.0699 28.7384 69.1852 28.7384 68.1254 29.9975C67.6213 30.5672 67.0542 32.134 67.7588 32.7779C68.5665 33.5071 69.569 32.2879 69.6149 31.5358C69.6239 31.0287 69.5093 30.5269 69.2809 30.0735C69.0524 29.62 68.7169 29.2284 68.303 28.9321C67.2948 28.237 66.2063 28.6757 65.5189 29.5759C64.9525 30.2598 64.6789 31.1375 64.757 32.0201C64.9426 32.9451 65.3149 33.8231 65.8512 34.601C66.2152 35.1668 66.4878 35.7858 66.6589 36.4356C66.8193 37.1307 66.9167 37.8315 67.1229 38.5152C67.4723 39.6547 68.028 41.0563 69.1165 41.7115C70.2049 42.3667 71.574 41.7513 72.2958 40.8056C73.1608 39.6661 73.2754 38.0594 73.3441 36.6863C73.3649 35.1099 73.4836 33.5363 73.6993 31.9745C74.0659 29.912 74.318 27.8154 73.6535 25.7871C72.8228 23.2574 70.4283 21.4342 69.8726 18.7906C69.7944 18.5544 69.7818 18.3015 69.8362 18.0588C69.8907 17.8161 70.0102 17.5925 70.182 17.4118L69.8325 17.4574C70.6174 18.0271 71.047 19.0128 71.4652 19.856C71.8739 20.7073 72.363 21.5181 72.9259 22.2774C73.4781 22.9488 73.9834 23.6569 74.4383 24.3969C74.9105 25.314 75.1948 26.3152 75.2747 27.3425C75.8991 32.6069 75.9506 37.8771 76.0595 43.17C76.0595 44.6286 76.2714 46.1156 75.9563 47.5571C75.8074 48.2408 75.5153 49.0099 74.7591 49.215C74.0029 49.4201 73.9342 48.6852 74.2779 48.2123C74.4683 47.9879 74.7119 47.8142 74.9866 47.7067C75.2613 47.5991 75.5585 47.5612 75.8516 47.5962C76.1447 47.6312 76.4245 47.7381 76.6657 47.9073C76.907 48.0765 77.1022 48.3027 77.2338 48.5655C77.7036 49.6309 77.44 50.9812 77.0333 52.0182C76.6266 53.0551 75.7845 54.2972 74.5758 54.6276C74.1413 54.784 73.6753 54.8335 73.2175 54.772C72.7596 54.7105 72.3235 54.5398 71.9463 54.2743C71.2742 53.6369 70.8245 52.8025 70.6632 51.8928C70.3925 50.7022 70.2637 49.4841 70.2793 48.2635C70.302 45.6549 70.5029 43.0509 70.8808 40.4694C71.0069 39.4895 71.1501 38.5095 71.2475 37.5238C71.4088 35.6556 71.3897 33.7764 71.1902 31.9118C70.7491 27.1374 69.3399 22.5395 67.7531 18.0385C67.4358 16.9645 66.9996 15.9288 66.4527 14.9505C66.109 14.3808 65.5361 13.8566 65.3986 13.2014C65.1981 12.2385 65.9715 11.2984 66.3496 10.4723C66.754 9.50357 67.1022 8.51246 67.3922 7.50393C67.7018 6.42631 68.1792 5.40357 68.8071 4.47289L68.3603 4.52987C68.979 5.21926 68.5894 6.20492 68.4118 6.99116C68.1918 7.67755 68.2079 8.41727 68.4577 9.09353C68.4897 9.14841 68.5391 9.1911 68.5983 9.21484C68.6574 9.23858 68.7229 9.24201 68.7842 9.22457C69.4373 9.08214 69.8039 9.88548 70.0617 10.3641C70.348 10.8901 70.6636 11.3998 71.0069 11.891C71.3083 12.2364 71.5067 12.6587 71.5797 13.1102C71.6084 13.7939 71.0069 14.4719 70.6001 14.9619C70.371 15.2468 70.772 15.6513 71.0069 15.3664L71.0527 15.3095Z" fill="#379F8F"/>
</g>
<defs>
<clipPath id="clip0_44_36">
<rect width="94" height="118" fill="white" transform="translate(27 4)"/>
</clipPath>
</defs>
</svg>
