<svg width="146" height="146" viewBox="0 0 146 146" fill="none" xmlns="http://www.w3.org/2000/svg">
<rect width="146" height="146" rx="73" fill="#88DBB1" fill-opacity="0.2"/>
<path d="M72.2957 105.045C71.5257 104.391 70.6939 103.813 69.812 103.319C69.3166 103.025 68.749 102.874 68.1729 102.885C66.8814 102.971 65.7451 104.064 64.7082 104.747C63.9676 105.326 63.0987 105.717 62.1749 105.89C61.3243 105.881 60.4746 105.829 59.6292 105.734C57.918 105.664 56.2039 105.718 54.5005 105.896C52.6751 106.101 50.6323 106.417 49.1111 107.516C49.0401 107.559 48.9887 107.628 48.9679 107.708C48.947 107.788 48.9583 107.873 48.9993 107.945C50.179 109.497 52.3708 109.547 54.1528 109.516C55.1276 109.516 56.1087 109.416 57.0835 109.454C58.4246 109.538 59.7572 109.724 61.0697 110.013C62.5102 110.286 63.9445 110.633 65.3664 110.969C66.6082 111.273 67.85 111.776 69.0918 112.068C69.6618 112.227 70.2598 112.258 70.8435 112.161C71.4271 112.063 71.9822 111.838 72.4695 111.503C73.0502 111.041 73.4714 110.409 73.6741 109.696C73.9721 108.864 74.1398 107.982 74.4626 107.156C74.7482 106.436 75.2077 105.784 76.0646 105.915L75.8472 105.697C76.2074 107.318 75.1208 108.802 75.0525 110.379C75.009 111.447 75.4437 112.968 76.5861 113.341C77.8776 113.757 79.1318 112.273 79.3057 111.124C79.5168 109.764 78.5792 108.46 78.8959 107.113C79.1877 105.871 80.4109 105.25 81.5099 104.878C82.7054 104.535 83.9262 104.288 85.1608 104.139C88.1101 103.685 90.9911 102.897 93.9591 102.518C96.927 102.139 100.354 102.04 103.08 103.605C103.643 103.855 104.115 104.271 104.434 104.797C104.645 105.306 104.024 105.542 103.633 105.654C102.316 106.033 100.969 105.567 99.7211 105.145C98.4219 104.611 97.0774 104.196 95.7038 103.903C94.6188 103.765 93.5249 103.711 92.4316 103.741C89.7717 103.672 87.1185 104.039 84.5772 104.828C83.5217 105.138 82.5666 105.72 81.8079 106.517C81.0738 107.436 80.6967 108.589 80.7462 109.764C80.7636 110.957 81.1545 112.114 81.8638 113.074C82.2647 113.551 82.7578 113.943 83.3137 114.226C83.8695 114.509 84.4766 114.676 85.0987 114.719C86.7045 114.824 88.3161 114.794 89.917 114.632C91.7238 114.564 93.5493 114.738 95.3685 114.738C98.5012 114.693 101.621 114.333 104.682 113.663C109.122 112.757 115.02 111.143 116.25 106.082C116.445 105.346 116.451 104.572 116.265 103.834C116.079 103.095 115.708 102.416 115.188 101.86C113.939 100.668 112.407 99.8129 110.736 99.3764C107.342 98.4032 103.823 97.9326 100.292 97.9794C97.343 97.9794 94.4744 98.7307 91.5437 98.8548C90.7716 98.8973 89.9971 98.8557 89.234 98.7307C88.9359 98.6748 88.2902 98.6189 88.1971 98.2464C88.1838 97.9641 88.1983 97.6813 88.2405 97.4019C88.2203 96.9717 88.0563 96.5607 87.7748 96.2346C86.8187 95.0549 85.403 95.5268 84.1363 95.8248C83.2615 95.9967 82.37 96.0696 81.4789 96.0421C80.4916 96.0421 79.4982 95.9987 78.5109 95.9428C74.5061 95.7131 70.5013 95.6448 66.4902 95.5703C65.5092 95.5703 64.5281 95.5702 63.5471 95.5082C62.7834 95.5082 62.0321 95.3467 61.2684 95.2784C60.5601 95.1857 59.8405 95.2343 59.1511 95.4212C58.6932 95.4933 58.2708 95.711 57.9465 96.0421C57.7541 96.3091 57.692 96.663 57.4871 96.9114C57.296 97.1073 57.1461 97.3396 57.0462 97.5944C56.9779 97.8303 57.0028 98.0787 56.9407 98.3147C56.7668 98.9356 56.059 99.1218 55.4878 99.1715C54.8181 99.2212 54.1457 99.2212 53.476 99.1715C51.0364 99.0947 48.5948 99.236 46.1804 99.5937C43.3637 99.8917 40.578 100.432 37.854 101.208C35.4698 101.922 33.0234 102.885 31.1296 104.542C30.6411 104.943 30.2446 105.445 29.9671 106.013C29.6896 106.58 29.5376 107.201 29.5215 107.833C29.5961 109.201 30.0055 110.529 30.7136 111.701C31.4158 112.972 32.1868 114.203 33.0234 115.39C33.6281 116.431 34.3219 117.418 35.0972 118.339C35.9153 119.123 36.9741 119.609 38.1024 119.717C39.9192 119.935 41.7516 119.996 43.5788 119.897C45.4415 119.835 47.3042 119.723 49.1669 119.742C51.1725 119.742 53.178 119.854 55.1773 119.91C59.1428 120.069 63.1139 120.017 67.0739 119.755C68.9408 119.643 70.792 119.346 72.5999 118.867C74.4005 118.351 76.1701 117.755 78.0639 117.737C81.0256 117.706 83.8756 118.68 86.8187 118.829C88.2592 118.898 89.6997 118.885 91.165 118.829C92.8391 118.814 94.5059 118.606 96.1322 118.208C96.9953 117.96 98.4296 117.42 98.144 116.259C97.9294 115.664 97.526 115.156 96.9953 114.812C95.849 113.932 94.4785 113.392 93.0401 113.254C91.283 113.036 89.5941 112.962 88.0294 112.043C86.6138 111.211 85.3844 110.13 83.8756 109.46C82.3668 108.789 80.591 108.175 78.8773 108.547C78.2654 108.693 77.6959 108.979 77.2141 109.383C76.7323 109.787 76.3514 110.298 76.1018 110.876C75.8517 111.395 75.5366 111.882 75.1643 112.322C74.8971 112.617 74.574 112.857 74.2138 113.026C73.8535 113.195 73.4633 113.292 73.0656 113.31C71.5133 113.403 70.0232 112.769 68.4647 112.807C68.4039 112.807 68.3447 112.826 68.2945 112.86C68.2442 112.894 68.2051 112.943 68.182 112.999C68.1588 113.055 68.1527 113.117 68.1643 113.176C68.1759 113.236 68.2048 113.291 68.2474 113.334C69.2967 114.433 70.464 116.693 68.5889 117.594L69.0111 117.706C68.3672 116.747 67.6708 115.824 66.9248 114.943C66.0227 114.068 64.9366 113.406 63.7458 113.005C61.2622 112.037 58.6482 111.459 56.2949 110.211C54.724 109.379 53.1904 108.485 51.6071 107.672C49.9225 106.746 48.1371 106.017 46.2859 105.499C44.9386 105.169 43.0572 104.996 42.3246 106.48C42.2854 106.551 42.2752 106.634 42.296 106.713C42.3168 106.792 42.367 106.859 42.4363 106.902C44.417 108.367 46.8448 106.833 48.7758 106.07C51.545 104.983 54.575 104.635 57.4995 104.17C59.5981 103.835 61.7279 103.418 63.5906 102.307C64.5118 101.764 65.3591 101.105 66.1115 100.345C66.5729 99.9193 66.989 99.4469 67.3533 98.9356C67.671 98.4157 67.9432 97.8694 68.1666 97.3026C68.6696 96.1229 69.216 94.819 70.5261 94.3843C71.594 94.0304 72.6806 94.018 73.5251 93.1798C73.8462 92.8767 74.0771 92.4905 74.1922 92.0642C74.3073 91.6379 74.302 91.188 74.177 90.7644C74.0809 90.4192 73.9041 90.1018 73.6612 89.8384C73.4183 89.575 73.1163 89.3731 72.78 89.2494C72.0597 89.0383 71.6003 89.5164 71.3581 90.1435C71.2172 90.384 71.1655 90.6664 71.2121 90.9411C71.2586 91.2159 71.4005 91.4655 71.6127 91.6461C72.1222 91.8756 72.697 91.9153 73.2332 91.7579C73.8346 91.6364 74.4245 91.464 74.9966 91.2425C76.5675 90.6527 78.1011 89.889 79.79 90.4726C80.607 90.7973 81.3612 91.2616 82.019 91.8448C82.8014 92.4657 83.5651 93.1425 84.3971 93.7075C84.8605 94.0332 85.3437 94.3297 85.8438 94.5954C85.891 94.6227 85.9446 94.637 85.9991 94.637C86.0536 94.637 86.1071 94.6227 86.1543 94.5954C86.4794 94.3965 86.7443 94.1129 86.9204 93.7749C87.0965 93.4369 87.1772 93.0573 87.1539 92.6768C87.029 91.8688 86.7211 91.1 86.2536 90.4292C85.7771 89.7676 85.4005 89.0396 85.136 88.2684C84.9715 87.2806 84.9589 86.2734 85.0987 85.2818C85.2043 83.7109 85.136 81.9476 83.5279 81.1777C82.1681 80.5257 80.504 80.5567 79.0387 80.6623C77.2691 80.7679 75.5182 81.0473 73.7734 81.2832C72.5454 81.5095 71.2952 81.5928 70.048 81.5316C68.5019 81.4012 66.9435 81.1777 65.4098 81.0473C63.9652 80.841 62.4964 80.8766 61.0635 81.1528C60.8226 81.1993 60.5934 81.2929 60.3888 81.4282C60.1842 81.5635 60.0084 81.7379 59.8713 81.9414C59.5914 82.6756 59.5226 83.4736 59.6727 84.2449C59.812 85.0662 59.8225 85.9041 59.7037 86.7286C59.3845 87.7722 58.9228 88.7668 58.3315 89.6841C57.8441 90.4929 57.4918 91.3759 57.2884 92.2981C57.2201 92.7203 57.2325 93.3039 57.7292 93.453C57.97 93.473 58.2124 93.4418 58.4403 93.3616C58.6682 93.2813 58.8766 93.1538 59.0518 92.9873C59.6603 92.5319 60.2053 91.9974 60.6723 91.3978C61.2547 90.6485 61.7719 89.8508 62.2184 89.0135C62.7339 88.1847 63.0957 87.2698 63.2863 86.3125C63.4167 85.3936 63.0193 84.4498 62.8703 83.5868C62.7927 83.2001 62.8399 82.7987 63.0051 82.4405C63.1702 82.0823 63.4448 81.7858 63.7893 81.5937C65.118 80.7803 66.9373 81.0411 68.4274 80.8982C69.041 80.8823 69.6438 80.733 70.1938 80.4606C70.7439 80.1883 71.228 79.7995 71.6127 79.3212C72.3802 78.2464 72.9229 77.0279 73.2084 75.7385C73.5954 74.1967 73.8468 72.6239 73.9597 71.0383C74.2477 67.9228 74.1685 64.7844 73.7237 61.6874C73.6522 61.1881 73.5548 60.6927 73.4319 60.2035C73.4161 60.1518 73.3874 60.105 73.3484 60.0675C73.3095 60.0301 73.2616 60.0032 73.2093 59.9896C73.157 59.9759 73.1021 59.9758 73.0498 59.9893C72.9974 60.0028 72.9495 60.0295 72.9104 60.0669C69.1849 63.0162 71.1222 68.4491 69.0545 72.1994C68.0921 73.9441 66.1797 74.863 64.3729 75.4964C62.156 76.2381 59.8665 76.7418 57.543 76.999C55.278 77.2924 52.9969 77.4438 50.713 77.4522L51.0172 77.682C50.6944 75.7199 51.8493 73.9131 52.9669 72.4167C54.2087 70.734 55.6864 69.1942 56.6923 67.3563C57.2195 66.452 57.5318 65.4387 57.605 64.3946C57.6038 64.3468 57.5918 64.2999 57.5699 64.2575C57.548 64.215 57.5167 64.1781 57.4785 64.1494C57.4403 64.1207 57.396 64.1011 57.3491 64.0919C57.3022 64.0828 57.2539 64.0843 57.2077 64.0965C56.5964 64.2552 56.0241 64.5376 55.5264 64.9264C55.0287 65.3151 54.6161 65.8019 54.3142 66.3566L54.8544 66.6733C55.1078 66.1843 55.3157 65.673 55.4753 65.1459C55.5904 64.5952 55.8571 64.0877 56.2453 63.6805C56.8348 63.3292 57.5086 63.1446 58.1949 63.1466C58.8211 63.0916 59.4202 62.8661 59.9272 62.4946C61.6161 61.141 61.97 58.5643 61.8769 56.5463C61.8474 55.3677 61.5902 54.206 61.1194 53.1251C61.0858 53.0658 61.0333 53.0195 60.9702 52.9936C60.9072 52.9677 60.8372 52.9637 60.7717 52.9823C58.288 53.4232 55.6306 53.4728 53.5319 55.0686C51.8029 56.5197 50.4305 58.3487 49.5209 60.4146C47.714 64.0407 46.7827 68.0145 45.0441 71.6716C44.3611 73.1183 43.6409 74.5464 43.0138 76.0179C42.3913 77.3496 41.9606 78.7627 41.7347 80.2152C41.629 80.7773 41.647 81.3556 41.7874 81.91C41.9279 82.4644 42.1875 82.9815 42.5481 83.4253C43.5602 84.5119 45.2118 84.7354 46.615 84.7665C49.3346 84.8224 51.7747 83.8289 54.277 82.9038C56.9903 81.8731 59.8651 81.3515 62.6033 80.4636C63.8079 80.0724 64.9566 79.5012 66.1673 79.1473C67.134 78.883 68.1203 78.6961 69.1166 78.5885C70.9793 78.3463 73.0097 78.2221 74.7048 77.3467C75.4416 77.0047 76.0582 76.4486 76.4744 75.7509C76.6336 75.4158 76.7384 75.0574 76.7848 74.6892C76.9925 73.3849 77.1046 72.0671 77.1201 70.7464C77.1636 69.101 77.1512 67.4619 77.0642 65.8227C77.0203 64.461 76.8667 63.1051 76.6048 61.7681C76.493 61.2404 76.2508 60.042 75.4747 60.2035C74.6986 60.3649 74.3819 61.6253 74.2329 62.3083C73.9532 63.7578 73.7974 65.2284 73.7672 66.7043C73.6989 68.3746 73.7051 70.0572 73.7672 71.7337C73.7983 72.9755 73.8417 74.1738 73.9535 75.3846C74.0653 76.5954 74.3385 78.2097 75.6299 78.7996C76.3032 79.053 77.0155 79.1874 77.7348 79.197C79.0573 79.3087 80.3737 79.4577 81.6838 79.6813C84.3307 80.1198 86.9493 80.7148 89.5258 81.4633C92.3012 82.2705 95.0146 83.2949 97.8832 83.7544C100.007 84.0959 103.409 84.3257 104.092 81.6495C104.238 80.9555 104.238 80.2387 104.092 79.5447C103.892 78.4006 103.578 77.2794 103.155 76.198C102.181 73.7653 101.029 71.4078 99.7087 69.1445C98.5351 67.0521 97.2685 64.9782 96.2813 62.7864C95.4368 60.9237 94.7476 58.9492 93.8411 57.0865C93.0463 55.4597 92.0653 53.6405 90.482 52.6533C89.6199 52.0502 88.5754 51.765 87.5265 51.8461C85.6638 52.1069 84.8131 54.1124 84.5089 55.7516C84.1158 57.9236 84.2435 60.1579 84.8814 62.2711C85.3036 63.6495 86.1791 65.7171 87.9052 65.7419C88.3196 65.7122 88.7238 65.5997 89.0939 65.4109C89.464 65.2221 89.7925 64.961 90.0598 64.6429H89.6189C90.5168 65.4727 91.3225 66.397 92.0218 67.3998C93.1581 68.8403 94.2509 70.3304 95.2443 71.8765C95.67 72.5229 96.0557 73.1947 96.3992 73.8882C96.5197 74.1219 96.6214 74.3649 96.7035 74.6147C96.7477 74.7622 96.7748 74.9143 96.7842 75.0679C96.7842 75.13 96.7842 75.1176 96.7469 75.1487C96.7017 75.197 96.6466 75.2351 96.5855 75.2604C96.3752 75.3633 96.1516 75.4364 95.9211 75.4777C95.217 75.6171 94.5026 75.6981 93.7852 75.7199C91.9597 75.813 90.1281 75.7634 88.3088 75.6826C87.1477 75.633 85.9618 75.6143 84.8131 75.4653C83.3715 75.2834 81.9538 74.9461 80.5848 74.4595C80.2743 74.3415 79.4175 74.0559 79.3429 73.7082C79.3429 73.7082 79.3429 73.7082 79.3429 73.6585C79.4145 73.5685 79.5058 73.4962 79.6099 73.4474C79.9962 73.216 80.4388 73.0957 80.889 73.0997C82.4785 73.0997 84.1115 74.7637 85.6576 73.7206C86.5367 73.032 87.1456 72.0561 87.3775 70.9638C87.5933 70.0889 87.5035 69.1665 87.1229 68.3497C86.3281 66.636 84.6393 65.5433 83.7017 63.9413C82.2985 61.5632 83.0063 58.9741 83.5899 56.4904C83.9116 55.3125 84.0251 54.0875 83.9252 52.8706C83.8837 52.1147 83.6714 51.3781 83.3043 50.716C82.6151 49.6853 81.87 51.0203 81.6155 51.6412C81.0989 53.0202 80.7021 54.4411 80.4295 55.8882C80.1191 57.2914 79.8521 58.6947 79.5913 60.1103C79.4754 61.0071 79.2043 61.8769 78.7903 62.6809C78.2681 63.5033 77.4685 64.1113 76.5365 64.3946C74.2364 65.1953 71.7354 65.2084 69.4271 64.4318C68.2885 64.0611 67.2355 63.4664 66.3302 62.6826C65.4249 61.8989 64.6855 60.942 64.1556 59.8682C63.8033 58.8258 63.7116 57.713 63.8886 56.627C64.0343 55.5656 64.0717 54.4922 64.0004 53.4232C63.9639 52.9768 63.8345 52.5431 63.6207 52.1496C63.4069 51.7561 63.1132 51.4117 62.7586 51.1382C62.6877 51.0975 62.6035 51.0864 62.5245 51.1073C62.4454 51.1282 62.3778 51.1795 62.3363 51.25C62.1476 51.6061 62.0335 51.997 62.0011 52.3987C62.0011 52.647 62.2867 52.7588 62.4667 52.6657C64.4474 51.6598 66.5337 50.5422 67.9866 48.8223C68.6715 48.0594 69.1277 47.119 69.3029 46.1089C69.4376 44.9535 69.1936 43.7856 68.6075 42.7809C68.4088 42.4331 67.8872 42.7436 68.0735 43.0975C69.7313 46.32 74.0032 47.239 77.2691 46.3014C78.034 46.1225 78.7535 45.7868 79.382 45.3154C80.0104 44.8441 80.5342 44.2474 80.9201 43.5632C81.2596 42.6718 81.5071 41.7481 81.6589 40.8064C81.7911 40.2123 81.9739 39.6307 82.2053 39.0678C82.4439 38.5756 82.7265 38.1059 83.0498 37.6646C83.6024 36.8326 84.0618 35.9385 83.7886 34.9264C83.4306 33.9226 82.9195 32.9801 82.2736 32.1323C81.9838 31.7069 81.7185 31.2654 81.4789 30.8098C81.2367 30.3131 81.1187 29.7605 80.9201 29.2451C80.569 28.2938 80.0541 27.4112 79.3988 26.6373C78.8896 26.0362 78.2522 25.5568 77.5333 25.2344C76.8145 24.9121 76.0325 24.7549 75.245 24.7746C73.5479 24.8911 71.9242 25.5116 70.582 26.5566C69.0335 27.689 67.7304 29.1231 66.751 30.7725C66.4772 31.2988 66.1767 31.8107 65.8507 32.3062C65.4861 32.7287 65.0984 33.1308 64.6896 33.5107C64.4012 33.8748 64.0421 34.1768 63.634 34.3986C63.2969 34.5296 62.998 34.7431 62.7648 35.0195C62.5312 35.4046 62.4493 35.8627 62.535 36.3048C62.5785 36.696 63.1994 36.7022 63.1559 36.3048C63.1125 35.9074 63.0876 35.4666 63.454 35.2058C63.8203 34.945 64.0749 34.9078 64.3667 34.7153C64.7169 34.421 65.041 34.0969 65.3353 33.7467C65.7166 33.4028 66.0677 33.0268 66.3847 32.6228C67.0056 31.8157 67.3843 30.8719 67.9742 30.0523C68.5109 29.318 69.1159 28.6361 69.781 28.0157C71.9107 26.0412 75.3692 24.2903 78.0763 26.2586C78.7522 26.7775 79.3108 27.4334 79.7155 28.1834C80.2246 29.0775 80.4295 30.0461 80.858 30.9961C81.3304 31.8771 81.855 32.7293 82.4288 33.548C82.8635 34.2496 83.4658 35.1996 83.1739 36.0627C82.8324 37.0499 82.0687 37.8136 81.6589 38.7636C81.2657 39.7543 80.9724 40.7818 80.7835 41.8309C80.6808 42.5691 80.4064 43.273 79.9825 43.8861C79.5277 44.4505 78.9529 44.9065 78.2998 45.221C75.5058 46.6305 71.3829 46.2207 69.2781 43.7681C69.0192 43.4645 68.7943 43.1334 68.6075 42.7809L68.0735 43.0975C68.6783 44.0509 68.9125 45.1931 68.7317 46.3076C68.513 47.2479 68.0355 48.1082 67.3533 48.7912C65.9376 50.2938 64.0562 51.2748 62.237 52.2248L62.7027 52.4918C62.729 52.1987 62.8134 51.9137 62.951 51.6536L62.5288 51.7654C63.3733 52.3863 63.5161 53.4791 63.5036 54.4725C63.5036 55.615 63.2925 56.745 63.2801 57.8875C63.2336 58.9504 63.4991 60.0037 64.0438 60.9175C64.6759 61.9461 65.4902 62.8508 66.4467 63.5874C68.326 64.9909 70.6147 65.7371 72.96 65.7109C75.0214 65.7109 77.6851 65.2949 79.0511 63.5874C80.2246 62.1221 80.2929 60.0296 80.6593 58.2662C80.9263 56.981 81.1808 55.6957 81.5037 54.4228C81.69 53.7088 81.8887 52.9885 82.1246 52.2931C82.2519 51.8439 82.4626 51.4227 82.7455 51.0513C82.789 51.0079 82.7455 51.0016 82.8014 51.0513C82.922 51.2661 83.0199 51.4929 83.0932 51.7281C83.4102 52.8446 83.4718 54.0182 83.2733 55.1617C82.8635 57.6453 81.8079 60.129 82.5282 62.6623C82.8319 63.6933 83.3551 64.6465 84.0618 65.4563C84.6827 66.2014 85.403 66.8782 85.9928 67.6605C86.5813 68.3553 86.9085 69.2338 86.918 70.1442C86.893 70.7312 86.7459 71.3066 86.4861 71.8337C86.2264 72.3607 85.8596 72.8278 85.4092 73.2052C84.6765 73.7082 83.8135 73.3356 83.0746 73.0438C82.2735 72.6421 81.3795 72.462 80.4854 72.5222C79.9266 72.5967 79.0014 72.8948 78.7965 73.5095C78.6351 74.0062 79.0697 74.385 79.4175 74.6147C80.7608 75.2958 82.2127 75.7371 83.7079 75.9186C84.7804 76.0946 85.8629 76.2025 86.949 76.2415C88.7559 76.3408 90.5689 76.4091 92.3758 76.3905C93.2264 76.3905 94.077 76.347 94.9277 76.2601C95.5502 76.221 96.1634 76.0891 96.7469 75.8689C97.7776 75.4032 97.2871 74.3229 96.9022 73.5467C96.1132 72.0208 95.1929 70.5666 94.1515 69.2004C93.1457 67.8096 92.0963 66.4436 90.9725 65.1521C90.6895 64.8039 90.378 64.4799 90.0411 64.1835C89.9821 64.1262 89.903 64.0942 89.8207 64.0942C89.7384 64.0942 89.6594 64.1262 89.6003 64.1835C89.3768 64.4641 89.0938 64.6915 88.7716 64.8494C88.4495 65.0072 88.0963 65.0915 87.7376 65.0962C87.4393 65.0249 87.159 64.8927 86.9143 64.7078C86.6696 64.523 86.4658 64.2895 86.3157 64.022C85.2788 62.4636 84.9497 60.3897 84.8938 58.5519C84.838 56.8257 84.9808 54.6464 86.1357 53.2617C87.452 51.7095 89.6934 52.6408 90.9228 53.8268C92.2888 55.1741 93.127 57.0368 93.8846 58.794C94.6421 60.5512 95.263 62.2897 96.1074 63.9661C98.2992 68.3125 101.174 72.4229 102.757 77.0797C103.116 78.0475 103.36 79.0541 103.484 80.0787C103.567 80.6733 103.5 81.2792 103.291 81.842C103.062 82.2717 102.723 82.6328 102.308 82.8881C101.894 83.1434 101.419 83.2839 100.932 83.2949C99.5903 83.3989 98.2407 83.29 96.9332 82.9721C95.4865 82.6678 94.0646 82.258 92.649 81.8172C91.5189 81.4695 90.3951 81.0783 89.2526 80.7679C86.5981 80.0207 83.9031 79.4257 81.1808 78.9859C80.0322 78.8058 78.8773 78.6754 77.7162 78.5823C77.0418 78.5846 76.3733 78.456 75.7479 78.2035C74.6675 77.6447 74.562 76.1359 74.5061 75.0555C74.2898 72.244 74.2442 69.422 74.3695 66.605C74.3982 65.2063 74.5457 63.8125 74.8103 62.4387C74.89 61.9937 75.0343 61.5628 75.2388 61.1597C75.2997 61.0527 75.3749 60.9545 75.4623 60.8678C75.5038 60.8346 75.5498 60.8075 75.5989 60.7871C75.6314 60.8259 75.6605 60.8675 75.6858 60.9113C75.7555 61.0462 75.8116 61.1876 75.8535 61.3335C75.9896 61.8011 76.0892 62.2786 76.1515 62.7616C76.3449 64.155 76.4548 65.5586 76.4806 66.9651C76.524 68.4988 76.524 70.0324 76.4495 71.566C76.44 72.6911 76.3173 73.8123 76.0832 74.9127C75.7789 76.1545 74.4626 76.8313 73.2829 77.1852C71.4512 77.7254 69.5202 77.8061 67.6513 78.1104C66.7767 78.2397 65.9202 78.471 65.0994 78.7996C63.8101 79.3349 62.4917 79.7971 61.1504 80.1842C59.8217 80.5692 58.4805 80.9045 57.1456 81.2522C55.8594 81.597 54.593 82.0116 53.3518 82.494C51.0048 83.4005 48.6888 84.2077 46.1369 84.0587C44.9324 83.9904 43.4484 83.7234 42.7281 82.6306C42.1072 81.7054 42.219 80.4947 42.4425 79.464C42.7987 78.0809 43.2982 76.7387 43.9327 75.4591C44.5536 74.0807 45.2366 72.7395 45.8699 71.3673C46.5716 69.8461 47.1117 68.2628 47.6706 66.6919C48.3616 64.5923 49.1913 62.5409 50.1542 60.5512C51.1228 58.645 52.3646 56.6767 54.1528 55.4411C56.1583 54.0627 58.6606 54.0317 60.9828 53.6219L60.6289 53.4791C61.4455 55.4489 61.5725 57.637 60.989 59.6881C60.7752 60.7083 60.1969 61.6156 59.3622 62.24C58.2942 62.8982 56.8786 62.4636 55.8789 63.2894C54.8793 64.1152 54.9414 65.4563 54.3763 66.4311C54.3343 66.5028 54.3225 66.5882 54.3435 66.6685C54.3644 66.7488 54.4165 66.8176 54.4881 66.8596C54.5597 66.9016 54.6451 66.9134 54.7255 66.8924C54.8058 66.8715 54.8745 66.8194 54.9165 66.7478C55.1765 66.2616 55.5349 65.8349 55.9689 65.495C56.403 65.155 56.9031 64.9092 57.4374 64.7733L57.0462 64.4691C56.9469 66.487 55.5933 68.2318 54.395 69.753C53.1159 71.3673 51.6692 72.9507 50.8682 74.8755C50.4545 75.8327 50.3168 76.8865 50.4708 77.9179C50.4885 77.9835 50.5272 78.0416 50.5811 78.0831C50.6349 78.1246 50.7009 78.1473 50.7689 78.1476C52.8021 78.1363 54.8333 78.0161 56.8537 77.7875C59.208 77.5415 61.5341 77.0758 63.8017 76.3967C65.6644 75.8317 67.6451 75.0431 68.9366 73.5591C70.3957 71.8827 70.6379 69.5729 70.8552 67.4494C71.1097 64.9658 71.3022 62.2028 73.4009 60.545L72.8793 60.4084C73.4407 62.9655 73.66 65.5859 73.5313 68.2007C73.4878 71.1749 73.2581 74.3167 72.1839 77.1169C71.8602 78.1482 71.2405 79.0615 70.4019 79.7434C69.2408 80.5443 67.5706 80.3643 66.2356 80.445C64.9007 80.5257 63.3733 80.7741 62.5971 82.0159C62.4169 82.3372 62.3056 82.6925 62.2703 83.0591C62.235 83.4258 62.2765 83.7958 62.3922 84.1456C62.5909 85.0769 62.8765 85.909 62.5847 86.8465C61.9417 88.5655 61.0023 90.1584 59.8093 91.553C59.3874 92.0566 58.8758 92.4777 58.3005 92.7948C57.9341 92.9687 57.8844 92.919 57.9403 92.4968C58.1397 91.5371 58.5166 90.6232 59.0518 89.802C59.5676 88.9916 59.9845 88.1224 60.2936 87.2129C60.4835 86.4729 60.5257 85.7028 60.4177 84.9466C60.275 84.1373 60.275 83.3094 60.4177 82.5002C60.6972 81.4881 62.4667 81.5937 63.2677 81.5937C64.8151 81.6195 66.3596 81.7356 67.8934 81.9414C69.045 82.1282 70.2101 82.2195 71.3767 82.2146C72.811 82.1401 74.2391 81.8669 75.661 81.6682C77.3294 81.3923 79.0178 81.2552 80.7089 81.2584C81.8824 81.2894 83.5403 81.4012 84.2108 82.5436C84.5772 83.3675 84.6917 84.2813 84.5399 85.1701C84.4385 86.0773 84.424 86.9921 84.4965 87.9021C84.6952 89.5102 85.9556 90.6278 86.4585 92.118C86.6134 92.4562 86.6421 92.8386 86.5396 93.1962C86.4372 93.5537 86.2102 93.8628 85.8997 94.0677H86.2102C84.5275 93.1736 83.1988 91.8386 81.6527 90.7458C80.9936 90.2469 80.2283 89.9068 79.4164 89.7517C78.6044 89.5966 77.7677 89.6309 76.9711 89.8517C75.7665 90.1746 74.7607 90.7706 73.5375 91.0935C73.0618 91.2775 72.5401 91.3057 72.0473 91.1742C71.6686 90.9631 71.9914 90.1994 72.2087 89.9697C72.631 89.5288 73.2829 90.2491 73.4505 90.5906C73.6575 90.9546 73.7286 91.3803 73.6513 91.7918C73.574 92.2033 73.3533 92.5741 73.0283 92.8383C72.2025 93.5833 71.0601 93.5026 70.0852 93.9186C69.0982 94.4182 68.3388 95.2753 67.9617 96.3153C67.5699 97.399 67.0082 98.4134 66.2977 99.3205C65.5866 100.116 64.7842 100.824 63.9072 101.432C62.2592 102.437 60.423 103.094 58.5116 103.363C55.5561 103.897 52.5571 104.201 49.6761 105.107C48.4901 105.48 47.3974 106.051 46.2363 106.473C45.0752 106.896 43.852 107.125 42.8027 106.349L42.9144 106.771C43.4981 105.592 45.0379 105.809 46.0997 106.057C47.8645 106.538 49.567 107.224 51.1725 108.1C52.7123 108.882 54.2149 109.746 55.7361 110.584C57.7708 111.568 59.8827 112.384 62.0507 113.024C63.4912 113.514 65.0559 114.011 66.2046 115.054C67.065 115.967 67.8402 116.956 68.5206 118.01C68.5631 118.079 68.6307 118.129 68.7093 118.15C68.7879 118.171 68.8715 118.161 68.9428 118.122C71.2277 117.029 70.0542 114.278 68.7317 112.894L68.5081 113.421C70.0852 113.384 71.6127 114.042 73.1774 113.924C73.8263 113.875 74.4518 113.66 74.995 113.302C75.5382 112.943 75.9811 112.452 76.2819 111.875C76.5613 111.391 76.7848 110.869 77.1015 110.404C77.4828 109.836 78.0487 109.417 78.7034 109.218C80.442 108.702 82.3109 109.41 83.8756 110.149C85.3099 110.826 86.4772 111.912 87.8556 112.676C89.234 113.44 90.8173 113.639 92.413 113.806C93.93 113.876 95.3906 114.402 96.6041 115.315C96.9642 115.601 97.5044 116.066 97.5169 116.52C97.5169 116.836 97.1816 117.091 96.8339 117.265C96.2555 117.53 95.6433 117.714 95.0146 117.811C93.3866 118.096 91.7373 118.241 90.0846 118.246C88.8428 118.246 87.601 118.283 86.3902 118.19C83.0684 117.929 79.8335 116.756 76.4557 117.252C74.711 117.507 73.0532 118.146 71.3457 118.562C69.4801 118.956 67.5828 119.181 65.6768 119.233C61.7962 119.463 57.9093 119.376 54.0348 119.233C52.1162 119.177 50.1914 119.078 48.2728 119.096C46.4598 119.096 44.6405 119.233 42.8275 119.27C41.092 119.377 39.35 119.281 37.6367 118.985C36.5912 118.773 35.6654 118.171 35.0475 117.302C34.2838 116.265 33.6133 115.147 32.8992 114.079C32.07 112.91 31.3567 111.662 30.7695 110.354C30.1785 109.174 30.0586 107.813 30.4342 106.548C30.8813 105.393 31.9679 104.592 32.9861 103.959C35.2405 102.651 37.6949 101.724 40.2507 101.214C42.9424 100.612 45.6727 100.197 48.4219 99.9725C49.6016 99.8669 50.7875 99.78 51.9672 99.7303C53.1469 99.6806 54.277 99.8855 55.4381 99.811C56.5992 99.7365 57.5119 99.2895 57.6547 98.0601C57.7168 97.5385 58.139 97.2467 58.3439 96.781C58.4743 96.4892 58.5054 96.3402 58.8096 96.1974C60.1942 95.5454 61.7279 95.949 63.1559 96.0794C65.0187 96.2408 66.8814 96.1725 68.7441 96.2098C70.7186 96.2098 72.6868 96.2843 74.6551 96.3526C76.6234 96.4209 78.4426 96.5637 80.3426 96.6258C81.2825 96.6589 82.2234 96.6423 83.1615 96.5761C83.8575 96.498 84.5467 96.3672 85.2229 96.1849C85.937 96.0235 86.7007 95.9055 87.2533 96.4954C87.392 96.6329 87.5006 96.7978 87.5722 96.9795C87.6438 97.1612 87.6769 97.3558 87.6693 97.5509C87.6227 97.843 87.6227 98.1406 87.6693 98.4326C87.7273 98.5916 87.8214 98.7349 87.9443 98.8512C88.0671 98.9676 88.2153 99.0539 88.3771 99.1032C89.6562 99.6123 91.2395 99.5006 92.5807 99.3826C95.263 99.1467 97.8956 98.5444 100.597 98.5816C102.184 98.6024 103.769 98.7039 105.346 98.8859C107.22 99.0797 109.07 99.4624 110.866 100.028C112.363 100.519 113.971 101.214 114.983 102.45C115.445 103.046 115.733 103.758 115.816 104.507C115.899 105.256 115.774 106.014 115.455 106.697C114.567 108.976 112.537 110.422 110.363 111.341C108.021 112.264 105.582 112.923 103.093 113.303C101.619 113.6 100.131 113.82 98.6345 113.961C96.7413 114.087 94.8427 114.109 92.947 114.03C92.0839 114.03 91.2147 113.943 90.3516 113.955C89.6003 113.955 88.8552 114.036 88.1101 114.079C86.5889 114.173 84.8752 114.278 83.4782 113.564C81.423 112.515 80.8766 109.361 81.9321 107.448C82.5303 106.515 83.4383 105.822 84.4965 105.492C85.7004 105.055 86.9503 104.757 88.2219 104.604C90.6133 104.257 93.0381 104.201 95.443 104.437C96.7518 104.671 98.0305 105.05 99.2554 105.567C100.416 105.97 101.702 106.461 102.981 106.368C103.8 106.312 105.303 105.958 105.191 104.859C105.079 103.76 103.602 102.996 102.708 102.63C99.9819 101.388 96.8587 101.494 93.9591 101.854C91.0594 102.214 88.3088 102.965 85.4589 103.431C83.3292 103.779 80.4916 103.903 79.0014 105.703C78.1446 106.728 78.2377 107.92 78.5358 109.143C78.7638 109.784 78.834 110.469 78.7407 111.143C78.573 111.807 77.89 112.707 77.1449 112.744C76.5675 112.744 76.1763 112.186 75.9838 111.72C75.7355 111.088 75.6793 110.397 75.8224 109.733C76.108 108.293 76.8593 106.995 76.524 105.48C76.5098 105.428 76.4823 105.381 76.4442 105.342C76.406 105.304 76.3587 105.277 76.3067 105.263C74.6799 105.039 74.059 106.442 73.6679 107.746C73.4849 108.509 73.242 109.257 72.9414 109.981C72.7258 110.422 72.3972 110.797 71.9892 111.068C71.5812 111.34 71.1085 111.498 70.6192 111.528C69.3774 111.621 68.1977 111.049 67.049 110.689C65.7265 110.273 64.3419 110 62.9883 109.702C60.6149 109.108 58.1766 108.812 55.7299 108.82C54.6031 108.892 53.4728 108.892 52.346 108.82C51.3463 108.721 50.2163 108.454 49.5705 107.61L49.4588 108.038C50.7813 107.082 52.5136 106.753 54.1031 106.548C55.792 106.343 57.4942 106.268 59.1946 106.324C59.9831 106.324 60.7592 106.424 61.5478 106.486C62.2955 106.541 63.0442 106.393 63.7148 106.057C64.534 105.624 65.3223 105.134 66.0742 104.592C66.5578 104.228 67.078 103.916 67.6265 103.661C67.878 103.559 68.1477 103.51 68.4189 103.517C68.69 103.523 68.9571 103.585 69.2036 103.698C70.17 104.174 71.068 104.777 71.8735 105.492C72.1777 105.741 72.6247 105.306 72.3081 105.051L72.2957 105.045Z" fill="#379F8F"/>
<path d="M62.8457 36.2984C63.5225 40.5392 63.7895 37.9438 66.9002 40.5889C67.608 41.2098 64.4601 32.8897 67.7881 27.7299C71.1162 22.5702 79.5418 22.2784 81.8082 28.9717C83.1058 25.8672 79.9454 19 73.5004 19C67.0554 19 63.6591 21.7754 63.3797 30.2756" stroke="#379F8F" stroke-linecap="round" stroke-linejoin="round"/>
</svg>
